<ttFont>
    <TTGlyph name="A" xMin="-36" yMin="0" xMax="509" yMax="668">
      <contour>
        <pt x="381" y="172" on="1"/>
        <pt x="146" y="172" on="1"/>
        <pt x="62" y="0" on="1"/>
        <pt x="-36" y="0" on="1"/>
        <pt x="288" y="668" on="1"/>
        <pt x="395" y="668" on="1"/>
        <pt x="509" y="0" on="1"/>
        <pt x="412" y="0" on="1"/>
      </contour>
      <contour>
        <pt x="371" y="247" on="1"/>
        <pt x="327" y="577" on="1"/>
        <pt x="180" y="247" on="1"/>
      </contour>
    </TTGlyph>
    <TTGlyph name="AE" xMin="-40" yMin="0" xMax="780" yMax="668">
      <contour>
        <pt x="356" y="668" on="1"/>
        <pt x="780" y="668" on="1"/>
        <pt x="758" y="587" on="1"/>
        <pt x="492" y="587" on="1"/>
        <pt x="460" y="385" on="1"/>
        <pt x="719" y="385" on="1"/>
        <pt x="707" y="305" on="1"/>
        <pt x="448" y="305" on="1"/>
        <pt x="412" y="81" on="1"/>
        <pt x="687" y="81" on="1"/>
        <pt x="685" y="0" on="1"/>
        <pt x="306" y="0" on="1"/>
        <pt x="333" y="172" on="1"/>
        <pt x="162" y="172" on="1"/>
        <pt x="60" y="0" on="1"/>
        <pt x="-40" y="0" on="1"/>
      </contour>
      <contour>
        <pt x="400" y="594" on="1"/>
        <pt x="205" y="247" on="1"/>
        <pt x="345" y="247" on="1"/>
      </contour>
    </TTGlyph>
    <TTGlyph name="Aacute" xMin="-36" yMin="0" xMax="509" yMax="905">
      <contour>
        <pt x="381" y="172" on="1"/>
        <pt x="146" y="172" on="1"/>
        <pt x="62" y="0" on="1"/>
        <pt x="-36" y="0" on="1"/>
        <pt x="288" y="668" on="1"/>
        <pt x="395" y="668" on="1"/>
        <pt x="509" y="0" on="1"/>
        <pt x="412" y="0" on="1"/>
      </contour>
      <contour>
        <pt x="371" y="247" on="1"/>
        <pt x="327" y="577" on="1"/>
        <pt x="180" y="247" on="1"/>
      </contour>
      <contour>
        <pt x="495" y="832" on="1"/>
        <pt x="307" y="728" on="1"/>
        <pt x="280" y="783" on="1"/>
        <pt x="459" y="905" on="1"/>
      </contour>
    </TTGlyph>
    <TTGlyph name="Acircumflex" xMin="-36" yMin="0" xMax="509" yMax="860">
      <contour>
        <pt x="381" y="172" on="1"/>
        <pt x="146" y="172" on="1"/>
        <pt x="62" y="0" on="1"/>
        <pt x="-36" y="0" on="1"/>
        <pt x="288" y="668" on="1"/>
        <pt x="395" y="668" on="1"/>
        <pt x="509" y="0" on="1"/>
        <pt x="412" y="0" on="1"/>
      </contour>
      <contour>
        <pt x="371" y="247" on="1"/>
        <pt x="327" y="577" on="1"/>
        <pt x="180" y="247" on="1"/>
      </contour>
      <contour>
        <pt x="362" y="800" on="1"/>
        <pt x="264" y="714" on="1"/>
        <pt x="221" y="750" on="1"/>
        <pt x="338" y="860" on="1"/>
        <pt x="403" y="860" on="1"/>
        <pt x="485" y="750" on="1"/>
        <pt x="429" y="714" on="1"/>
      </contour>
    </TTGlyph>
    <TTGlyph name="Adieresis" xMin="-36" yMin="0" xMax="509" yMax="839">
      <contour>
        <pt x="381" y="172" on="1"/>
        <pt x="146" y="172" on="1"/>
        <pt x="62" y="0" on="1"/>
        <pt x="-36" y="0" on="1"/>
        <pt x="288" y="668" on="1"/>
        <pt x="395" y="668" on="1"/>
        <pt x="509" y="0" on="1"/>
        <pt x="412" y="0" on="1"/>
      </contour>
      <contour>
        <pt x="371" y="247" on="1"/>
        <pt x="327" y="577" on="1"/>
        <pt x="180" y="247" on="1"/>
      </contour>
      <contour>
        <pt x="264" y="839" on="0"/>
        <pt x="310" y="839" on="0"/>
        <pt x="335" y="811" on="0"/>
        <pt x="335" y="800" on="1"/>
        <pt x="335" y="766" on="0"/>
        <pt x="293" y="728" on="0"/>
        <pt x="247" y="728" on="0"/>
        <pt x="223" y="758" on="0"/>
        <pt x="223" y="769" on="1"/>
        <pt x="223" y="804" on="0"/>
      </contour>
      <contour>
        <pt x="430" y="839" on="0"/>
        <pt x="475" y="839" on="0"/>
        <pt x="500" y="811" on="0"/>
        <pt x="500" y="800" on="1"/>
        <pt x="500" y="766" on="0"/>
        <pt x="458" y="728" on="0"/>
        <pt x="412" y="728" on="0"/>
        <pt x="388" y="758" on="0"/>
        <pt x="388" y="769" on="1"/>
        <pt x="388" y="804" on="0"/>
      </contour>
    </TTGlyph>
    <TTGlyph name="Agrave" xMin="-36" yMin="0" xMax="509" yMax="903">
      <contour>
        <pt x="381" y="172" on="1"/>
        <pt x="146" y="172" on="1"/>
        <pt x="62" y="0" on="1"/>
        <pt x="-36" y="0" on="1"/>
        <pt x="288" y="668" on="1"/>
        <pt x="395" y="668" on="1"/>
        <pt x="509" y="0" on="1"/>
        <pt x="412" y="0" on="1"/>
      </contour>
      <contour>
        <pt x="371" y="247" on="1"/>
        <pt x="327" y="577" on="1"/>
        <pt x="180" y="247" on="1"/>
      </contour>
      <contour>
        <pt x="403" y="726" on="1"/>
        <pt x="248" y="830" on="1"/>
        <pt x="308" y="903" on="1"/>
        <pt x="448" y="781" on="1"/>
      </contour>
    </TTGlyph>
    <TTGlyph name="Aring" xMin="-36" yMin="0" xMax="509" yMax="929">
      <contour>
        <pt x="398" y="724" on="0"/>
        <pt x="298" y="724" on="0"/>
        <pt x="260" y="777" on="0"/>
        <pt x="260" y="807" on="1"/>
        <pt x="260" y="862" on="0"/>
        <pt x="332" y="929" on="0"/>
        <pt x="432" y="929" on="0"/>
        <pt x="470" y="877" on="0"/>
        <pt x="470" y="846" on="1"/>
        <pt x="470" y="793" on="0"/>
      </contour>
      <contour>
        <pt x="411" y="839" on="1"/>
        <pt x="411" y="875" on="0"/>
        <pt x="373" y="875" on="1"/>
        <pt x="351" y="875" on="0"/>
        <pt x="338" y="861" on="1"/>
        <pt x="320" y="843" on="0"/>
        <pt x="320" y="816" on="1"/>
        <pt x="320" y="778" on="0"/>
        <pt x="357" y="778" on="1"/>
        <pt x="401" y="778" on="0"/>
        <pt x="410" y="828" on="1"/>
        <pt x="411" y="834" on="0"/>
      </contour>
      <contour>
        <pt x="381" y="172" on="1"/>
        <pt x="146" y="172" on="1"/>
        <pt x="62" y="0" on="1"/>
        <pt x="-36" y="0" on="1"/>
        <pt x="288" y="668" on="1"/>
        <pt x="395" y="668" on="1"/>
        <pt x="509" y="0" on="1"/>
        <pt x="412" y="0" on="1"/>
      </contour>
      <contour>
        <pt x="371" y="247" on="1"/>
        <pt x="327" y="577" on="1"/>
        <pt x="180" y="247" on="1"/>
      </contour>
    </TTGlyph>
    <TTGlyph name="Atilde" xMin="-36" yMin="0" xMax="528" yMax="844">
      <contour>
        <pt x="381" y="172" on="1"/>
        <pt x="146" y="172" on="1"/>
        <pt x="62" y="0" on="1"/>
        <pt x="-36" y="0" on="1"/>
        <pt x="288" y="668" on="1"/>
        <pt x="395" y="668" on="1"/>
        <pt x="509" y="0" on="1"/>
        <pt x="412" y="0" on="1"/>
      </contour>
      <contour>
        <pt x="371" y="247" on="1"/>
        <pt x="327" y="577" on="1"/>
        <pt x="180" y="247" on="1"/>
      </contour>
      <contour>
        <pt x="300" y="844" on="1"/>
        <pt x="322" y="844" on="0"/>
        <pt x="408" y="801" on="0"/>
        <pt x="447" y="801" on="0"/>
        <pt x="491" y="843" on="1"/>
        <pt x="528" y="807" on="1"/>
        <pt x="502" y="773" on="0"/>
        <pt x="436" y="730" on="0"/>
        <pt x="386" y="730" on="0"/>
        <pt x="305" y="773" on="0"/>
        <pt x="267" y="773" on="0"/>
        <pt x="230" y="736" on="1"/>
        <pt x="192" y="773" on="1"/>
        <pt x="248" y="844" on="0"/>
      </contour>
    </TTGlyph>
    <TTGlyph name="B" xMin="34" yMin="0" xMax="500" yMax="668">
      <contour>
        <pt x="397" y="365" on="1"/>
        <pt x="491" y="327" on="0"/>
        <pt x="491" y="246" on="1"/>
        <pt x="491" y="119" on="0"/>
        <pt x="410" y="52" on="1"/>
        <pt x="347" y="0" on="0"/>
        <pt x="237" y="0" on="1"/>
        <pt x="34" y="0" on="1"/>
        <pt x="139" y="668" on="1"/>
        <pt x="262" y="668" on="1"/>
        <pt x="321" y="668" on="0"/>
        <pt x="348" y="667" on="1"/>
        <pt x="499" y="661" on="0"/>
        <pt x="499" y="539" on="1"/>
        <pt x="499" y="522" on="0"/>
        <pt x="496" y="502" on="1"/>
        <pt x="481" y="406" on="0"/>
      </contour>
      <contour>
        <pt x="364" y="426" on="1"/>
        <pt x="401" y="463" on="0"/>
        <pt x="401" y="531" on="1"/>
        <pt x="401" y="571" on="0"/>
        <pt x="370" y="584" on="1"/>
        <pt x="349" y="592" on="0"/>
        <pt x="310" y="596" on="0"/>
        <pt x="271" y="596" on="1"/>
        <pt x="224" y="596" on="1"/>
        <pt x="192" y="396" on="1"/>
        <pt x="290" y="396" on="1"/>
        <pt x="335" y="399" on="0"/>
      </contour>
      <contour>
        <pt x="230" y="81" on="1"/>
        <pt x="372" y="81" on="0"/>
        <pt x="391" y="199" on="1"/>
        <pt x="393" y="212" on="0"/>
        <pt x="393" y="224" on="1"/>
        <pt x="393" y="266" on="0"/>
        <pt x="365" y="290" on="1"/>
        <pt x="339" y="322" on="0"/>
        <pt x="256" y="322" on="1"/>
        <pt x="180" y="322" on="1"/>
        <pt x="142" y="81" on="1"/>
      </contour>
    </TTGlyph>
    <TTGlyph name="C" xMin="48" yMin="-13" xMax="536" yMax="681">
      <contour>
        <pt x="290" y="-13" on="1"/>
        <pt x="49" y="-13" on="0"/>
        <pt x="49" y="231" on="1"/>
        <pt x="49" y="278" on="0"/>
        <pt x="58" y="335" on="1"/>
        <pt x="86" y="515" on="0"/>
        <pt x="259" y="681" on="0"/>
        <pt x="388" y="681" on="1"/>
        <pt x="456" y="681" on="0"/>
        <pt x="536" y="658" on="1"/>
        <pt x="506" y="583" on="1"/>
        <pt x="441" y="598" on="0"/>
        <pt x="390" y="598" on="1"/>
        <pt x="298" y="598" on="0"/>
        <pt x="177" y="480" on="0"/>
        <pt x="154" y="339" on="1"/>
        <pt x="146" y="290" on="0"/>
        <pt x="146" y="251" on="1"/>
        <pt x="146" y="172" on="0"/>
        <pt x="178" y="130" on="1"/>
        <pt x="224" y="69" on="0"/>
        <pt x="322" y="69" on="1"/>
        <pt x="374" y="69" on="0"/>
        <pt x="434" y="81" on="1"/>
        <pt x="435" y="6" on="1"/>
        <pt x="354" y="-13" on="0"/>
      </contour>
    </TTGlyph>
    <TTGlyph name="Ccedilla" xMin="48" yMin="-255" xMax="536" yMax="681">
      <contour>
        <pt x="290" y="-13" on="1"/>
        <pt x="49" y="-13" on="0"/>
        <pt x="49" y="231" on="1"/>
        <pt x="49" y="278" on="0"/>
        <pt x="58" y="335" on="1"/>
        <pt x="86" y="515" on="0"/>
        <pt x="259" y="681" on="0"/>
        <pt x="388" y="681" on="1"/>
        <pt x="456" y="681" on="0"/>
        <pt x="536" y="658" on="1"/>
        <pt x="506" y="583" on="1"/>
        <pt x="441" y="598" on="0"/>
        <pt x="390" y="598" on="1"/>
        <pt x="298" y="598" on="0"/>
        <pt x="177" y="480" on="0"/>
        <pt x="154" y="339" on="1"/>
        <pt x="146" y="290" on="0"/>
        <pt x="146" y="251" on="1"/>
        <pt x="146" y="172" on="0"/>
        <pt x="178" y="130" on="1"/>
        <pt x="224" y="69" on="0"/>
        <pt x="322" y="69" on="1"/>
        <pt x="374" y="69" on="0"/>
        <pt x="434" y="81" on="1"/>
        <pt x="435" y="6" on="1"/>
        <pt x="354" y="-13" on="0"/>
      </contour>
      <contour>
        <pt x="158" y="-207" on="1"/>
        <pt x="244" y="-153" on="0"/>
        <pt x="244" y="-95" on="1"/>
        <pt x="244" y="-75" on="0"/>
        <pt x="235" y="-49" on="1"/>
        <pt x="314" y="-49" on="1"/>
        <pt x="321" y="-74" on="0"/>
        <pt x="321" y="-105" on="0"/>
        <pt x="320" y="-113" on="1"/>
        <pt x="306" y="-193" on="0"/>
        <pt x="191" y="-255" on="1"/>
      </contour>
    </TTGlyph>
    <TTGlyph name="D" xMin="34" yMin="0" xMax="574" yMax="668">
      <contour>
        <pt x="225" y="81" on="1"/>
        <pt x="343" y="81" on="0"/>
        <pt x="447" y="203" on="0"/>
        <pt x="467" y="334" on="1"/>
        <pt x="475" y="385" on="0"/>
        <pt x="475" y="488" on="0"/>
        <pt x="456" y="526" on="1"/>
        <pt x="423" y="587" on="0"/>
        <pt x="305" y="587" on="1"/>
        <pt x="222" y="587" on="1"/>
        <pt x="142" y="81" on="1"/>
      </contour>
      <contour>
        <pt x="206" y="0" on="1"/>
        <pt x="34" y="0" on="1"/>
        <pt x="139" y="668" on="1"/>
        <pt x="311" y="668" on="1"/>
        <pt x="439" y="668" on="0"/>
        <pt x="485" y="641" on="1"/>
        <pt x="574" y="591" on="0"/>
        <pt x="574" y="442" on="1"/>
        <pt x="574" y="393" on="0"/>
        <pt x="564" y="333" on="1"/>
        <pt x="526" y="92" on="0"/>
        <pt x="388" y="26" on="1"/>
        <pt x="335" y="0" on="0"/>
      </contour>
    </TTGlyph>
    <TTGlyph name="E" xMin="34" yMin="0" xMax="510" yMax="668">
      <contour>
        <pt x="142" y="81" on="1"/>
        <pt x="426" y="81" on="1"/>
        <pt x="414" y="0" on="1"/>
        <pt x="34" y="0" on="1"/>
        <pt x="139" y="668" on="1"/>
        <pt x="510" y="668" on="1"/>
        <pt x="497" y="587" on="1"/>
        <pt x="222" y="587" on="1"/>
        <pt x="190" y="385" on="1"/>
        <pt x="449" y="385" on="1"/>
        <pt x="437" y="306" on="1"/>
        <pt x="178" y="306" on="1"/>
      </contour>
    </TTGlyph>
    <TTGlyph name="Eacute" xMin="34" yMin="0" xMax="510" yMax="905">
      <contour>
        <pt x="142" y="81" on="1"/>
        <pt x="426" y="81" on="1"/>
        <pt x="414" y="0" on="1"/>
        <pt x="34" y="0" on="1"/>
        <pt x="139" y="668" on="1"/>
        <pt x="510" y="668" on="1"/>
        <pt x="497" y="587" on="1"/>
        <pt x="222" y="587" on="1"/>
        <pt x="190" y="385" on="1"/>
        <pt x="449" y="385" on="1"/>
        <pt x="437" y="306" on="1"/>
        <pt x="178" y="306" on="1"/>
      </contour>
      <contour>
        <pt x="465" y="832" on="1"/>
        <pt x="277" y="728" on="1"/>
        <pt x="250" y="783" on="1"/>
        <pt x="429" y="905" on="1"/>
      </contour>
    </TTGlyph>
    <TTGlyph name="Ecircumflex" xMin="34" yMin="0" xMax="510" yMax="860">
      <contour>
        <pt x="142" y="81" on="1"/>
        <pt x="426" y="81" on="1"/>
        <pt x="414" y="0" on="1"/>
        <pt x="34" y="0" on="1"/>
        <pt x="139" y="668" on="1"/>
        <pt x="510" y="668" on="1"/>
        <pt x="497" y="587" on="1"/>
        <pt x="222" y="587" on="1"/>
        <pt x="190" y="385" on="1"/>
        <pt x="449" y="385" on="1"/>
        <pt x="437" y="306" on="1"/>
        <pt x="178" y="306" on="1"/>
      </contour>
      <contour>
        <pt x="349" y="800" on="1"/>
        <pt x="251" y="714" on="1"/>
        <pt x="208" y="750" on="1"/>
        <pt x="325" y="860" on="1"/>
        <pt x="390" y="860" on="1"/>
        <pt x="472" y="750" on="1"/>
        <pt x="416" y="714" on="1"/>
      </contour>
    </TTGlyph>
    <TTGlyph name="Edieresis" xMin="34" yMin="0" xMax="510" yMax="839">
      <contour>
        <pt x="142" y="81" on="1"/>
        <pt x="426" y="81" on="1"/>
        <pt x="414" y="0" on="1"/>
        <pt x="34" y="0" on="1"/>
        <pt x="139" y="668" on="1"/>
        <pt x="510" y="668" on="1"/>
        <pt x="497" y="587" on="1"/>
        <pt x="222" y="587" on="1"/>
        <pt x="190" y="385" on="1"/>
        <pt x="449" y="385" on="1"/>
        <pt x="437" y="306" on="1"/>
        <pt x="178" y="306" on="1"/>
      </contour>
      <contour>
        <pt x="250" y="839" on="0"/>
        <pt x="296" y="839" on="0"/>
        <pt x="321" y="811" on="0"/>
        <pt x="321" y="800" on="1"/>
        <pt x="321" y="766" on="0"/>
        <pt x="279" y="728" on="0"/>
        <pt x="233" y="728" on="0"/>
        <pt x="209" y="758" on="0"/>
        <pt x="209" y="769" on="1"/>
        <pt x="209" y="804" on="0"/>
      </contour>
      <contour>
        <pt x="416" y="839" on="0"/>
        <pt x="461" y="839" on="0"/>
        <pt x="486" y="811" on="0"/>
        <pt x="486" y="800" on="1"/>
        <pt x="486" y="766" on="0"/>
        <pt x="444" y="728" on="0"/>
        <pt x="398" y="728" on="0"/>
        <pt x="374" y="758" on="0"/>
        <pt x="374" y="769" on="1"/>
        <pt x="374" y="804" on="0"/>
      </contour>
    </TTGlyph>
    <TTGlyph name="Egrave" xMin="34" yMin="0" xMax="510" yMax="903">
      <contour>
        <pt x="142" y="81" on="1"/>
        <pt x="426" y="81" on="1"/>
        <pt x="414" y="0" on="1"/>
        <pt x="34" y="0" on="1"/>
        <pt x="139" y="668" on="1"/>
        <pt x="510" y="668" on="1"/>
        <pt x="497" y="587" on="1"/>
        <pt x="222" y="587" on="1"/>
        <pt x="190" y="385" on="1"/>
        <pt x="449" y="385" on="1"/>
        <pt x="437" y="306" on="1"/>
        <pt x="178" y="306" on="1"/>
      </contour>
      <contour>
        <pt x="385" y="726" on="1"/>
        <pt x="230" y="830" on="1"/>
        <pt x="290" y="903" on="1"/>
        <pt x="430" y="781" on="1"/>
      </contour>
    </TTGlyph>
    <TTGlyph name="Eth" xMin="14" yMin="0" xMax="588" yMax="668">
      <contour>
        <pt x="326" y="668" on="1"/>
        <pt x="450" y="668" on="0"/>
        <pt x="499" y="640" on="1"/>
        <pt x="588" y="586" on="0"/>
        <pt x="588" y="425" on="1"/>
        <pt x="588" y="381" on="0"/>
        <pt x="580" y="333" on="1"/>
        <pt x="563" y="229" on="0"/>
        <pt x="472" y="64" on="0"/>
        <pt x="402" y="27" on="1"/>
        <pt x="346" y="0" on="0"/>
        <pt x="221" y="0" on="1"/>
        <pt x="50" y="0" on="1"/>
        <pt x="98" y="305" on="1"/>
        <pt x="14" y="305" on="1"/>
        <pt x="26" y="384" on="1"/>
        <pt x="110" y="384" on="1"/>
        <pt x="155" y="668" on="1"/>
      </contour>
      <contour>
        <pt x="241" y="81" on="1"/>
        <pt x="359" y="81" on="0"/>
        <pt x="463" y="203" on="0"/>
        <pt x="483" y="334" on="1"/>
        <pt x="491" y="385" on="0"/>
        <pt x="491" y="488" on="0"/>
        <pt x="472" y="526" on="1"/>
        <pt x="439" y="587" on="0"/>
        <pt x="321" y="587" on="1"/>
        <pt x="238" y="587" on="1"/>
        <pt x="206" y="384" on="1"/>
        <pt x="363" y="385" on="1"/>
        <pt x="351" y="306" on="1"/>
        <pt x="194" y="305" on="1"/>
        <pt x="158" y="81" on="1"/>
      </contour>
    </TTGlyph>
    <TTGlyph name="Euro" xMin="29" yMin="-13" xMax="603" yMax="681">
      <contour>
        <pt x="221" y="339" on="1"/>
        <pt x="215" y="296" on="1"/>
        <pt x="411" y="296" on="1"/>
        <pt x="401" y="232" on="1"/>
        <pt x="214" y="232" on="1"/>
        <pt x="225" y="69" on="0"/>
        <pt x="389" y="69" on="1"/>
        <pt x="441" y="69" on="0"/>
        <pt x="501" y="81" on="1"/>
        <pt x="502" y="6" on="1"/>
        <pt x="421" y="-13" on="0"/>
        <pt x="357" y="-13" on="1"/>
        <pt x="116" y="-13" on="0"/>
        <pt x="115" y="232" on="1"/>
        <pt x="29" y="232" on="1"/>
        <pt x="39" y="296" on="1"/>
        <pt x="119" y="296" on="1"/>
        <pt x="122" y="330" on="0"/>
        <pt x="133" y="382" on="1"/>
        <pt x="53" y="382" on="1"/>
        <pt x="63" y="446" on="1"/>
        <pt x="151" y="446" on="1"/>
        <pt x="229" y="681" on="0"/>
        <pt x="455" y="681" on="1"/>
        <pt x="523" y="681" on="0"/>
        <pt x="603" y="658" on="1"/>
        <pt x="573" y="583" on="1"/>
        <pt x="508" y="598" on="0"/>
        <pt x="457" y="598" on="1"/>
        <pt x="307" y="598" on="0"/>
        <pt x="248" y="446" on="1"/>
        <pt x="435" y="446" on="1"/>
        <pt x="425" y="382" on="1"/>
        <pt x="229" y="382" on="1"/>
        <pt x="225" y="365" on="0"/>
      </contour>
    </TTGlyph>
    <TTGlyph name="F" xMin="34" yMin="0" xMax="511" yMax="668">
      <contour>
        <pt x="498" y="587" on="1"/>
        <pt x="222" y="587" on="1"/>
        <pt x="190" y="384" on="1"/>
        <pt x="448" y="384" on="1"/>
        <pt x="436" y="304" on="1"/>
        <pt x="178" y="304" on="1"/>
        <pt x="130" y="0" on="1"/>
        <pt x="34" y="0" on="1"/>
        <pt x="139" y="668" on="1"/>
        <pt x="511" y="668" on="1"/>
      </contour>
    </TTGlyph>
    <TTGlyph name="G" xMin="51" yMin="-13" xMax="547" yMax="682">
      <contour>
        <pt x="150" y="253" on="1"/>
        <pt x="150" y="179" on="0"/>
        <pt x="178" y="137" on="1"/>
        <pt x="219" y="72" on="0"/>
        <pt x="296" y="72" on="1"/>
        <pt x="345" y="72" on="0"/>
        <pt x="395" y="94" on="1"/>
        <pt x="421" y="255" on="1"/>
        <pt x="309" y="255" on="1"/>
        <pt x="322" y="335" on="1"/>
        <pt x="524" y="335" on="1"/>
        <pt x="478" y="48" on="1"/>
        <pt x="372" y="-13" on="0"/>
        <pt x="276" y="-13" on="1"/>
        <pt x="163" y="-13" on="0"/>
        <pt x="100" y="66" on="1"/>
        <pt x="52" y="125" on="0"/>
        <pt x="52" y="237" on="1"/>
        <pt x="52" y="282" on="0"/>
        <pt x="59" y="336" on="1"/>
        <pt x="88" y="516" on="0"/>
        <pt x="263" y="682" on="0"/>
        <pt x="393" y="682" on="1"/>
        <pt x="467" y="682" on="0"/>
        <pt x="547" y="659" on="1"/>
        <pt x="515" y="584" on="1"/>
        <pt x="450" y="599" on="0"/>
        <pt x="394" y="599" on="1"/>
        <pt x="302" y="599" on="0"/>
        <pt x="181" y="481" on="0"/>
        <pt x="158" y="340" on="1"/>
        <pt x="150" y="292" on="0"/>
      </contour>
    </TTGlyph>
    <TTGlyph name="H" xMin="34" yMin="0" xMax="597" yMax="668">
      <contour>
        <pt x="456" y="384" on="1"/>
        <pt x="501" y="668" on="1"/>
        <pt x="597" y="668" on="1"/>
        <pt x="492" y="0" on="1"/>
        <pt x="396" y="0" on="1"/>
        <pt x="444" y="304" on="1"/>
        <pt x="178" y="304" on="1"/>
        <pt x="130" y="0" on="1"/>
        <pt x="34" y="0" on="1"/>
        <pt x="139" y="668" on="1"/>
        <pt x="235" y="668" on="1"/>
        <pt x="190" y="384" on="1"/>
      </contour>
    </TTGlyph>
    <TTGlyph name="I" xMin="34" yMin="0" xMax="235" yMax="668">
      <contour>
        <pt x="235" y="668" on="1"/>
        <pt x="130" y="0" on="1"/>
        <pt x="34" y="0" on="1"/>
        <pt x="139" y="668" on="1"/>
      </contour>
    </TTGlyph>
    <TTGlyph name="Iacute" xMin="34" yMin="0" xMax="341" yMax="905">
      <contour>
        <pt x="235" y="668" on="1"/>
        <pt x="130" y="0" on="1"/>
        <pt x="34" y="0" on="1"/>
        <pt x="139" y="668" on="1"/>
      </contour>
      <contour>
        <pt x="341" y="832" on="1"/>
        <pt x="153" y="728" on="1"/>
        <pt x="126" y="783" on="1"/>
        <pt x="305" y="905" on="1"/>
      </contour>
    </TTGlyph>
    <TTGlyph name="Icircumflex" xMin="34" yMin="0" xMax="321" yMax="860">
      <contour>
        <pt x="235" y="668" on="1"/>
        <pt x="130" y="0" on="1"/>
        <pt x="34" y="0" on="1"/>
        <pt x="139" y="668" on="1"/>
      </contour>
      <contour>
        <pt x="198" y="800" on="1"/>
        <pt x="100" y="714" on="1"/>
        <pt x="57" y="750" on="1"/>
        <pt x="174" y="860" on="1"/>
        <pt x="239" y="860" on="1"/>
        <pt x="321" y="750" on="1"/>
        <pt x="265" y="714" on="1"/>
      </contour>
    </TTGlyph>
    <TTGlyph name="Idieresis" xMin="34" yMin="0" xMax="335" yMax="839">
      <contour>
        <pt x="235" y="668" on="1"/>
        <pt x="130" y="0" on="1"/>
        <pt x="34" y="0" on="1"/>
        <pt x="139" y="668" on="1"/>
      </contour>
      <contour>
        <pt x="100" y="839" on="0"/>
        <pt x="145" y="839" on="0"/>
        <pt x="170" y="811" on="0"/>
        <pt x="170" y="800" on="1"/>
        <pt x="170" y="766" on="0"/>
        <pt x="128" y="728" on="0"/>
        <pt x="82" y="728" on="0"/>
        <pt x="58" y="758" on="0"/>
        <pt x="58" y="769" on="1"/>
        <pt x="58" y="804" on="0"/>
      </contour>
      <contour>
        <pt x="264" y="839" on="0"/>
        <pt x="310" y="839" on="0"/>
        <pt x="335" y="811" on="0"/>
        <pt x="335" y="800" on="1"/>
        <pt x="335" y="766" on="0"/>
        <pt x="293" y="728" on="0"/>
        <pt x="247" y="728" on="0"/>
        <pt x="223" y="758" on="0"/>
        <pt x="223" y="769" on="1"/>
        <pt x="223" y="804" on="0"/>
      </contour>
    </TTGlyph>
    <TTGlyph name="Igrave" xMin="34" yMin="0" xMax="279" yMax="903">
      <contour>
        <pt x="235" y="668" on="1"/>
        <pt x="130" y="0" on="1"/>
        <pt x="34" y="0" on="1"/>
        <pt x="139" y="668" on="1"/>
      </contour>
      <contour>
        <pt x="234" y="726" on="1"/>
        <pt x="79" y="830" on="1"/>
        <pt x="139" y="903" on="1"/>
        <pt x="279" y="781" on="1"/>
      </contour>
    </TTGlyph>
    <TTGlyph name="J" xMin="-104" yMin="-175" xMax="236" yMax="668">
      <contour>
        <pt x="-75" y="-175" on="1"/>
        <pt x="-104" y="-108" on="1"/>
        <pt x="-24" y="-66" on="0"/>
        <pt x="40" y="36" on="0"/>
        <pt x="54" y="125" on="1"/>
        <pt x="140" y="668" on="1"/>
        <pt x="236" y="668" on="1"/>
        <pt x="151" y="127" on="1"/>
        <pt x="134" y="20" on="0"/>
        <pt x="31" y="-130" on="0"/>
      </contour>
    </TTGlyph>
    <TTGlyph name="K" xMin="34" yMin="0" xMax="635" yMax="668">
      <contour>
        <pt x="234" y="668" on="1"/>
        <pt x="129" y="0" on="1"/>
        <pt x="34" y="0" on="1"/>
        <pt x="139" y="668" on="1"/>
      </contour>
      <contour>
        <pt x="211" y="342" on="1"/>
        <pt x="516" y="668" on="1"/>
        <pt x="635" y="668" on="1"/>
        <pt x="319" y="347" on="1"/>
        <pt x="545" y="0" on="1"/>
        <pt x="420" y="0" on="1"/>
      </contour>
    </TTGlyph>
    <TTGlyph name="L" xMin="34" yMin="0" xMax="392" yMax="668">
      <contour>
        <pt x="142" y="81" on="1"/>
        <pt x="392" y="81" on="1"/>
        <pt x="380" y="0" on="1"/>
        <pt x="34" y="0" on="1"/>
        <pt x="139" y="668" on="1"/>
        <pt x="235" y="668" on="1"/>
      </contour>
    </TTGlyph>
    <TTGlyph name="Lslash" xMin="20" yMin="0" xMax="425" yMax="668">
      <contour>
        <pt x="175" y="81" on="1"/>
        <pt x="425" y="81" on="1"/>
        <pt x="413" y="0" on="1"/>
        <pt x="67" y="0" on="1"/>
        <pt x="116" y="315" on="1"/>
        <pt x="20" y="315" on="1"/>
        <pt x="33" y="394" on="1"/>
        <pt x="129" y="394" on="1"/>
        <pt x="172" y="668" on="1"/>
        <pt x="268" y="668" on="1"/>
        <pt x="225" y="394" on="1"/>
        <pt x="418" y="394" on="1"/>
        <pt x="405" y="315" on="1"/>
        <pt x="212" y="315" on="1"/>
      </contour>
    </TTGlyph>
    <TTGlyph name="M" xMin="19" yMin="0" xMax="741" yMax="668">
      <contour>
        <pt x="266" y="668" on="1"/>
        <pt x="370" y="173" on="1"/>
        <pt x="630" y="668" on="1"/>
        <pt x="741" y="668" on="1"/>
        <pt x="667" y="0" on="1"/>
        <pt x="579" y="0" on="1"/>
        <pt x="638" y="474" on="1"/>
        <pt x="642" y="516" on="0"/>
        <pt x="651" y="558" on="1"/>
        <pt x="392" y="73" on="1"/>
        <pt x="316" y="73" on="1"/>
        <pt x="211" y="558" on="1"/>
        <pt x="205" y="515" on="0"/>
        <pt x="198" y="474" on="1"/>
        <pt x="107" y="0" on="1"/>
        <pt x="19" y="0" on="1"/>
        <pt x="155" y="668" on="1"/>
      </contour>
    </TTGlyph>
    <TTGlyph name="N" xMin="34" yMin="0" xMax="640" yMax="668">
      <contour>
        <pt x="535" y="0" on="1"/>
        <pt x="437" y="0" on="1"/>
        <pt x="206" y="541" on="1"/>
        <pt x="205" y="510" on="0"/>
        <pt x="197" y="457" on="1"/>
        <pt x="125" y="0" on="1"/>
        <pt x="34" y="0" on="1"/>
        <pt x="139" y="668" on="1"/>
        <pt x="237" y="668" on="1"/>
        <pt x="468" y="127" on="1"/>
        <pt x="469" y="158" on="0"/>
        <pt x="477" y="211" on="1"/>
        <pt x="549" y="668" on="1"/>
        <pt x="640" y="668" on="1"/>
      </contour>
    </TTGlyph>
    <TTGlyph name="Ntilde" xMin="34" yMin="0" xMax="640" yMax="844">
      <contour>
        <pt x="535" y="0" on="1"/>
        <pt x="437" y="0" on="1"/>
        <pt x="206" y="541" on="1"/>
        <pt x="205" y="510" on="0"/>
        <pt x="197" y="457" on="1"/>
        <pt x="125" y="0" on="1"/>
        <pt x="34" y="0" on="1"/>
        <pt x="139" y="668" on="1"/>
        <pt x="237" y="668" on="1"/>
        <pt x="468" y="127" on="1"/>
        <pt x="469" y="158" on="0"/>
        <pt x="477" y="211" on="1"/>
        <pt x="549" y="668" on="1"/>
        <pt x="640" y="668" on="1"/>
      </contour>
      <contour>
        <pt x="328" y="844" on="1"/>
        <pt x="350" y="844" on="0"/>
        <pt x="436" y="801" on="0"/>
        <pt x="475" y="801" on="0"/>
        <pt x="519" y="843" on="1"/>
        <pt x="556" y="807" on="1"/>
        <pt x="530" y="773" on="0"/>
        <pt x="464" y="730" on="0"/>
        <pt x="414" y="730" on="0"/>
        <pt x="333" y="773" on="0"/>
        <pt x="295" y="773" on="0"/>
        <pt x="258" y="736" on="1"/>
        <pt x="220" y="773" on="1"/>
        <pt x="276" y="844" on="0"/>
      </contour>
    </TTGlyph>
    <TTGlyph name="O" xMin="48" yMin="-13" xMax="585" yMax="681">
      <contour>
        <pt x="303" y="681" on="0"/>
        <pt x="441" y="681" on="0"/>
        <pt x="536" y="622" on="0"/>
        <pt x="556" y="574" on="1"/>
        <pt x="585" y="506" on="0"/>
        <pt x="585" y="423" on="1"/>
        <pt x="585" y="379" on="0"/>
        <pt x="565" y="265" on="0"/>
        <pt x="518" y="146" on="0"/>
        <pt x="443" y="45" on="0"/>
        <pt x="329" y="-13" on="0"/>
        <pt x="190" y="-13" on="0"/>
        <pt x="96" y="46" on="0"/>
        <pt x="76" y="94" on="1"/>
        <pt x="48" y="162" on="0"/>
        <pt x="48" y="245" on="1"/>
        <pt x="48" y="289" on="0"/>
        <pt x="68" y="403" on="0"/>
        <pt x="116" y="523" on="0"/>
        <pt x="191" y="623" on="0"/>
      </contour>
      <contour>
        <pt x="275" y="72" on="1"/>
        <pt x="358" y="72" on="0"/>
        <pt x="460" y="218" on="0"/>
        <pt x="478" y="334" on="1"/>
        <pt x="485" y="383" on="0"/>
        <pt x="485" y="447" on="0"/>
        <pt x="483" y="466" on="1"/>
        <pt x="478" y="525" on="0"/>
        <pt x="414" y="596" on="0"/>
        <pt x="358" y="596" on="1"/>
        <pt x="275" y="596" on="0"/>
        <pt x="173" y="451" on="0"/>
        <pt x="154" y="334" on="1"/>
        <pt x="148" y="287" on="0"/>
        <pt x="148" y="223" on="0"/>
        <pt x="150" y="202" on="1"/>
        <pt x="155" y="144" on="0"/>
        <pt x="219" y="72" on="0"/>
      </contour>
    </TTGlyph>
    <TTGlyph name="OE" xMin="48" yMin="-13" xMax="900" yMax="681">
      <contour>
        <pt x="259" y="-13" on="1"/>
        <pt x="190" y="-13" on="0"/>
        <pt x="96" y="46" on="0"/>
        <pt x="76" y="94" on="1"/>
        <pt x="48" y="162" on="0"/>
        <pt x="48" y="245" on="1"/>
        <pt x="48" y="289" on="0"/>
        <pt x="68" y="403" on="0"/>
        <pt x="116" y="523" on="0"/>
        <pt x="191" y="623" on="0"/>
        <pt x="303" y="681" on="0"/>
        <pt x="372" y="681" on="1"/>
        <pt x="476" y="681" on="0"/>
        <pt x="521" y="614" on="1"/>
        <pt x="529" y="668" on="1"/>
        <pt x="900" y="668" on="1"/>
        <pt x="877" y="587" on="1"/>
        <pt x="612" y="587" on="1"/>
        <pt x="580" y="385" on="1"/>
        <pt x="839" y="385" on="1"/>
        <pt x="827" y="306" on="1"/>
        <pt x="568" y="306" on="1"/>
        <pt x="532" y="81" on="1"/>
        <pt x="807" y="81" on="1"/>
        <pt x="804" y="0" on="1"/>
        <pt x="424" y="0" on="1"/>
        <pt x="432" y="56" on="1"/>
        <pt x="367" y="-13" on="0"/>
      </contour>
      <contour>
        <pt x="275" y="72" on="1"/>
        <pt x="358" y="72" on="0"/>
        <pt x="460" y="218" on="0"/>
        <pt x="478" y="334" on="1"/>
        <pt x="485" y="383" on="0"/>
        <pt x="485" y="447" on="0"/>
        <pt x="483" y="466" on="1"/>
        <pt x="478" y="525" on="0"/>
        <pt x="414" y="596" on="0"/>
        <pt x="358" y="596" on="1"/>
        <pt x="275" y="596" on="0"/>
        <pt x="173" y="451" on="0"/>
        <pt x="154" y="334" on="1"/>
        <pt x="148" y="287" on="0"/>
        <pt x="148" y="223" on="0"/>
        <pt x="150" y="202" on="1"/>
        <pt x="155" y="144" on="0"/>
        <pt x="219" y="72" on="0"/>
      </contour>
    </TTGlyph>
    <TTGlyph name="Oacute" xMin="48" yMin="-13" xMax="585" yMax="905">
      <contour>
        <pt x="303" y="681" on="0"/>
        <pt x="441" y="681" on="0"/>
        <pt x="536" y="622" on="0"/>
        <pt x="556" y="574" on="1"/>
        <pt x="585" y="506" on="0"/>
        <pt x="585" y="423" on="1"/>
        <pt x="585" y="379" on="0"/>
        <pt x="565" y="265" on="0"/>
        <pt x="518" y="146" on="0"/>
        <pt x="443" y="45" on="0"/>
        <pt x="329" y="-13" on="0"/>
        <pt x="190" y="-13" on="0"/>
        <pt x="96" y="46" on="0"/>
        <pt x="76" y="94" on="1"/>
        <pt x="48" y="162" on="0"/>
        <pt x="48" y="245" on="1"/>
        <pt x="48" y="289" on="0"/>
        <pt x="68" y="403" on="0"/>
        <pt x="116" y="523" on="0"/>
        <pt x="191" y="623" on="0"/>
      </contour>
      <contour>
        <pt x="275" y="72" on="1"/>
        <pt x="358" y="72" on="0"/>
        <pt x="460" y="218" on="0"/>
        <pt x="478" y="334" on="1"/>
        <pt x="485" y="383" on="0"/>
        <pt x="485" y="447" on="0"/>
        <pt x="483" y="466" on="1"/>
        <pt x="478" y="525" on="0"/>
        <pt x="414" y="596" on="0"/>
        <pt x="358" y="596" on="1"/>
        <pt x="275" y="596" on="0"/>
        <pt x="173" y="451" on="0"/>
        <pt x="154" y="334" on="1"/>
        <pt x="148" y="287" on="0"/>
        <pt x="148" y="223" on="0"/>
        <pt x="150" y="202" on="1"/>
        <pt x="155" y="144" on="0"/>
        <pt x="219" y="72" on="0"/>
      </contour>
      <contour>
        <pt x="514" y="832" on="1"/>
        <pt x="326" y="728" on="1"/>
        <pt x="299" y="783" on="1"/>
        <pt x="478" y="905" on="1"/>
      </contour>
    </TTGlyph>
    <TTGlyph name="Ocircumflex" xMin="48" yMin="-13" xMax="585" yMax="860">
      <contour>
        <pt x="303" y="681" on="0"/>
        <pt x="441" y="681" on="0"/>
        <pt x="536" y="622" on="0"/>
        <pt x="556" y="574" on="1"/>
        <pt x="585" y="506" on="0"/>
        <pt x="585" y="423" on="1"/>
        <pt x="585" y="379" on="0"/>
        <pt x="565" y="265" on="0"/>
        <pt x="518" y="146" on="0"/>
        <pt x="443" y="45" on="0"/>
        <pt x="329" y="-13" on="0"/>
        <pt x="190" y="-13" on="0"/>
        <pt x="96" y="46" on="0"/>
        <pt x="76" y="94" on="1"/>
        <pt x="48" y="162" on="0"/>
        <pt x="48" y="245" on="1"/>
        <pt x="48" y="289" on="0"/>
        <pt x="68" y="403" on="0"/>
        <pt x="116" y="523" on="0"/>
        <pt x="191" y="623" on="0"/>
      </contour>
      <contour>
        <pt x="275" y="72" on="1"/>
        <pt x="358" y="72" on="0"/>
        <pt x="460" y="218" on="0"/>
        <pt x="478" y="334" on="1"/>
        <pt x="485" y="383" on="0"/>
        <pt x="485" y="447" on="0"/>
        <pt x="483" y="466" on="1"/>
        <pt x="478" y="525" on="0"/>
        <pt x="414" y="596" on="0"/>
        <pt x="358" y="596" on="1"/>
        <pt x="275" y="596" on="0"/>
        <pt x="173" y="451" on="0"/>
        <pt x="154" y="334" on="1"/>
        <pt x="148" y="287" on="0"/>
        <pt x="148" y="223" on="0"/>
        <pt x="150" y="202" on="1"/>
        <pt x="155" y="144" on="0"/>
        <pt x="219" y="72" on="0"/>
      </contour>
      <contour>
        <pt x="395" y="800" on="1"/>
        <pt x="297" y="714" on="1"/>
        <pt x="254" y="750" on="1"/>
        <pt x="371" y="860" on="1"/>
        <pt x="436" y="860" on="1"/>
        <pt x="518" y="750" on="1"/>
        <pt x="462" y="714" on="1"/>
      </contour>
    </TTGlyph>
    <TTGlyph name="Odieresis" xMin="48" yMin="-13" xMax="585" yMax="839">
      <contour>
        <pt x="303" y="681" on="0"/>
        <pt x="441" y="681" on="0"/>
        <pt x="536" y="622" on="0"/>
        <pt x="556" y="574" on="1"/>
        <pt x="585" y="506" on="0"/>
        <pt x="585" y="423" on="1"/>
        <pt x="585" y="379" on="0"/>
        <pt x="565" y="265" on="0"/>
        <pt x="518" y="146" on="0"/>
        <pt x="443" y="45" on="0"/>
        <pt x="329" y="-13" on="0"/>
        <pt x="190" y="-13" on="0"/>
        <pt x="96" y="46" on="0"/>
        <pt x="76" y="94" on="1"/>
        <pt x="48" y="162" on="0"/>
        <pt x="48" y="245" on="1"/>
        <pt x="48" y="289" on="0"/>
        <pt x="68" y="403" on="0"/>
        <pt x="116" y="523" on="0"/>
        <pt x="191" y="623" on="0"/>
      </contour>
      <contour>
        <pt x="275" y="72" on="1"/>
        <pt x="358" y="72" on="0"/>
        <pt x="460" y="218" on="0"/>
        <pt x="478" y="334" on="1"/>
        <pt x="485" y="383" on="0"/>
        <pt x="485" y="447" on="0"/>
        <pt x="483" y="466" on="1"/>
        <pt x="478" y="525" on="0"/>
        <pt x="414" y="596" on="0"/>
        <pt x="358" y="596" on="1"/>
        <pt x="275" y="596" on="0"/>
        <pt x="173" y="451" on="0"/>
        <pt x="154" y="334" on="1"/>
        <pt x="148" y="287" on="0"/>
        <pt x="148" y="223" on="0"/>
        <pt x="150" y="202" on="1"/>
        <pt x="155" y="144" on="0"/>
        <pt x="219" y="72" on="0"/>
      </contour>
      <contour>
        <pt x="282" y="839" on="0"/>
        <pt x="328" y="839" on="0"/>
        <pt x="353" y="811" on="0"/>
        <pt x="353" y="800" on="1"/>
        <pt x="353" y="766" on="0"/>
        <pt x="311" y="728" on="0"/>
        <pt x="265" y="728" on="0"/>
        <pt x="241" y="758" on="0"/>
        <pt x="241" y="769" on="1"/>
        <pt x="241" y="804" on="0"/>
      </contour>
      <contour>
        <pt x="448" y="839" on="0"/>
        <pt x="493" y="839" on="0"/>
        <pt x="518" y="811" on="0"/>
        <pt x="518" y="800" on="1"/>
        <pt x="518" y="766" on="0"/>
        <pt x="476" y="728" on="0"/>
        <pt x="430" y="728" on="0"/>
        <pt x="406" y="758" on="0"/>
        <pt x="406" y="769" on="1"/>
        <pt x="406" y="804" on="0"/>
      </contour>
    </TTGlyph>
    <TTGlyph name="Ograve" xMin="48" yMin="-13" xMax="585" yMax="903">
      <contour>
        <pt x="303" y="681" on="0"/>
        <pt x="441" y="681" on="0"/>
        <pt x="536" y="622" on="0"/>
        <pt x="556" y="574" on="1"/>
        <pt x="585" y="506" on="0"/>
        <pt x="585" y="423" on="1"/>
        <pt x="585" y="379" on="0"/>
        <pt x="565" y="265" on="0"/>
        <pt x="518" y="146" on="0"/>
        <pt x="443" y="45" on="0"/>
        <pt x="329" y="-13" on="0"/>
        <pt x="190" y="-13" on="0"/>
        <pt x="96" y="46" on="0"/>
        <pt x="76" y="94" on="1"/>
        <pt x="48" y="162" on="0"/>
        <pt x="48" y="245" on="1"/>
        <pt x="48" y="289" on="0"/>
        <pt x="68" y="403" on="0"/>
        <pt x="116" y="523" on="0"/>
        <pt x="191" y="623" on="0"/>
      </contour>
      <contour>
        <pt x="275" y="72" on="1"/>
        <pt x="358" y="72" on="0"/>
        <pt x="460" y="218" on="0"/>
        <pt x="478" y="334" on="1"/>
        <pt x="485" y="383" on="0"/>
        <pt x="485" y="447" on="0"/>
        <pt x="483" y="466" on="1"/>
        <pt x="478" y="525" on="0"/>
        <pt x="414" y="596" on="0"/>
        <pt x="358" y="596" on="1"/>
        <pt x="275" y="596" on="0"/>
        <pt x="173" y="451" on="0"/>
        <pt x="154" y="334" on="1"/>
        <pt x="148" y="287" on="0"/>
        <pt x="148" y="223" on="0"/>
        <pt x="150" y="202" on="1"/>
        <pt x="155" y="144" on="0"/>
        <pt x="219" y="72" on="0"/>
      </contour>
      <contour>
        <pt x="439" y="726" on="1"/>
        <pt x="284" y="830" on="1"/>
        <pt x="344" y="903" on="1"/>
        <pt x="484" y="781" on="1"/>
      </contour>
    </TTGlyph>
    <TTGlyph name="Oslash" xMin="35" yMin="-116" xMax="587" yMax="761">
      <contour>
        <pt x="542" y="206" on="1"/>
        <pt x="455" y="-13" on="0"/>
        <pt x="259" y="-13" on="1"/>
        <pt x="213" y="-13" on="0"/>
        <pt x="171" y="2" on="1"/>
        <pt x="104" y="-116" on="1"/>
        <pt x="35" y="-90" on="1"/>
        <pt x="111" y="43" on="1"/>
        <pt x="48" y="107" on="0"/>
        <pt x="48" y="232" on="1"/>
        <pt x="48" y="354" on="0"/>
        <pt x="92" y="463" on="1"/>
        <pt x="147" y="600" on="0"/>
        <pt x="247" y="652" on="1"/>
        <pt x="303" y="681" on="0"/>
        <pt x="423" y="681" on="0"/>
        <pt x="465" y="664" on="1"/>
        <pt x="520" y="761" on="1"/>
        <pt x="587" y="736" on="1"/>
        <pt x="523" y="623" on="1"/>
        <pt x="585" y="558" on="0"/>
        <pt x="585" y="315" on="0"/>
      </contour>
      <contour>
        <pt x="154" y="334" on="1"/>
        <pt x="146" y="286" on="0"/>
        <pt x="146" y="182" on="0"/>
        <pt x="167" y="140" on="1"/>
        <pt x="418" y="582" on="1"/>
        <pt x="392" y="596" on="0"/>
        <pt x="358" y="596" on="1"/>
        <pt x="275" y="596" on="0"/>
        <pt x="173" y="451" on="0"/>
      </contour>
      <contour>
        <pt x="275" y="72" on="1"/>
        <pt x="358" y="72" on="0"/>
        <pt x="460" y="218" on="0"/>
        <pt x="478" y="334" on="1"/>
        <pt x="486" y="384" on="0"/>
        <pt x="486" y="485" on="0"/>
        <pt x="468" y="526" on="1"/>
        <pt x="218" y="84" on="1"/>
        <pt x="242" y="72" on="0"/>
      </contour>
    </TTGlyph>
    <TTGlyph name="Otilde" xMin="48" yMin="-13" xMax="585" yMax="844">
      <contour>
        <pt x="303" y="681" on="0"/>
        <pt x="441" y="681" on="0"/>
        <pt x="536" y="622" on="0"/>
        <pt x="556" y="574" on="1"/>
        <pt x="585" y="506" on="0"/>
        <pt x="585" y="423" on="1"/>
        <pt x="585" y="379" on="0"/>
        <pt x="565" y="265" on="0"/>
        <pt x="518" y="146" on="0"/>
        <pt x="443" y="45" on="0"/>
        <pt x="329" y="-13" on="0"/>
        <pt x="190" y="-13" on="0"/>
        <pt x="96" y="46" on="0"/>
        <pt x="76" y="94" on="1"/>
        <pt x="48" y="162" on="0"/>
        <pt x="48" y="245" on="1"/>
        <pt x="48" y="289" on="0"/>
        <pt x="68" y="403" on="0"/>
        <pt x="116" y="523" on="0"/>
        <pt x="191" y="623" on="0"/>
      </contour>
      <contour>
        <pt x="275" y="72" on="1"/>
        <pt x="358" y="72" on="0"/>
        <pt x="460" y="218" on="0"/>
        <pt x="478" y="334" on="1"/>
        <pt x="485" y="383" on="0"/>
        <pt x="485" y="447" on="0"/>
        <pt x="483" y="466" on="1"/>
        <pt x="478" y="525" on="0"/>
        <pt x="414" y="596" on="0"/>
        <pt x="358" y="596" on="1"/>
        <pt x="275" y="596" on="0"/>
        <pt x="173" y="451" on="0"/>
        <pt x="154" y="334" on="1"/>
        <pt x="148" y="287" on="0"/>
        <pt x="148" y="223" on="0"/>
        <pt x="150" y="202" on="1"/>
        <pt x="155" y="144" on="0"/>
        <pt x="219" y="72" on="0"/>
      </contour>
      <contour>
        <pt x="335" y="844" on="1"/>
        <pt x="357" y="844" on="0"/>
        <pt x="443" y="801" on="0"/>
        <pt x="482" y="801" on="0"/>
        <pt x="526" y="843" on="1"/>
        <pt x="563" y="807" on="1"/>
        <pt x="537" y="773" on="0"/>
        <pt x="471" y="730" on="0"/>
        <pt x="421" y="730" on="0"/>
        <pt x="340" y="773" on="0"/>
        <pt x="302" y="773" on="0"/>
        <pt x="265" y="736" on="1"/>
        <pt x="227" y="773" on="1"/>
        <pt x="283" y="844" on="0"/>
      </contour>
    </TTGlyph>
    <TTGlyph name="P" xMin="34" yMin="0" xMax="529" yMax="668">
      <contour>
        <pt x="528" y="508" on="1"/>
        <pt x="528" y="490" on="0"/>
        <pt x="525" y="470" on="1"/>
        <pt x="498" y="305" on="0"/>
        <pt x="344" y="270" on="1"/>
        <pt x="292" y="259" on="0"/>
        <pt x="207" y="259" on="1"/>
        <pt x="171" y="259" on="1"/>
        <pt x="130" y="0" on="1"/>
        <pt x="34" y="0" on="1"/>
        <pt x="139" y="668" on="1"/>
        <pt x="297" y="668" on="1"/>
        <pt x="374" y="668" on="0"/>
        <pt x="460" y="643" on="0"/>
        <pt x="489" y="612" on="1"/>
        <pt x="528" y="571" on="0"/>
      </contour>
      <contour>
        <pt x="430" y="497" on="1"/>
        <pt x="430" y="537" on="0"/>
        <pt x="408" y="561" on="1"/>
        <pt x="379" y="596" on="0"/>
        <pt x="278" y="596" on="1"/>
        <pt x="224" y="596" on="1"/>
        <pt x="183" y="339" on="1"/>
        <pt x="221" y="339" on="1"/>
        <pt x="331" y="339" on="0"/>
        <pt x="368" y="364" on="1"/>
        <pt x="416" y="394" on="0"/>
        <pt x="427" y="465" on="1"/>
        <pt x="430" y="482" on="0"/>
      </contour>
    </TTGlyph>
    <TTGlyph name="Q" xMin="47" yMin="-123" xMax="604" yMax="681">
      <contour>
        <pt x="96" y="47" on="0"/>
        <pt x="55" y="143" on="0"/>
        <pt x="47" y="225" on="0"/>
        <pt x="47" y="289" on="0"/>
        <pt x="67" y="403" on="0"/>
        <pt x="115" y="523" on="0"/>
        <pt x="190" y="623" on="0"/>
        <pt x="302" y="681" on="0"/>
        <pt x="440" y="681" on="0"/>
        <pt x="535" y="622" on="0"/>
        <pt x="556" y="574" on="1"/>
        <pt x="584" y="506" on="0"/>
        <pt x="584" y="423" on="1"/>
        <pt x="584" y="379" on="0"/>
        <pt x="575" y="334" on="1"/>
        <pt x="559" y="230" on="0"/>
        <pt x="468" y="62" on="0"/>
        <pt x="393" y="21" on="1"/>
        <pt x="448" y="15" on="0"/>
        <pt x="566" y="-27" on="0"/>
        <pt x="604" y="-52" on="1"/>
        <pt x="540" y="-123" on="1"/>
        <pt x="530" y="-115" on="0"/>
        <pt x="489" y="-89" on="0"/>
        <pt x="342" y="-30" on="0"/>
        <pt x="258" y="-12" on="1"/>
        <pt x="190" y="-12" on="0"/>
      </contour>
      <contour>
        <pt x="273" y="66" on="1"/>
        <pt x="356" y="66" on="0"/>
        <pt x="458" y="214" on="0"/>
        <pt x="477" y="334" on="1"/>
        <pt x="484" y="383" on="0"/>
        <pt x="484" y="447" on="0"/>
        <pt x="482" y="466" on="1"/>
        <pt x="477" y="525" on="0"/>
        <pt x="413" y="596" on="0"/>
        <pt x="357" y="596" on="1"/>
        <pt x="274" y="596" on="0"/>
        <pt x="172" y="451" on="0"/>
        <pt x="153" y="334" on="1"/>
        <pt x="146" y="283" on="0"/>
        <pt x="146" y="218" on="0"/>
        <pt x="148" y="198" on="1"/>
        <pt x="153" y="139" on="0"/>
        <pt x="217" y="66" on="0"/>
      </contour>
    </TTGlyph>
    <TTGlyph name="R" xMin="34" yMin="-17" xMax="529" yMax="668">
      <contour>
        <pt x="528" y="508" on="1"/>
        <pt x="528" y="490" on="0"/>
        <pt x="525" y="470" on="1"/>
        <pt x="499" y="309" on="0"/>
        <pt x="354" y="273" on="1"/>
        <pt x="500" y="32" on="1"/>
        <pt x="420" y="-17" on="1"/>
        <pt x="257" y="260" on="1"/>
        <pt x="241" y="259" on="0"/>
        <pt x="207" y="259" on="1"/>
        <pt x="171" y="259" on="1"/>
        <pt x="130" y="0" on="1"/>
        <pt x="34" y="0" on="1"/>
        <pt x="139" y="668" on="1"/>
        <pt x="297" y="668" on="1"/>
        <pt x="374" y="668" on="0"/>
        <pt x="460" y="643" on="0"/>
        <pt x="489" y="612" on="1"/>
        <pt x="528" y="571" on="0"/>
      </contour>
      <contour>
        <pt x="430" y="497" on="1"/>
        <pt x="430" y="537" on="0"/>
        <pt x="408" y="561" on="1"/>
        <pt x="379" y="596" on="0"/>
        <pt x="278" y="596" on="1"/>
        <pt x="224" y="596" on="1"/>
        <pt x="183" y="339" on="1"/>
        <pt x="221" y="339" on="1"/>
        <pt x="331" y="339" on="0"/>
        <pt x="368" y="364" on="1"/>
        <pt x="416" y="394" on="0"/>
        <pt x="427" y="465" on="1"/>
        <pt x="430" y="482" on="0"/>
      </contour>
    </TTGlyph>
    <TTGlyph name="S" xMin="-3" yMin="-13" xMax="478" yMax="681">
      <contour>
        <pt x="191" y="-13" on="1"/>
        <pt x="140" y="-13" on="0"/>
        <pt x="29" y="9" on="0"/>
        <pt x="-3" y="26" on="1"/>
        <pt x="36" y="111" on="1"/>
        <pt x="128" y="72" on="0"/>
        <pt x="258" y="72" on="0"/>
        <pt x="296" y="100" on="1"/>
        <pt x="341" y="135" on="0"/>
        <pt x="341" y="187" on="1"/>
        <pt x="341" y="223" on="0"/>
        <pt x="313" y="251" on="1"/>
        <pt x="281" y="282" on="0"/>
        <pt x="192" y="330" on="1"/>
        <pt x="162" y="345" on="0"/>
        <pt x="139" y="365" on="0"/>
        <pt x="116" y="386" on="0"/>
        <pt x="105" y="404" on="0"/>
        <pt x="92" y="431" on="0"/>
        <pt x="88" y="458" on="0"/>
        <pt x="88" y="476" on="1"/>
        <pt x="88" y="578" on="0"/>
        <pt x="167" y="635" on="1"/>
        <pt x="231" y="681" on="0"/>
        <pt x="397" y="681" on="0"/>
        <pt x="478" y="649" on="1"/>
        <pt x="440" y="569" on="1"/>
        <pt x="367" y="596" on="0"/>
        <pt x="251" y="596" on="0"/>
        <pt x="189" y="549" on="0"/>
        <pt x="182" y="508" on="1"/>
        <pt x="181" y="503" on="0"/>
        <pt x="181" y="497" on="1"/>
        <pt x="181" y="469" on="0"/>
        <pt x="232" y="420" on="0"/>
        <pt x="327" y="366" on="0"/>
        <pt x="350" y="350" on="1"/>
        <pt x="435" y="287" on="0"/>
        <pt x="435" y="207" on="1"/>
        <pt x="435" y="192" on="0"/>
        <pt x="433" y="177" on="1"/>
        <pt x="419" y="93" on="0"/>
        <pt x="286" y="-13" on="0"/>
      </contour>
    </TTGlyph>
    <TTGlyph name="Scaron" xMin="-3" yMin="-13" xMax="486" yMax="874">
      <contour>
        <pt x="191" y="-13" on="1"/>
        <pt x="140" y="-13" on="0"/>
        <pt x="29" y="9" on="0"/>
        <pt x="-3" y="26" on="1"/>
        <pt x="36" y="111" on="1"/>
        <pt x="128" y="72" on="0"/>
        <pt x="258" y="72" on="0"/>
        <pt x="296" y="100" on="1"/>
        <pt x="341" y="135" on="0"/>
        <pt x="341" y="187" on="1"/>
        <pt x="341" y="223" on="0"/>
        <pt x="313" y="251" on="1"/>
        <pt x="281" y="282" on="0"/>
        <pt x="192" y="330" on="1"/>
        <pt x="162" y="345" on="0"/>
        <pt x="139" y="365" on="0"/>
        <pt x="116" y="386" on="0"/>
        <pt x="105" y="404" on="0"/>
        <pt x="92" y="431" on="0"/>
        <pt x="88" y="458" on="0"/>
        <pt x="88" y="476" on="1"/>
        <pt x="88" y="578" on="0"/>
        <pt x="167" y="635" on="1"/>
        <pt x="231" y="681" on="0"/>
        <pt x="397" y="681" on="0"/>
        <pt x="478" y="649" on="1"/>
        <pt x="440" y="569" on="1"/>
        <pt x="367" y="596" on="0"/>
        <pt x="251" y="596" on="0"/>
        <pt x="189" y="549" on="0"/>
        <pt x="182" y="508" on="1"/>
        <pt x="181" y="503" on="0"/>
        <pt x="181" y="497" on="1"/>
        <pt x="181" y="469" on="0"/>
        <pt x="232" y="420" on="0"/>
        <pt x="327" y="366" on="0"/>
        <pt x="350" y="350" on="1"/>
        <pt x="435" y="287" on="0"/>
        <pt x="435" y="207" on="1"/>
        <pt x="435" y="192" on="0"/>
        <pt x="433" y="177" on="1"/>
        <pt x="419" y="93" on="0"/>
        <pt x="286" y="-13" on="0"/>
      </contour>
      <contour>
        <pt x="340" y="781" on="1"/>
        <pt x="446" y="874" on="1"/>
        <pt x="486" y="835" on="1"/>
        <pt x="365" y="721" on="1"/>
        <pt x="299" y="721" on="1"/>
        <pt x="213" y="835" on="1"/>
        <pt x="265" y="874" on="1"/>
      </contour>
    </TTGlyph>
    <TTGlyph name="T" xMin="62" yMin="0" xMax="518" yMax="668">
      <contour>
        <pt x="236" y="583" on="1"/>
        <pt x="62" y="583" on="1"/>
        <pt x="75" y="668" on="1"/>
        <pt x="518" y="668" on="1"/>
        <pt x="505" y="583" on="1"/>
        <pt x="331" y="583" on="1"/>
        <pt x="239" y="0" on="1"/>
        <pt x="144" y="0" on="1"/>
      </contour>
    </TTGlyph>
    <TTGlyph name="Thorn" xMin="34" yMin="0" xMax="506" yMax="700">
      <contour>
        <pt x="506" y="437" on="1"/>
        <pt x="506" y="419" on="0"/>
        <pt x="503" y="399" on="1"/>
        <pt x="477" y="237" on="0"/>
        <pt x="326" y="205" on="1"/>
        <pt x="274" y="194" on="0"/>
        <pt x="187" y="194" on="1"/>
        <pt x="134" y="194" on="1"/>
        <pt x="104" y="0" on="1"/>
        <pt x="34" y="0" on="1"/>
        <pt x="144" y="700" on="1"/>
        <pt x="214" y="700" on="1"/>
        <pt x="198" y="594" on="1"/>
        <pt x="278" y="594" on="1"/>
        <pt x="355" y="594" on="0"/>
        <pt x="440" y="570" on="0"/>
        <pt x="506" y="502" on="0"/>
      </contour>
      <contour>
        <pt x="432" y="425" on="1"/>
        <pt x="432" y="470" on="0"/>
        <pt x="408" y="497" on="1"/>
        <pt x="375" y="535" on="0"/>
        <pt x="269" y="535" on="1"/>
        <pt x="188" y="535" on="1"/>
        <pt x="144" y="253" on="1"/>
        <pt x="209" y="253" on="1"/>
        <pt x="321" y="253" on="0"/>
        <pt x="364" y="281" on="1"/>
        <pt x="418" y="316" on="0"/>
        <pt x="430" y="394" on="1"/>
        <pt x="432" y="410" on="0"/>
      </contour>
    </TTGlyph>
    <TTGlyph name="U" xMin="60" yMin="-12" xMax="593" yMax="668">
      <contour>
        <pt x="60" y="171" on="1"/>
        <pt x="60" y="205" on="0"/>
        <pt x="67" y="245" on="1"/>
        <pt x="134" y="668" on="1"/>
        <pt x="230" y="668" on="1"/>
        <pt x="166" y="259" on="1"/>
        <pt x="158" y="213" on="0"/>
        <pt x="158" y="140" on="0"/>
        <pt x="170" y="120" on="1"/>
        <pt x="189" y="73" on="0"/>
        <pt x="346" y="73" on="0"/>
        <pt x="384" y="120" on="1"/>
        <pt x="415" y="156" on="0"/>
        <pt x="433" y="259" on="1"/>
        <pt x="497" y="668" on="1"/>
        <pt x="593" y="668" on="1"/>
        <pt x="526" y="245" on="1"/>
        <pt x="507" y="127" on="0"/>
        <pt x="453" y="64" on="1"/>
        <pt x="385" y="-11" on="0"/>
        <pt x="129" y="-13" on="0"/>
        <pt x="84" y="64" on="1"/>
        <pt x="60" y="107" on="0"/>
      </contour>
    </TTGlyph>
    <TTGlyph name="Uacute" xMin="60" yMin="-12" xMax="593" yMax="905">
      <contour>
        <pt x="60" y="171" on="1"/>
        <pt x="60" y="205" on="0"/>
        <pt x="67" y="245" on="1"/>
        <pt x="134" y="668" on="1"/>
        <pt x="230" y="668" on="1"/>
        <pt x="166" y="259" on="1"/>
        <pt x="158" y="213" on="0"/>
        <pt x="158" y="140" on="0"/>
        <pt x="170" y="120" on="1"/>
        <pt x="189" y="73" on="0"/>
        <pt x="346" y="73" on="0"/>
        <pt x="384" y="120" on="1"/>
        <pt x="415" y="156" on="0"/>
        <pt x="433" y="259" on="1"/>
        <pt x="497" y="668" on="1"/>
        <pt x="593" y="668" on="1"/>
        <pt x="526" y="245" on="1"/>
        <pt x="507" y="127" on="0"/>
        <pt x="453" y="64" on="1"/>
        <pt x="385" y="-11" on="0"/>
        <pt x="129" y="-13" on="0"/>
        <pt x="84" y="64" on="1"/>
        <pt x="60" y="107" on="0"/>
      </contour>
      <contour>
        <pt x="523" y="832" on="1"/>
        <pt x="335" y="728" on="1"/>
        <pt x="308" y="783" on="1"/>
        <pt x="487" y="905" on="1"/>
      </contour>
    </TTGlyph>
    <TTGlyph name="Ucircumflex" xMin="60" yMin="-12" xMax="593" yMax="860">
      <contour>
        <pt x="60" y="171" on="1"/>
        <pt x="60" y="205" on="0"/>
        <pt x="67" y="245" on="1"/>
        <pt x="134" y="668" on="1"/>
        <pt x="230" y="668" on="1"/>
        <pt x="166" y="259" on="1"/>
        <pt x="158" y="213" on="0"/>
        <pt x="158" y="140" on="0"/>
        <pt x="170" y="120" on="1"/>
        <pt x="189" y="73" on="0"/>
        <pt x="346" y="73" on="0"/>
        <pt x="384" y="120" on="1"/>
        <pt x="415" y="156" on="0"/>
        <pt x="433" y="259" on="1"/>
        <pt x="497" y="668" on="1"/>
        <pt x="593" y="668" on="1"/>
        <pt x="526" y="245" on="1"/>
        <pt x="507" y="127" on="0"/>
        <pt x="453" y="64" on="1"/>
        <pt x="385" y="-11" on="0"/>
        <pt x="129" y="-13" on="0"/>
        <pt x="84" y="64" on="1"/>
        <pt x="60" y="107" on="0"/>
      </contour>
      <contour>
        <pt x="387" y="800" on="1"/>
        <pt x="289" y="714" on="1"/>
        <pt x="246" y="750" on="1"/>
        <pt x="363" y="860" on="1"/>
        <pt x="428" y="860" on="1"/>
        <pt x="510" y="750" on="1"/>
        <pt x="454" y="714" on="1"/>
      </contour>
    </TTGlyph>
    <TTGlyph name="Udieresis" xMin="60" yMin="-12" xMax="593" yMax="839">
      <contour>
        <pt x="60" y="171" on="1"/>
        <pt x="60" y="205" on="0"/>
        <pt x="67" y="245" on="1"/>
        <pt x="134" y="668" on="1"/>
        <pt x="230" y="668" on="1"/>
        <pt x="166" y="259" on="1"/>
        <pt x="158" y="213" on="0"/>
        <pt x="158" y="140" on="0"/>
        <pt x="170" y="120" on="1"/>
        <pt x="189" y="73" on="0"/>
        <pt x="346" y="73" on="0"/>
        <pt x="384" y="120" on="1"/>
        <pt x="415" y="156" on="0"/>
        <pt x="433" y="259" on="1"/>
        <pt x="497" y="668" on="1"/>
        <pt x="593" y="668" on="1"/>
        <pt x="526" y="245" on="1"/>
        <pt x="507" y="127" on="0"/>
        <pt x="453" y="64" on="1"/>
        <pt x="385" y="-11" on="0"/>
        <pt x="129" y="-13" on="0"/>
        <pt x="84" y="64" on="1"/>
        <pt x="60" y="107" on="0"/>
      </contour>
      <contour>
        <pt x="286" y="839" on="0"/>
        <pt x="332" y="839" on="0"/>
        <pt x="357" y="811" on="0"/>
        <pt x="357" y="800" on="1"/>
        <pt x="357" y="766" on="0"/>
        <pt x="315" y="728" on="0"/>
        <pt x="269" y="728" on="0"/>
        <pt x="245" y="758" on="0"/>
        <pt x="245" y="769" on="1"/>
        <pt x="245" y="804" on="0"/>
      </contour>
      <contour>
        <pt x="452" y="839" on="0"/>
        <pt x="497" y="839" on="0"/>
        <pt x="522" y="811" on="0"/>
        <pt x="522" y="800" on="1"/>
        <pt x="522" y="766" on="0"/>
        <pt x="480" y="728" on="0"/>
        <pt x="434" y="728" on="0"/>
        <pt x="410" y="758" on="0"/>
        <pt x="410" y="769" on="1"/>
        <pt x="410" y="804" on="0"/>
      </contour>
    </TTGlyph>
    <TTGlyph name="Ugrave" xMin="60" yMin="-12" xMax="593" yMax="903">
      <contour>
        <pt x="60" y="171" on="1"/>
        <pt x="60" y="205" on="0"/>
        <pt x="67" y="245" on="1"/>
        <pt x="134" y="668" on="1"/>
        <pt x="230" y="668" on="1"/>
        <pt x="166" y="259" on="1"/>
        <pt x="158" y="213" on="0"/>
        <pt x="158" y="140" on="0"/>
        <pt x="170" y="120" on="1"/>
        <pt x="189" y="73" on="0"/>
        <pt x="346" y="73" on="0"/>
        <pt x="384" y="120" on="1"/>
        <pt x="415" y="156" on="0"/>
        <pt x="433" y="259" on="1"/>
        <pt x="497" y="668" on="1"/>
        <pt x="593" y="668" on="1"/>
        <pt x="526" y="245" on="1"/>
        <pt x="507" y="127" on="0"/>
        <pt x="453" y="64" on="1"/>
        <pt x="385" y="-11" on="0"/>
        <pt x="129" y="-13" on="0"/>
        <pt x="84" y="64" on="1"/>
        <pt x="60" y="107" on="0"/>
      </contour>
      <contour>
        <pt x="426" y="726" on="1"/>
        <pt x="271" y="830" on="1"/>
        <pt x="331" y="903" on="1"/>
        <pt x="471" y="781" on="1"/>
      </contour>
    </TTGlyph>
    <TTGlyph name="V" xMin="65" yMin="0" xMax="597" yMax="668">
      <contour>
        <pt x="169" y="668" on="1"/>
        <pt x="243" y="110" on="1"/>
        <pt x="493" y="668" on="1"/>
        <pt x="597" y="668" on="1"/>
        <pt x="277" y="0" on="1"/>
        <pt x="175" y="0" on="1"/>
        <pt x="65" y="668" on="1"/>
      </contour>
    </TTGlyph>
    <TTGlyph name="W" xMin="85" yMin="0" xMax="821" yMax="668">
      <contour>
        <pt x="400" y="618" on="1"/>
        <pt x="506" y="618" on="1"/>
        <pt x="574" y="110" on="1"/>
        <pt x="734" y="668" on="1"/>
        <pt x="821" y="668" on="1"/>
        <pt x="627" y="0" on="1"/>
        <pt x="508" y="0" on="1"/>
        <pt x="442" y="538" on="1"/>
        <pt x="205" y="0" on="1"/>
        <pt x="85" y="0" on="1"/>
        <pt x="101" y="668" on="1"/>
        <pt x="188" y="668" on="1"/>
        <pt x="172" y="110" on="1"/>
      </contour>
    </TTGlyph>
    <TTGlyph name="X" xMin="-29" yMin="0" xMax="603" yMax="668">
      <contour>
        <pt x="510" y="0" on="1"/>
        <pt x="394" y="0" on="1"/>
        <pt x="279" y="268" on="1"/>
        <pt x="80" y="0" on="1"/>
        <pt x="-29" y="0" on="1"/>
        <pt x="235" y="340" on="1"/>
        <pt x="87" y="668" on="1"/>
        <pt x="195" y="668" on="1"/>
        <pt x="303" y="416" on="1"/>
        <pt x="493" y="668" on="1"/>
        <pt x="603" y="668" on="1"/>
        <pt x="349" y="346" on="1"/>
      </contour>
    </TTGlyph>
    <TTGlyph name="Y" xMin="59" yMin="0" xMax="572" yMax="668">
      <contour>
        <pt x="59" y="668" on="1"/>
        <pt x="167" y="668" on="1"/>
        <pt x="267" y="353" on="1"/>
        <pt x="471" y="668" on="1"/>
        <pt x="572" y="668" on="1"/>
        <pt x="303" y="275" on="1"/>
        <pt x="260" y="0" on="1"/>
        <pt x="164" y="0" on="1"/>
        <pt x="207" y="275" on="1"/>
      </contour>
    </TTGlyph>
    <TTGlyph name="Yacute" xMin="59" yMin="0" xMax="572" yMax="905">
      <contour>
        <pt x="59" y="668" on="1"/>
        <pt x="167" y="668" on="1"/>
        <pt x="267" y="353" on="1"/>
        <pt x="471" y="668" on="1"/>
        <pt x="572" y="668" on="1"/>
        <pt x="303" y="275" on="1"/>
        <pt x="260" y="0" on="1"/>
        <pt x="164" y="0" on="1"/>
        <pt x="207" y="275" on="1"/>
      </contour>
      <contour>
        <pt x="483" y="832" on="1"/>
        <pt x="295" y="728" on="1"/>
        <pt x="268" y="783" on="1"/>
        <pt x="447" y="905" on="1"/>
      </contour>
    </TTGlyph>
    <TTGlyph name="Ydieresis" xMin="59" yMin="0" xMax="572" yMax="839">
      <contour>
        <pt x="59" y="668" on="1"/>
        <pt x="167" y="668" on="1"/>
        <pt x="267" y="353" on="1"/>
        <pt x="471" y="668" on="1"/>
        <pt x="572" y="668" on="1"/>
        <pt x="303" y="275" on="1"/>
        <pt x="260" y="0" on="1"/>
        <pt x="164" y="0" on="1"/>
        <pt x="207" y="275" on="1"/>
      </contour>
      <contour>
        <pt x="252" y="839" on="0"/>
        <pt x="298" y="839" on="0"/>
        <pt x="323" y="811" on="0"/>
        <pt x="323" y="800" on="1"/>
        <pt x="323" y="766" on="0"/>
        <pt x="281" y="728" on="0"/>
        <pt x="235" y="728" on="0"/>
        <pt x="211" y="758" on="0"/>
        <pt x="211" y="769" on="1"/>
        <pt x="211" y="804" on="0"/>
      </contour>
      <contour>
        <pt x="418" y="839" on="0"/>
        <pt x="463" y="839" on="0"/>
        <pt x="488" y="811" on="0"/>
        <pt x="488" y="800" on="1"/>
        <pt x="488" y="766" on="0"/>
        <pt x="446" y="728" on="0"/>
        <pt x="400" y="728" on="0"/>
        <pt x="376" y="758" on="0"/>
        <pt x="376" y="769" on="1"/>
        <pt x="376" y="804" on="0"/>
      </contour>
    </TTGlyph>
    <TTGlyph name="Z" xMin="0" yMin="0" xMax="517" yMax="668">
      <contour>
        <pt x="120" y="81" on="1"/>
        <pt x="453" y="81" on="1"/>
        <pt x="441" y="0" on="1"/>
        <pt x="0" y="0" on="1"/>
        <pt x="1" y="65" on="1"/>
        <pt x="397" y="587" on="1"/>
        <pt x="98" y="587" on="1"/>
        <pt x="100" y="668" on="1"/>
        <pt x="517" y="668" on="1"/>
        <pt x="513" y="599" on="1"/>
      </contour>
    </TTGlyph>
    <TTGlyph name="Zcaron" xMin="0" yMin="0" xMax="517" yMax="877">
      <contour>
        <pt x="120" y="81" on="1"/>
        <pt x="453" y="81" on="1"/>
        <pt x="441" y="0" on="1"/>
        <pt x="0" y="0" on="1"/>
        <pt x="1" y="65" on="1"/>
        <pt x="397" y="587" on="1"/>
        <pt x="98" y="587" on="1"/>
        <pt x="100" y="668" on="1"/>
        <pt x="517" y="668" on="1"/>
        <pt x="513" y="599" on="1"/>
      </contour>
      <contour>
        <pt x="340" y="784" on="1"/>
        <pt x="445" y="877" on="1"/>
        <pt x="485" y="838" on="1"/>
        <pt x="364" y="724" on="1"/>
        <pt x="298" y="724" on="1"/>
        <pt x="212" y="838" on="1"/>
        <pt x="264" y="877" on="1"/>
      </contour>
    </TTGlyph>
    <TTGlyph name="a" xMin="4" yMin="-14" xMax="441" yMax="516">
      <contour>
        <pt x="126" y="-13" on="1"/>
        <pt x="61" y="-13" on="0"/>
        <pt x="29" y="25" on="1"/>
        <pt x="5" y="54" on="0"/>
        <pt x="5" y="98" on="1"/>
        <pt x="5" y="157" on="0"/>
        <pt x="59" y="227" on="0"/>
        <pt x="90" y="241" on="1"/>
        <pt x="145" y="266" on="0"/>
        <pt x="259" y="266" on="0"/>
        <pt x="308" y="261" on="1"/>
        <pt x="320" y="339" on="1"/>
        <pt x="323" y="360" on="0"/>
        <pt x="323" y="405" on="0"/>
        <pt x="313" y="418" on="1"/>
        <pt x="297" y="440" on="0"/>
        <pt x="188" y="440" on="0"/>
        <pt x="107" y="413" on="1"/>
        <pt x="96" y="476" on="1"/>
        <pt x="128" y="494" on="0"/>
        <pt x="226" y="516" on="0"/>
        <pt x="261" y="516" on="1"/>
        <pt x="358" y="516" on="0"/>
        <pt x="392" y="474" on="1"/>
        <pt x="414" y="446" on="0"/>
        <pt x="414" y="391" on="1"/>
        <pt x="414" y="365" on="0"/>
        <pt x="409" y="333" on="1"/>
        <pt x="371" y="90" on="1"/>
        <pt x="369" y="82" on="0"/>
        <pt x="369" y="76" on="1"/>
        <pt x="369" y="55" on="0"/>
        <pt x="389" y="55" on="1"/>
        <pt x="405" y="55" on="0"/>
        <pt x="435" y="64" on="1"/>
        <pt x="441" y="8" on="1"/>
        <pt x="403" y="-14" on="0"/>
        <pt x="355" y="-14" on="1"/>
        <pt x="295" y="-14" on="0"/>
        <pt x="279" y="37" on="1"/>
        <pt x="254" y="16" on="0"/>
        <pt x="170" y="-13" on="0"/>
      </contour>
      <contour>
        <pt x="90" y="116" on="1"/>
        <pt x="90" y="58" on="0"/>
        <pt x="220" y="58" on="0"/>
        <pt x="281" y="94" on="1"/>
        <pt x="300" y="210" on="1"/>
        <pt x="276" y="214" on="0"/>
        <pt x="222" y="214" on="1"/>
        <pt x="105" y="214" on="0"/>
        <pt x="92" y="136" on="1"/>
        <pt x="90" y="125" on="0"/>
      </contour>
    </TTGlyph>
    <TTGlyph name="aacute" xMin="4" yMin="-14" xMax="441" yMax="754">
      <contour>
        <pt x="126" y="-13" on="1"/>
        <pt x="61" y="-13" on="0"/>
        <pt x="29" y="25" on="1"/>
        <pt x="5" y="54" on="0"/>
        <pt x="5" y="98" on="1"/>
        <pt x="5" y="157" on="0"/>
        <pt x="59" y="227" on="0"/>
        <pt x="90" y="241" on="1"/>
        <pt x="145" y="266" on="0"/>
        <pt x="259" y="266" on="0"/>
        <pt x="308" y="261" on="1"/>
        <pt x="320" y="339" on="1"/>
        <pt x="323" y="360" on="0"/>
        <pt x="323" y="405" on="0"/>
        <pt x="313" y="418" on="1"/>
        <pt x="297" y="440" on="0"/>
        <pt x="188" y="440" on="0"/>
        <pt x="107" y="413" on="1"/>
        <pt x="96" y="476" on="1"/>
        <pt x="128" y="494" on="0"/>
        <pt x="226" y="516" on="0"/>
        <pt x="261" y="516" on="1"/>
        <pt x="358" y="516" on="0"/>
        <pt x="392" y="474" on="1"/>
        <pt x="414" y="446" on="0"/>
        <pt x="414" y="391" on="1"/>
        <pt x="414" y="365" on="0"/>
        <pt x="409" y="333" on="1"/>
        <pt x="371" y="90" on="1"/>
        <pt x="369" y="82" on="0"/>
        <pt x="369" y="76" on="1"/>
        <pt x="369" y="55" on="0"/>
        <pt x="389" y="55" on="1"/>
        <pt x="405" y="55" on="0"/>
        <pt x="435" y="64" on="1"/>
        <pt x="441" y="8" on="1"/>
        <pt x="403" y="-14" on="0"/>
        <pt x="355" y="-14" on="1"/>
        <pt x="295" y="-14" on="0"/>
        <pt x="279" y="37" on="1"/>
        <pt x="254" y="16" on="0"/>
        <pt x="170" y="-13" on="0"/>
      </contour>
      <contour>
        <pt x="90" y="116" on="1"/>
        <pt x="90" y="58" on="0"/>
        <pt x="220" y="58" on="0"/>
        <pt x="281" y="94" on="1"/>
        <pt x="300" y="210" on="1"/>
        <pt x="276" y="214" on="0"/>
        <pt x="222" y="214" on="1"/>
        <pt x="105" y="214" on="0"/>
        <pt x="92" y="136" on="1"/>
        <pt x="90" y="125" on="0"/>
      </contour>
      <contour>
        <pt x="391" y="681" on="1"/>
        <pt x="203" y="577" on="1"/>
        <pt x="176" y="632" on="1"/>
        <pt x="355" y="754" on="1"/>
      </contour>
    </TTGlyph>
    <TTGlyph name="acircumflex" xMin="4" yMin="-14" xMax="441" yMax="727">
      <contour>
        <pt x="126" y="-13" on="1"/>
        <pt x="61" y="-13" on="0"/>
        <pt x="29" y="25" on="1"/>
        <pt x="5" y="54" on="0"/>
        <pt x="5" y="98" on="1"/>
        <pt x="5" y="157" on="0"/>
        <pt x="59" y="227" on="0"/>
        <pt x="90" y="241" on="1"/>
        <pt x="145" y="266" on="0"/>
        <pt x="259" y="266" on="0"/>
        <pt x="308" y="261" on="1"/>
        <pt x="320" y="339" on="1"/>
        <pt x="323" y="360" on="0"/>
        <pt x="323" y="405" on="0"/>
        <pt x="313" y="418" on="1"/>
        <pt x="297" y="440" on="0"/>
        <pt x="188" y="440" on="0"/>
        <pt x="107" y="413" on="1"/>
        <pt x="96" y="476" on="1"/>
        <pt x="128" y="494" on="0"/>
        <pt x="226" y="516" on="0"/>
        <pt x="261" y="516" on="1"/>
        <pt x="358" y="516" on="0"/>
        <pt x="392" y="474" on="1"/>
        <pt x="414" y="446" on="0"/>
        <pt x="414" y="391" on="1"/>
        <pt x="414" y="365" on="0"/>
        <pt x="409" y="333" on="1"/>
        <pt x="371" y="90" on="1"/>
        <pt x="369" y="82" on="0"/>
        <pt x="369" y="76" on="1"/>
        <pt x="369" y="55" on="0"/>
        <pt x="389" y="55" on="1"/>
        <pt x="405" y="55" on="0"/>
        <pt x="435" y="64" on="1"/>
        <pt x="441" y="8" on="1"/>
        <pt x="403" y="-14" on="0"/>
        <pt x="355" y="-14" on="1"/>
        <pt x="295" y="-14" on="0"/>
        <pt x="279" y="37" on="1"/>
        <pt x="254" y="16" on="0"/>
        <pt x="170" y="-13" on="0"/>
      </contour>
      <contour>
        <pt x="90" y="116" on="1"/>
        <pt x="90" y="58" on="0"/>
        <pt x="220" y="58" on="0"/>
        <pt x="281" y="94" on="1"/>
        <pt x="300" y="210" on="1"/>
        <pt x="276" y="214" on="0"/>
        <pt x="222" y="214" on="1"/>
        <pt x="105" y="214" on="0"/>
        <pt x="92" y="136" on="1"/>
        <pt x="90" y="125" on="0"/>
      </contour>
      <contour>
        <pt x="295" y="667" on="1"/>
        <pt x="197" y="581" on="1"/>
        <pt x="154" y="617" on="1"/>
        <pt x="271" y="727" on="1"/>
        <pt x="336" y="727" on="1"/>
        <pt x="418" y="617" on="1"/>
        <pt x="362" y="581" on="1"/>
      </contour>
    </TTGlyph>
    <TTGlyph name="acute" xMin="171" yMin="577" xMax="386" yMax="754">
      <contour>
        <pt x="386" y="681" on="1"/>
        <pt x="198" y="577" on="1"/>
        <pt x="171" y="632" on="1"/>
        <pt x="350" y="754" on="1"/>
      </contour>
    </TTGlyph>
    <TTGlyph name="adieresis" xMin="4" yMin="-14" xMax="441" yMax="707">
      <contour>
        <pt x="190" y="707" on="0"/>
        <pt x="235" y="707" on="0"/>
        <pt x="260" y="679" on="0"/>
        <pt x="260" y="668" on="1"/>
        <pt x="260" y="634" on="0"/>
        <pt x="218" y="596" on="0"/>
        <pt x="172" y="596" on="0"/>
        <pt x="148" y="626" on="0"/>
        <pt x="148" y="637" on="1"/>
        <pt x="148" y="672" on="0"/>
      </contour>
      <contour>
        <pt x="354" y="707" on="0"/>
        <pt x="400" y="707" on="0"/>
        <pt x="425" y="679" on="0"/>
        <pt x="425" y="668" on="1"/>
        <pt x="425" y="634" on="0"/>
        <pt x="383" y="596" on="0"/>
        <pt x="337" y="596" on="0"/>
        <pt x="313" y="626" on="0"/>
        <pt x="313" y="637" on="1"/>
        <pt x="313" y="672" on="0"/>
      </contour>
      <contour>
        <pt x="126" y="-13" on="1"/>
        <pt x="61" y="-13" on="0"/>
        <pt x="29" y="25" on="1"/>
        <pt x="5" y="54" on="0"/>
        <pt x="5" y="98" on="1"/>
        <pt x="5" y="157" on="0"/>
        <pt x="59" y="227" on="0"/>
        <pt x="90" y="241" on="1"/>
        <pt x="145" y="266" on="0"/>
        <pt x="259" y="266" on="0"/>
        <pt x="308" y="261" on="1"/>
        <pt x="320" y="339" on="1"/>
        <pt x="323" y="360" on="0"/>
        <pt x="323" y="405" on="0"/>
        <pt x="313" y="418" on="1"/>
        <pt x="297" y="440" on="0"/>
        <pt x="188" y="440" on="0"/>
        <pt x="107" y="413" on="1"/>
        <pt x="96" y="476" on="1"/>
        <pt x="128" y="494" on="0"/>
        <pt x="226" y="516" on="0"/>
        <pt x="261" y="516" on="1"/>
        <pt x="358" y="516" on="0"/>
        <pt x="392" y="474" on="1"/>
        <pt x="414" y="446" on="0"/>
        <pt x="414" y="391" on="1"/>
        <pt x="414" y="365" on="0"/>
        <pt x="409" y="333" on="1"/>
        <pt x="371" y="90" on="1"/>
        <pt x="369" y="82" on="0"/>
        <pt x="369" y="76" on="1"/>
        <pt x="369" y="55" on="0"/>
        <pt x="389" y="55" on="1"/>
        <pt x="405" y="55" on="0"/>
        <pt x="435" y="64" on="1"/>
        <pt x="441" y="8" on="1"/>
        <pt x="403" y="-14" on="0"/>
        <pt x="355" y="-14" on="1"/>
        <pt x="295" y="-14" on="0"/>
        <pt x="279" y="37" on="1"/>
        <pt x="254" y="16" on="0"/>
        <pt x="170" y="-13" on="0"/>
      </contour>
      <contour>
        <pt x="90" y="116" on="1"/>
        <pt x="90" y="58" on="0"/>
        <pt x="220" y="58" on="0"/>
        <pt x="281" y="94" on="1"/>
        <pt x="300" y="210" on="1"/>
        <pt x="276" y="214" on="0"/>
        <pt x="222" y="214" on="1"/>
        <pt x="105" y="214" on="0"/>
        <pt x="92" y="136" on="1"/>
        <pt x="90" y="125" on="0"/>
      </contour>
    </TTGlyph>
    <TTGlyph name="ae" xMin="4" yMin="-13" xMax="711" yMax="516">
      <contour>
        <pt x="682" y="470" on="1"/>
        <pt x="711" y="434" on="0"/>
        <pt x="711" y="323" on="0"/>
        <pt x="679" y="252" on="1"/>
        <pt x="385" y="252" on="1"/>
        <pt x="382" y="228" on="0"/>
        <pt x="382" y="206" on="1"/>
        <pt x="382" y="152" on="0"/>
        <pt x="402" y="114" on="1"/>
        <pt x="429" y="62" on="0"/>
        <pt x="570" y="62" on="0"/>
        <pt x="642" y="99" on="1"/>
        <pt x="660" y="36" on="1"/>
        <pt x="577" y="-13" on="0"/>
        <pt x="388" y="-13" on="0"/>
        <pt x="337" y="54" on="1"/>
        <pt x="301" y="25" on="0"/>
        <pt x="185" y="-13" on="0"/>
        <pt x="60" y="-13" on="0"/>
        <pt x="28" y="25" on="1"/>
        <pt x="5" y="54" on="0"/>
        <pt x="5" y="98" on="1"/>
        <pt x="5" y="157" on="0"/>
        <pt x="59" y="227" on="0"/>
        <pt x="90" y="241" on="1"/>
        <pt x="145" y="266" on="0"/>
        <pt x="258" y="266" on="0"/>
        <pt x="305" y="261" on="1"/>
        <pt x="317" y="339" on="1"/>
        <pt x="320" y="360" on="0"/>
        <pt x="320" y="405" on="0"/>
        <pt x="310" y="418" on="1"/>
        <pt x="294" y="440" on="0"/>
        <pt x="184" y="440" on="0"/>
        <pt x="103" y="413" on="1"/>
        <pt x="92" y="476" on="1"/>
        <pt x="124" y="494" on="0"/>
        <pt x="222" y="516" on="0"/>
        <pt x="271" y="516" on="1"/>
        <pt x="381" y="516" on="0"/>
        <pt x="397" y="437" on="1"/>
        <pt x="455" y="516" on="0"/>
        <pt x="559" y="516" on="1"/>
        <pt x="644" y="516" on="0"/>
      </contour>
      <contour>
        <pt x="222" y="214" on="1"/>
        <pt x="105" y="214" on="0"/>
        <pt x="92" y="136" on="1"/>
        <pt x="90" y="126" on="0"/>
        <pt x="90" y="117" on="1"/>
        <pt x="90" y="60" on="0"/>
        <pt x="157" y="58" on="1"/>
        <pt x="193" y="58" on="0"/>
        <pt x="287" y="79" on="0"/>
        <pt x="316" y="96" on="1"/>
        <pt x="299" y="140" on="0"/>
        <pt x="299" y="194" on="1"/>
        <pt x="299" y="202" on="0"/>
        <pt x="299" y="210" on="1"/>
        <pt x="275" y="214" on="0"/>
      </contour>
      <contour>
        <pt x="622" y="319" on="1"/>
        <pt x="626" y="347" on="0"/>
        <pt x="626" y="359" on="1"/>
        <pt x="626" y="442" on="0"/>
        <pt x="553" y="442" on="1"/>
        <pt x="485" y="442" on="0"/>
        <pt x="447" y="393" on="1"/>
        <pt x="420" y="359" on="0"/>
        <pt x="405" y="319" on="1"/>
      </contour>
    </TTGlyph>
    <TTGlyph name="agrave" xMin="4" yMin="-14" xMax="441" yMax="754">
      <contour>
        <pt x="126" y="-13" on="1"/>
        <pt x="61" y="-13" on="0"/>
        <pt x="29" y="25" on="1"/>
        <pt x="5" y="54" on="0"/>
        <pt x="5" y="98" on="1"/>
        <pt x="5" y="157" on="0"/>
        <pt x="59" y="227" on="0"/>
        <pt x="90" y="241" on="1"/>
        <pt x="145" y="266" on="0"/>
        <pt x="259" y="266" on="0"/>
        <pt x="308" y="261" on="1"/>
        <pt x="320" y="339" on="1"/>
        <pt x="323" y="360" on="0"/>
        <pt x="323" y="405" on="0"/>
        <pt x="313" y="418" on="1"/>
        <pt x="297" y="440" on="0"/>
        <pt x="188" y="440" on="0"/>
        <pt x="107" y="413" on="1"/>
        <pt x="96" y="476" on="1"/>
        <pt x="128" y="494" on="0"/>
        <pt x="226" y="516" on="0"/>
        <pt x="261" y="516" on="1"/>
        <pt x="358" y="516" on="0"/>
        <pt x="392" y="474" on="1"/>
        <pt x="414" y="446" on="0"/>
        <pt x="414" y="391" on="1"/>
        <pt x="414" y="365" on="0"/>
        <pt x="409" y="333" on="1"/>
        <pt x="371" y="90" on="1"/>
        <pt x="369" y="82" on="0"/>
        <pt x="369" y="76" on="1"/>
        <pt x="369" y="55" on="0"/>
        <pt x="389" y="55" on="1"/>
        <pt x="405" y="55" on="0"/>
        <pt x="435" y="64" on="1"/>
        <pt x="441" y="8" on="1"/>
        <pt x="403" y="-14" on="0"/>
        <pt x="355" y="-14" on="1"/>
        <pt x="295" y="-14" on="0"/>
        <pt x="279" y="37" on="1"/>
        <pt x="254" y="16" on="0"/>
        <pt x="170" y="-13" on="0"/>
      </contour>
      <contour>
        <pt x="90" y="116" on="1"/>
        <pt x="90" y="58" on="0"/>
        <pt x="220" y="58" on="0"/>
        <pt x="281" y="94" on="1"/>
        <pt x="300" y="210" on="1"/>
        <pt x="276" y="214" on="0"/>
        <pt x="222" y="214" on="1"/>
        <pt x="105" y="214" on="0"/>
        <pt x="92" y="136" on="1"/>
        <pt x="90" y="125" on="0"/>
      </contour>
      <contour>
        <pt x="337" y="577" on="1"/>
        <pt x="181" y="681" on="1"/>
        <pt x="241" y="754" on="1"/>
        <pt x="382" y="632" on="1"/>
      </contour>
    </TTGlyph>
    <TTGlyph name="ampersand" xMin="21" yMin="-31" xMax="631" yMax="681">
      <contour>
        <pt x="113" y="161" on="1"/>
        <pt x="113" y="121" on="0"/>
        <pt x="171" y="63" on="0"/>
        <pt x="226" y="63" on="1"/>
        <pt x="313" y="63" on="0"/>
        <pt x="383" y="133" on="1"/>
        <pt x="245" y="330" on="1"/>
        <pt x="189" y="307" on="0"/>
        <pt x="155" y="267" on="1"/>
        <pt x="113" y="218" on="0"/>
      </contour>
      <contour>
        <pt x="21" y="144" on="1"/>
        <pt x="21" y="294" on="0"/>
        <pt x="208" y="393" on="1"/>
        <pt x="156" y="468" on="0"/>
        <pt x="156" y="532" on="1"/>
        <pt x="156" y="605" on="0"/>
        <pt x="215" y="647" on="1"/>
        <pt x="263" y="681" on="0"/>
        <pt x="403" y="681" on="0"/>
        <pt x="475" y="645" on="1"/>
        <pt x="439" y="576" on="1"/>
        <pt x="385" y="605" on="0"/>
        <pt x="251" y="605" on="0"/>
        <pt x="243" y="551" on="1"/>
        <pt x="242" y="545" on="0"/>
        <pt x="242" y="539" on="1"/>
        <pt x="242" y="498" on="0"/>
        <pt x="283" y="439" on="1"/>
        <pt x="450" y="199" on="1"/>
        <pt x="524" y="289" on="0"/>
        <pt x="552" y="410" on="1"/>
        <pt x="631" y="410" on="1"/>
        <pt x="597" y="248" on="0"/>
        <pt x="495" y="134" on="1"/>
        <pt x="522" y="105" on="0"/>
        <pt x="596" y="46" on="0"/>
        <pt x="622" y="33" on="1"/>
        <pt x="576" y="-31" on="1"/>
        <pt x="486" y="12" on="0"/>
        <pt x="429" y="70" on="1"/>
        <pt x="334" y="-13" on="0"/>
        <pt x="207" y="-13" on="1"/>
        <pt x="117" y="-13" on="0"/>
        <pt x="64" y="38" on="1"/>
        <pt x="21" y="78" on="0"/>
      </contour>
    </TTGlyph>
    <TTGlyph name="aring" xMin="4" yMin="-13" xMax="441" yMax="792">
      <contour>
        <pt x="127" y="-12" on="1"/>
        <pt x="62" y="-12" on="0"/>
        <pt x="30" y="26" on="1"/>
        <pt x="5" y="55" on="0"/>
        <pt x="5" y="99" on="1"/>
        <pt x="5" y="158" on="0"/>
        <pt x="59" y="228" on="0"/>
        <pt x="90" y="242" on="1"/>
        <pt x="145" y="267" on="0"/>
        <pt x="260" y="267" on="0"/>
        <pt x="308" y="262" on="1"/>
        <pt x="320" y="340" on="1"/>
        <pt x="323" y="361" on="0"/>
        <pt x="323" y="406" on="0"/>
        <pt x="313" y="420" on="1"/>
        <pt x="297" y="441" on="0"/>
        <pt x="188" y="441" on="0"/>
        <pt x="107" y="414" on="1"/>
        <pt x="96" y="477" on="1"/>
        <pt x="128" y="495" on="0"/>
        <pt x="226" y="517" on="0"/>
        <pt x="261" y="517" on="1"/>
        <pt x="358" y="517" on="0"/>
        <pt x="392" y="475" on="1"/>
        <pt x="414" y="447" on="0"/>
        <pt x="414" y="392" on="1"/>
        <pt x="414" y="366" on="0"/>
        <pt x="409" y="334" on="1"/>
        <pt x="371" y="91" on="1"/>
        <pt x="369" y="83" on="0"/>
        <pt x="369" y="77" on="1"/>
        <pt x="369" y="56" on="0"/>
        <pt x="406" y="56" on="0"/>
        <pt x="435" y="65" on="1"/>
        <pt x="441" y="9" on="1"/>
        <pt x="404" y="-13" on="0"/>
        <pt x="355" y="-13" on="1"/>
        <pt x="294" y="-13" on="0"/>
        <pt x="280" y="38" on="1"/>
        <pt x="218" y="-12" on="0"/>
      </contour>
      <contour>
        <pt x="90" y="117" on="1"/>
        <pt x="90" y="59" on="0"/>
        <pt x="219" y="59" on="0"/>
        <pt x="282" y="95" on="1"/>
        <pt x="300" y="211" on="1"/>
        <pt x="276" y="215" on="0"/>
        <pt x="223" y="215" on="1"/>
        <pt x="105" y="215" on="0"/>
        <pt x="92" y="137" on="1"/>
        <pt x="90" y="126" on="0"/>
      </contour>
      <contour>
        <pt x="321" y="587" on="0"/>
        <pt x="221" y="587" on="0"/>
        <pt x="184" y="640" on="0"/>
        <pt x="184" y="669" on="1"/>
        <pt x="184" y="726" on="0"/>
        <pt x="255" y="792" on="0"/>
        <pt x="355" y="792" on="0"/>
        <pt x="393" y="740" on="0"/>
        <pt x="393" y="709" on="1"/>
        <pt x="393" y="700" on="0"/>
        <pt x="392" y="691" on="1"/>
        <pt x="385" y="649" on="0"/>
      </contour>
      <contour>
        <pt x="244" y="680" on="1"/>
        <pt x="244" y="641" on="0"/>
        <pt x="280" y="641" on="1"/>
        <pt x="324" y="641" on="0"/>
        <pt x="333" y="691" on="1"/>
        <pt x="334" y="697" on="0"/>
        <pt x="334" y="702" on="1"/>
        <pt x="334" y="738" on="0"/>
        <pt x="296" y="738" on="1"/>
        <pt x="274" y="738" on="0"/>
        <pt x="261" y="724" on="1"/>
        <pt x="244" y="705" on="0"/>
      </contour>
    </TTGlyph>
    <TTGlyph name="asciicircum" xMin="87" yMin="297" xMax="498" yMax="641">
      <contour>
        <pt x="312" y="641" on="1"/>
        <pt x="382" y="641" on="1"/>
        <pt x="498" y="297" on="1"/>
        <pt x="412" y="297" on="1"/>
        <pt x="331" y="543" on="1"/>
        <pt x="173" y="297" on="1"/>
        <pt x="87" y="297" on="1"/>
      </contour>
    </TTGlyph>
    <TTGlyph name="asciitilde" xMin="44" yMin="209" xMax="535" yMax="361">
      <contour>
        <pt x="314" y="325" on="1"/>
        <pt x="380" y="294" on="0"/>
        <pt x="438" y="294" on="0"/>
        <pt x="486" y="351" on="1"/>
        <pt x="535" y="306" on="1"/>
        <pt x="463" y="209" on="0"/>
        <pt x="387" y="209" on="1"/>
        <pt x="339" y="209" on="0"/>
        <pt x="211" y="276" on="0"/>
        <pt x="171" y="276" on="1"/>
        <pt x="141" y="276" on="0"/>
        <pt x="93" y="219" on="1"/>
        <pt x="44" y="264" on="1"/>
        <pt x="116" y="361" on="0"/>
        <pt x="192" y="361" on="1"/>
        <pt x="244" y="361" on="0"/>
      </contour>
    </TTGlyph>
    <TTGlyph name="asterisk" xMin="72" yMin="382" xMax="391" yMax="693">
      <contour>
        <pt x="283" y="539" on="1"/>
        <pt x="378" y="494" on="1"/>
        <pt x="326" y="428" on="1"/>
        <pt x="254" y="494" on="1"/>
        <pt x="245" y="382" on="1"/>
        <pt x="168" y="382" on="1"/>
        <pt x="195" y="496" on="1"/>
        <pt x="100" y="428" on="1"/>
        <pt x="72" y="495" on="1"/>
        <pt x="181" y="537" on="1"/>
        <pt x="85" y="579" on="1"/>
        <pt x="134" y="648" on="1"/>
        <pt x="209" y="581" on="1"/>
        <pt x="217" y="693" on="1"/>
        <pt x="294" y="693" on="1"/>
        <pt x="269" y="581" on="1"/>
        <pt x="362" y="648" on="1"/>
        <pt x="391" y="579" on="1"/>
      </contour>
    </TTGlyph>
    <TTGlyph name="at" xMin="38" yMin="-50" xMax="743" yMax="680">
      <contour>
        <pt x="528" y="125" on="1"/>
        <pt x="454" y="125" on="0"/>
        <pt x="441" y="185" on="1"/>
        <pt x="420" y="157" on="0"/>
        <pt x="356" y="124" on="0"/>
        <pt x="322" y="124" on="1"/>
        <pt x="259" y="124" on="0"/>
        <pt x="226" y="165" on="1"/>
        <pt x="201" y="195" on="0"/>
        <pt x="201" y="243" on="1"/>
        <pt x="201" y="260" on="0"/>
        <pt x="204" y="279" on="1"/>
        <pt x="220" y="381" on="0"/>
        <pt x="357" y="509" on="0"/>
        <pt x="445" y="509" on="1"/>
        <pt x="502" y="509" on="0"/>
        <pt x="569" y="478" on="1"/>
        <pt x="519" y="275" on="1"/>
        <pt x="518" y="269" on="0"/>
        <pt x="516" y="262" on="1"/>
        <pt x="512" y="240" on="0"/>
        <pt x="512" y="227" on="1"/>
        <pt x="512" y="190" on="0"/>
        <pt x="547" y="190" on="1"/>
        <pt x="625" y="190" on="0"/>
        <pt x="655" y="375" on="1"/>
        <pt x="660" y="405" on="0"/>
        <pt x="660" y="431" on="1"/>
        <pt x="660" y="502" on="0"/>
        <pt x="626" y="548" on="1"/>
        <pt x="581" y="610" on="0"/>
        <pt x="338" y="610" on="0"/>
        <pt x="154" y="439" on="0"/>
        <pt x="132" y="298" on="1"/>
        <pt x="126" y="263" on="0"/>
        <pt x="126" y="232" on="1"/>
        <pt x="126" y="146" on="0"/>
        <pt x="170" y="94" on="1"/>
        <pt x="229" y="24" on="0"/>
        <pt x="436" y="24" on="0"/>
        <pt x="558" y="78" on="1"/>
        <pt x="576" y="15" on="1"/>
        <pt x="423" y="-50" on="0"/>
        <pt x="316" y="-50" on="1"/>
        <pt x="177" y="-50" on="0"/>
        <pt x="98" y="39" on="1"/>
        <pt x="39" y="106" on="0"/>
        <pt x="39" y="216" on="1"/>
        <pt x="39" y="252" on="0"/>
        <pt x="45" y="293" on="1"/>
        <pt x="72" y="463" on="0"/>
        <pt x="313" y="680" on="0"/>
        <pt x="628" y="680" on="0"/>
        <pt x="694" y="598" on="1"/>
        <pt x="743" y="537" on="0"/>
        <pt x="743" y="442" on="1"/>
        <pt x="743" y="410" on="0"/>
        <pt x="737" y="374" on="1"/>
        <pt x="697" y="125" on="0"/>
      </contour>
      <contour>
        <pt x="437" y="447" on="1"/>
        <pt x="384" y="447" on="0"/>
        <pt x="300" y="356" on="0"/>
        <pt x="289" y="287" on="1"/>
        <pt x="286" y="269" on="0"/>
        <pt x="286" y="254" on="1"/>
        <pt x="286" y="188" on="0"/>
        <pt x="342" y="188" on="1"/>
        <pt x="375" y="188" on="0"/>
        <pt x="427" y="243" on="0"/>
        <pt x="438" y="286" on="1"/>
        <pt x="475" y="441" on="1"/>
        <pt x="459" y="447" on="0"/>
      </contour>
    </TTGlyph>
    <TTGlyph name="atilde" xMin="4" yMin="-14" xMax="449" yMax="701">
      <contour>
        <pt x="135" y="660" on="0"/>
        <pt x="195" y="701" on="0"/>
        <pt x="243" y="701" on="0"/>
        <pt x="329" y="658" on="0"/>
        <pt x="367" y="658" on="0"/>
        <pt x="411" y="700" on="1"/>
        <pt x="449" y="664" on="1"/>
        <pt x="423" y="630" on="0"/>
        <pt x="357" y="587" on="0"/>
        <pt x="306" y="587" on="0"/>
        <pt x="225" y="630" on="0"/>
        <pt x="188" y="630" on="0"/>
        <pt x="150" y="593" on="1"/>
        <pt x="112" y="630" on="1"/>
      </contour>
      <contour>
        <pt x="126" y="-13" on="1"/>
        <pt x="61" y="-13" on="0"/>
        <pt x="29" y="25" on="1"/>
        <pt x="5" y="54" on="0"/>
        <pt x="5" y="98" on="1"/>
        <pt x="5" y="157" on="0"/>
        <pt x="59" y="227" on="0"/>
        <pt x="90" y="241" on="1"/>
        <pt x="145" y="266" on="0"/>
        <pt x="259" y="266" on="0"/>
        <pt x="308" y="261" on="1"/>
        <pt x="320" y="339" on="1"/>
        <pt x="323" y="360" on="0"/>
        <pt x="323" y="405" on="0"/>
        <pt x="313" y="418" on="1"/>
        <pt x="297" y="440" on="0"/>
        <pt x="188" y="440" on="0"/>
        <pt x="107" y="413" on="1"/>
        <pt x="96" y="476" on="1"/>
        <pt x="128" y="494" on="0"/>
        <pt x="226" y="516" on="0"/>
        <pt x="261" y="516" on="1"/>
        <pt x="358" y="516" on="0"/>
        <pt x="392" y="474" on="1"/>
        <pt x="414" y="446" on="0"/>
        <pt x="414" y="391" on="1"/>
        <pt x="414" y="365" on="0"/>
        <pt x="409" y="333" on="1"/>
        <pt x="371" y="90" on="1"/>
        <pt x="369" y="82" on="0"/>
        <pt x="369" y="76" on="1"/>
        <pt x="369" y="55" on="0"/>
        <pt x="389" y="55" on="1"/>
        <pt x="405" y="55" on="0"/>
        <pt x="435" y="64" on="1"/>
        <pt x="441" y="8" on="1"/>
        <pt x="403" y="-14" on="0"/>
        <pt x="355" y="-14" on="1"/>
        <pt x="295" y="-14" on="0"/>
        <pt x="279" y="37" on="1"/>
        <pt x="254" y="16" on="0"/>
        <pt x="170" y="-13" on="0"/>
      </contour>
      <contour>
        <pt x="90" y="116" on="1"/>
        <pt x="90" y="58" on="0"/>
        <pt x="220" y="58" on="0"/>
        <pt x="281" y="94" on="1"/>
        <pt x="300" y="210" on="1"/>
        <pt x="276" y="214" on="0"/>
        <pt x="222" y="214" on="1"/>
        <pt x="105" y="214" on="0"/>
        <pt x="92" y="136" on="1"/>
        <pt x="90" y="125" on="0"/>
      </contour>
    </TTGlyph>
    <TTGlyph name="b" xMin="25" yMin="-13" xMax="475" yMax="700">
      <contour>
        <pt x="301" y="440" on="1"/>
        <pt x="239" y="440" on="0"/>
        <pt x="173" y="398" on="1"/>
        <pt x="122" y="79" on="1"/>
        <pt x="157" y="63" on="0"/>
        <pt x="214" y="63" on="1"/>
        <pt x="340" y="63" on="0"/>
        <pt x="372" y="259" on="1"/>
        <pt x="378" y="299" on="0"/>
        <pt x="378" y="330" on="1"/>
        <pt x="378" y="440" on="0"/>
      </contour>
      <contour>
        <pt x="328" y="516" on="1"/>
        <pt x="404" y="516" on="0"/>
        <pt x="446" y="454" on="1"/>
        <pt x="474" y="410" on="0"/>
        <pt x="474" y="342" on="1"/>
        <pt x="474" y="312" on="0"/>
        <pt x="469" y="278" on="1"/>
        <pt x="423" y="-13" on="0"/>
        <pt x="201" y="-13" on="1"/>
        <pt x="96" y="-13" on="0"/>
        <pt x="25" y="35" on="1"/>
        <pt x="130" y="700" on="1"/>
        <pt x="220" y="700" on="1"/>
        <pt x="184" y="469" on="1"/>
        <pt x="205" y="484" on="0"/>
        <pt x="289" y="516" on="0"/>
      </contour>
    </TTGlyph>
    <TTGlyph name="backslash" xMin="87" yMin="-114" xMax="324" yMax="758">
      <contour>
        <pt x="244" y="-114" on="1"/>
        <pt x="87" y="737" on="1"/>
        <pt x="165" y="758" on="1"/>
        <pt x="324" y="-93" on="1"/>
      </contour>
    </TTGlyph>
    <TTGlyph name="bar" xMin="22" yMin="-42" xMax="223" yMax="694">
      <contour>
        <pt x="22" y="-42" on="1"/>
        <pt x="138" y="694" on="1"/>
        <pt x="223" y="694" on="1"/>
        <pt x="107" y="-42" on="1"/>
      </contour>
    </TTGlyph>
    <TTGlyph name="braceleft" xMin="29" yMin="-134" xMax="396" yMax="754">
      <contour>
        <pt x="82" y="233" on="1"/>
        <pt x="82" y="275" on="0"/>
        <pt x="59" y="276" on="1"/>
        <pt x="29" y="276" on="1"/>
        <pt x="40" y="346" on="1"/>
        <pt x="69" y="346" on="1"/>
        <pt x="103" y="350" on="0"/>
        <pt x="116" y="434" on="1"/>
        <pt x="147" y="591" on="1"/>
        <pt x="162" y="665" on="0"/>
        <pt x="262" y="754" on="0"/>
        <pt x="323" y="754" on="1"/>
        <pt x="396" y="754" on="1"/>
        <pt x="384" y="680" on="1"/>
        <pt x="304" y="680" on="1"/>
        <pt x="273" y="677" on="0"/>
        <pt x="232" y="617" on="0"/>
        <pt x="228" y="590" on="1"/>
        <pt x="205" y="456" on="1"/>
        <pt x="184" y="347" on="0"/>
        <pt x="144" y="310" on="1"/>
        <pt x="164" y="291" on="0"/>
        <pt x="164" y="200" on="0"/>
        <pt x="149" y="104" on="0"/>
        <pt x="148" y="90" on="1"/>
        <pt x="142" y="59" on="0"/>
        <pt x="138" y="19" on="0"/>
        <pt x="138" y="-9" on="0"/>
        <pt x="146" y="-31" on="1"/>
        <pt x="156" y="-61" on="0"/>
        <pt x="187" y="-62" on="1"/>
        <pt x="262" y="-62" on="1"/>
        <pt x="250" y="-134" on="1"/>
        <pt x="182" y="-134" on="1"/>
        <pt x="116" y="-134" on="0"/>
        <pt x="82" y="-91" on="1"/>
        <pt x="55" y="-57" on="0"/>
        <pt x="55" y="-4" on="1"/>
        <pt x="55" y="15" on="0"/>
        <pt x="76" y="179" on="1"/>
        <pt x="82" y="211" on="0"/>
      </contour>
    </TTGlyph>
    <TTGlyph name="braceright" xMin="-35" yMin="-134" xMax="326" yMax="754">
      <contour>
        <pt x="32" y="-134" on="1"/>
        <pt x="-35" y="-134" on="1"/>
        <pt x="-23" y="-62" on="1"/>
        <pt x="51" y="-62" on="1"/>
        <pt x="82" y="-61" on="0"/>
        <pt x="123" y="-1" on="0"/>
        <pt x="129" y="37" on="1"/>
        <pt x="139" y="99" on="0"/>
        <pt x="150" y="154" on="1"/>
        <pt x="173" y="284" on="0"/>
        <pt x="213" y="310" on="1"/>
        <pt x="192" y="332" on="0"/>
        <pt x="192" y="388" on="1"/>
        <pt x="192" y="417" on="0"/>
        <pt x="197" y="447" on="1"/>
        <pt x="217" y="583" on="0"/>
        <pt x="217" y="626" on="0"/>
        <pt x="210" y="648" on="1"/>
        <pt x="199" y="677" on="0"/>
        <pt x="168" y="680" on="1"/>
        <pt x="88" y="680" on="1"/>
        <pt x="100" y="754" on="1"/>
        <pt x="173" y="754" on="1"/>
        <pt x="234" y="754" on="0"/>
        <pt x="298" y="674" on="0"/>
        <pt x="298" y="618" on="1"/>
        <pt x="298" y="598" on="0"/>
        <pt x="274" y="410" on="0"/>
        <pt x="274" y="392" on="1"/>
        <pt x="274" y="349" on="0"/>
        <pt x="297" y="346" on="1"/>
        <pt x="326" y="346" on="1"/>
        <pt x="315" y="276" on="1"/>
        <pt x="284" y="276" on="1"/>
        <pt x="252" y="272" on="0"/>
        <pt x="238" y="179" on="1"/>
        <pt x="231" y="136" on="0"/>
        <pt x="220" y="90" on="0"/>
        <pt x="218" y="76" on="1"/>
        <pt x="211" y="40" on="0"/>
        <pt x="207" y="25" on="1"/>
        <pt x="194" y="-48" on="0"/>
        <pt x="98" y="-134" on="0"/>
      </contour>
    </TTGlyph>
    <TTGlyph name="bracketleft" xMin="4" yMin="-141" xMax="347" yMax="766">
      <contour>
        <pt x="4" y="-141" on="1"/>
        <pt x="148" y="766" on="1"/>
        <pt x="347" y="766" on="1"/>
        <pt x="336" y="695" on="1"/>
        <pt x="222" y="689" on="1"/>
        <pt x="102" y="-64" on="1"/>
        <pt x="142" y="-66" on="0"/>
        <pt x="214" y="-71" on="1"/>
        <pt x="203" y="-141" on="1"/>
      </contour>
    </TTGlyph>
    <TTGlyph name="bracketright" xMin="-38" yMin="-141" xMax="304" yMax="765">
      <contour>
        <pt x="304" y="765" on="1"/>
        <pt x="160" y="-141" on="1"/>
        <pt x="-38" y="-141" on="1"/>
        <pt x="-27" y="-70" on="1"/>
        <pt x="86" y="-64" on="1"/>
        <pt x="205" y="688" on="1"/>
        <pt x="164" y="690" on="0"/>
        <pt x="94" y="695" on="1"/>
        <pt x="105" y="765" on="1"/>
      </contour>
    </TTGlyph>
    <TTGlyph name="breve" xMin="164" yMin="566" xMax="382" yMax="670">
      <contour>
        <pt x="224" y="657" on="1"/>
        <pt x="224" y="620" on="0"/>
        <pt x="314" y="620" on="0"/>
        <pt x="323" y="670" on="1"/>
        <pt x="382" y="670" on="1"/>
        <pt x="375" y="627" on="0"/>
        <pt x="309" y="566" on="0"/>
        <pt x="202" y="566" on="0"/>
        <pt x="164" y="619" on="0"/>
        <pt x="164" y="649" on="1"/>
        <pt x="164" y="659" on="0"/>
        <pt x="166" y="670" on="1"/>
        <pt x="225" y="670" on="1"/>
        <pt x="224" y="663" on="0"/>
      </contour>
    </TTGlyph>
    <TTGlyph name="brokenbar" xMin="22" yMin="-45" xMax="224" yMax="694">
      <contour>
        <pt x="94" y="410" on="1"/>
        <pt x="139" y="694" on="1"/>
        <pt x="224" y="694" on="1"/>
        <pt x="179" y="410" on="1"/>
      </contour>
      <contour>
        <pt x="22" y="-45" on="1"/>
        <pt x="68" y="243" on="1"/>
        <pt x="153" y="243" on="1"/>
        <pt x="107" y="-45" on="1"/>
      </contour>
    </TTGlyph>
    <TTGlyph name="bullet" xMin="70" yMin="206" xMax="307" yMax="440">
      <contour>
        <pt x="157" y="440" on="0"/>
        <pt x="256" y="440" on="0"/>
        <pt x="307" y="380" on="0"/>
        <pt x="307" y="344" on="1"/>
        <pt x="307" y="281" on="0"/>
        <pt x="219" y="206" on="0"/>
        <pt x="120" y="206" on="0"/>
        <pt x="70" y="266" on="0"/>
        <pt x="70" y="302" on="1"/>
        <pt x="70" y="364" on="0"/>
      </contour>
    </TTGlyph>
    <TTGlyph name="c" xMin="31" yMin="-15" xMax="427" yMax="516">
      <contour>
        <pt x="354" y="9" on="1"/>
        <pt x="287" y="-15" on="0"/>
        <pt x="180" y="-15" on="0"/>
        <pt x="142" y="0" on="1"/>
        <pt x="57" y="34" on="0"/>
        <pt x="37" y="131" on="1"/>
        <pt x="32" y="157" on="0"/>
        <pt x="32" y="217" on="0"/>
        <pt x="37" y="251" on="1"/>
        <pt x="58" y="383" on="0"/>
        <pt x="211" y="516" on="0"/>
        <pt x="307" y="516" on="1"/>
        <pt x="375" y="516" on="0"/>
        <pt x="427" y="487" on="1"/>
        <pt x="389" y="423" on="1"/>
        <pt x="340" y="440" on="0"/>
        <pt x="297" y="440" on="1"/>
        <pt x="238" y="440" on="0"/>
        <pt x="145" y="350" on="0"/>
        <pt x="129" y="251" on="1"/>
        <pt x="124" y="220" on="0"/>
        <pt x="124" y="195" on="1"/>
        <pt x="124" y="62" on="0"/>
        <pt x="254" y="62" on="1"/>
        <pt x="299" y="62" on="0"/>
        <pt x="349" y="75" on="1"/>
      </contour>
    </TTGlyph>
    <TTGlyph name="caron" xMin="195" yMin="572" xMax="468" yMax="725">
      <contour>
        <pt x="323" y="632" on="1"/>
        <pt x="428" y="725" on="1"/>
        <pt x="468" y="686" on="1"/>
        <pt x="347" y="572" on="1"/>
        <pt x="281" y="572" on="1"/>
        <pt x="195" y="686" on="1"/>
        <pt x="247" y="725" on="1"/>
      </contour>
    </TTGlyph>
    <TTGlyph name="ccedilla" xMin="31" yMin="-255" xMax="427" yMax="516">
      <contour>
        <pt x="94" y="-207" on="1"/>
        <pt x="180" y="-153" on="0"/>
        <pt x="180" y="-95" on="1"/>
        <pt x="180" y="-75" on="0"/>
        <pt x="171" y="-49" on="1"/>
        <pt x="250" y="-49" on="1"/>
        <pt x="257" y="-74" on="0"/>
        <pt x="257" y="-105" on="0"/>
        <pt x="256" y="-113" on="1"/>
        <pt x="242" y="-193" on="0"/>
        <pt x="127" y="-255" on="1"/>
      </contour>
      <contour>
        <pt x="354" y="9" on="1"/>
        <pt x="287" y="-15" on="0"/>
        <pt x="180" y="-15" on="0"/>
        <pt x="142" y="0" on="1"/>
        <pt x="57" y="34" on="0"/>
        <pt x="37" y="131" on="1"/>
        <pt x="32" y="157" on="0"/>
        <pt x="32" y="217" on="0"/>
        <pt x="37" y="251" on="1"/>
        <pt x="58" y="383" on="0"/>
        <pt x="211" y="516" on="0"/>
        <pt x="307" y="516" on="1"/>
        <pt x="375" y="516" on="0"/>
        <pt x="427" y="487" on="1"/>
        <pt x="389" y="423" on="1"/>
        <pt x="340" y="440" on="0"/>
        <pt x="297" y="440" on="1"/>
        <pt x="238" y="440" on="0"/>
        <pt x="145" y="350" on="0"/>
        <pt x="129" y="251" on="1"/>
        <pt x="124" y="220" on="0"/>
        <pt x="124" y="195" on="1"/>
        <pt x="124" y="62" on="0"/>
        <pt x="254" y="62" on="1"/>
        <pt x="299" y="62" on="0"/>
        <pt x="349" y="75" on="1"/>
      </contour>
    </TTGlyph>
    <TTGlyph name="cedilla" xMin="42" yMin="-255" xMax="206" yMax="-49">
      <contour>
        <pt x="42" y="-207" on="1"/>
        <pt x="128" y="-153" on="0"/>
        <pt x="128" y="-95" on="1"/>
        <pt x="128" y="-75" on="0"/>
        <pt x="119" y="-49" on="1"/>
        <pt x="198" y="-49" on="1"/>
        <pt x="205" y="-74" on="0"/>
        <pt x="205" y="-105" on="0"/>
        <pt x="204" y="-113" on="1"/>
        <pt x="190" y="-193" on="0"/>
        <pt x="75" y="-255" on="1"/>
      </contour>
    </TTGlyph>
    <TTGlyph name="cent" xMin="37" yMin="-32" xMax="442" yMax="709">
      <contour>
        <pt x="405" y="501" on="1"/>
        <pt x="350" y="526" on="0"/>
        <pt x="244" y="526" on="0"/>
        <pt x="150" y="436" on="0"/>
        <pt x="135" y="337" on="1"/>
        <pt x="130" y="306" on="0"/>
        <pt x="130" y="281" on="1"/>
        <pt x="130" y="226" on="0"/>
        <pt x="152" y="194" on="1"/>
        <pt x="185" y="149" on="0"/>
        <pt x="294" y="149" on="0"/>
        <pt x="365" y="182" on="1"/>
        <pt x="381" y="120" on="1"/>
        <pt x="322" y="85" on="0"/>
        <pt x="261" y="75" on="1"/>
        <pt x="249" y="-32" on="1"/>
        <pt x="179" y="-32" on="1"/>
        <pt x="201" y="74" on="1"/>
        <pt x="116" y="84" on="0"/>
        <pt x="70" y="150" on="1"/>
        <pt x="37" y="197" on="0"/>
        <pt x="37" y="271" on="1"/>
        <pt x="37" y="302" on="0"/>
        <pt x="43" y="337" on="1"/>
        <pt x="62" y="459" on="0"/>
        <pt x="197" y="591" on="0"/>
        <pt x="285" y="600" on="1"/>
        <pt x="297" y="709" on="1"/>
        <pt x="367" y="709" on="1"/>
        <pt x="345" y="600" on="1"/>
        <pt x="400" y="592" on="0"/>
        <pt x="442" y="567" on="1"/>
      </contour>
    </TTGlyph>
    <TTGlyph name="circumflex" xMin="157" yMin="581" xMax="421" yMax="727">
      <contour>
        <pt x="298" y="667" on="1"/>
        <pt x="200" y="581" on="1"/>
        <pt x="157" y="617" on="1"/>
        <pt x="274" y="727" on="1"/>
        <pt x="339" y="727" on="1"/>
        <pt x="421" y="617" on="1"/>
        <pt x="365" y="581" on="1"/>
      </contour>
    </TTGlyph>
    <TTGlyph name="colon" xMin="23" yMin="-6" xMax="196" yMax="417">
      <contour>
        <pt x="70" y="117" on="0"/>
        <pt x="120" y="117" on="0"/>
        <pt x="148" y="86" on="0"/>
        <pt x="148" y="74" on="1"/>
        <pt x="148" y="36" on="0"/>
        <pt x="101" y="-6" on="0"/>
        <pt x="51" y="-6" on="0"/>
        <pt x="24" y="26" on="0"/>
        <pt x="24" y="39" on="1"/>
        <pt x="24" y="78" on="0"/>
      </contour>
      <contour>
        <pt x="118" y="417" on="0"/>
        <pt x="169" y="417" on="0"/>
        <pt x="196" y="386" on="0"/>
        <pt x="196" y="374" on="1"/>
        <pt x="196" y="335" on="0"/>
        <pt x="149" y="294" on="0"/>
        <pt x="99" y="294" on="0"/>
        <pt x="72" y="327" on="0"/>
        <pt x="72" y="339" on="1"/>
        <pt x="72" y="378" on="0"/>
      </contour>
    </TTGlyph>
    <TTGlyph name="comma" xMin="-75" yMin="-128" xMax="128" yMax="116">
      <contour>
        <pt x="-75" y="-128" on="1"/>
        <pt x="35" y="-20" on="0"/>
        <pt x="35" y="68" on="1"/>
        <pt x="35" y="90" on="0"/>
        <pt x="28" y="116" on="1"/>
        <pt x="123" y="116" on="1"/>
        <pt x="128" y="100" on="0"/>
        <pt x="128" y="71" on="0"/>
        <pt x="126" y="59" on="1"/>
        <pt x="108" y="-46" on="0"/>
        <pt x="7" y="-128" on="1"/>
      </contour>
    </TTGlyph>
    <TTGlyph name="copyright" xMin="42" yMin="-18" xMax="692" yMax="622">
      <contour>
        <pt x="479" y="414" on="1"/>
        <pt x="445" y="438" on="0"/>
        <pt x="356" y="438" on="0"/>
        <pt x="285" y="370" on="0"/>
        <pt x="274" y="298" on="1"/>
        <pt x="270" y="274" on="0"/>
        <pt x="270" y="215" on="0"/>
        <pt x="286" y="192" on="1"/>
        <pt x="311" y="157" on="0"/>
        <pt x="399" y="157" on="0"/>
        <pt x="450" y="184" on="1"/>
        <pt x="464" y="135" on="1"/>
        <pt x="405" y="98" on="0"/>
        <pt x="272" y="98" on="0"/>
        <pt x="230" y="148" on="1"/>
        <pt x="200" y="185" on="0"/>
        <pt x="200" y="247" on="1"/>
        <pt x="200" y="271" on="0"/>
        <pt x="204" y="298" on="1"/>
        <pt x="219" y="397" on="0"/>
        <pt x="335" y="498" on="0"/>
        <pt x="468" y="498" on="0"/>
        <pt x="511" y="466" on="1"/>
      </contour>
      <contour>
        <pt x="451" y="-18" on="0"/>
        <pt x="183" y="-18" on="0"/>
        <pt x="104" y="75" on="1"/>
        <pt x="43" y="148" on="0"/>
        <pt x="43" y="247" on="1"/>
        <pt x="43" y="274" on="0"/>
        <pt x="47" y="302" on="1"/>
        <pt x="69" y="436" on="0"/>
        <pt x="284" y="622" on="0"/>
        <pt x="552" y="622" on="0"/>
        <pt x="630" y="529" on="1"/>
        <pt x="692" y="456" on="0"/>
        <pt x="692" y="359" on="1"/>
        <pt x="692" y="331" on="0"/>
        <pt x="687" y="302" on="1"/>
        <pt x="666" y="168" on="0"/>
      </contour>
      <contour>
        <pt x="616" y="352" on="1"/>
        <pt x="616" y="429" on="0"/>
        <pt x="572" y="484" on="1"/>
        <pt x="513" y="555" on="0"/>
        <pt x="301" y="555" on="0"/>
        <pt x="138" y="410" on="0"/>
        <pt x="121" y="300" on="1"/>
        <pt x="117" y="275" on="0"/>
        <pt x="117" y="252" on="1"/>
        <pt x="117" y="174" on="0"/>
        <pt x="162" y="118" on="1"/>
        <pt x="221" y="45" on="0"/>
        <pt x="433" y="45" on="0"/>
        <pt x="595" y="192" on="0"/>
        <pt x="612" y="302" on="1"/>
        <pt x="616" y="328" on="0"/>
      </contour>
    </TTGlyph>
    <TTGlyph name="currency" xMin="-3" yMin="-18" xMax="506" yMax="518">
      <contour>
        <pt x="423" y="388" on="1"/>
        <pt x="460" y="344" on="0"/>
        <pt x="460" y="278" on="1"/>
        <pt x="460" y="264" on="0"/>
        <pt x="458" y="250" on="1"/>
        <pt x="445" y="172" on="0"/>
        <pt x="383" y="116" on="1"/>
        <pt x="437" y="29" on="0"/>
        <pt x="441" y="23" on="1"/>
        <pt x="382" y="-18" on="1"/>
        <pt x="325" y="78" on="1"/>
        <pt x="283" y="57" on="0"/>
        <pt x="177" y="57" on="0"/>
        <pt x="137" y="81" on="1"/>
        <pt x="120" y="64" on="0"/>
        <pt x="44" y="-18" on="1"/>
        <pt x="-3" y="23" on="1"/>
        <pt x="91" y="122" on="1"/>
        <pt x="62" y="161" on="0"/>
        <pt x="62" y="215" on="1"/>
        <pt x="62" y="312" on="0"/>
        <pt x="137" y="383" on="1"/>
        <pt x="131" y="393" on="0"/>
        <pt x="77" y="477" on="1"/>
        <pt x="137" y="518" on="1"/>
        <pt x="195" y="423" on="1"/>
        <pt x="244" y="444" on="0"/>
        <pt x="337" y="444" on="0"/>
        <pt x="373" y="425" on="1"/>
        <pt x="416" y="473" on="0"/>
        <pt x="461" y="518" on="1"/>
        <pt x="506" y="477" on="1"/>
      </contour>
      <contour>
        <pt x="137" y="228" on="1"/>
        <pt x="137" y="189" on="0"/>
        <pt x="188" y="126" on="0"/>
        <pt x="295" y="126" on="0"/>
        <pt x="336" y="162" on="1"/>
        <pt x="386" y="206" on="0"/>
        <pt x="386" y="272" on="1"/>
        <pt x="386" y="311" on="0"/>
        <pt x="335" y="376" on="0"/>
        <pt x="229" y="376" on="0"/>
        <pt x="188" y="340" on="1"/>
        <pt x="137" y="294" on="0"/>
      </contour>
    </TTGlyph>
    <TTGlyph name="d" xMin="30" yMin="-9" xMax="515" yMax="700">
      <contour>
        <pt x="299" y="516" on="1"/>
        <pt x="353" y="516" on="0"/>
        <pt x="392" y="493" on="1"/>
        <pt x="424" y="700" on="1"/>
        <pt x="515" y="700" on="1"/>
        <pt x="403" y="-8" on="1"/>
        <pt x="332" y="-8" on="1"/>
        <pt x="327" y="41" on="1"/>
        <pt x="256" y="-9" on="0"/>
        <pt x="89" y="-9" on="0"/>
        <pt x="54" y="59" on="1"/>
        <pt x="30" y="103" on="0"/>
        <pt x="30" y="203" on="0"/>
        <pt x="37" y="243" on="1"/>
        <pt x="80" y="516" on="0"/>
      </contour>
      <contour>
        <pt x="286" y="441" on="1"/>
        <pt x="161" y="441" on="0"/>
        <pt x="130" y="244" on="1"/>
        <pt x="124" y="205" on="0"/>
        <pt x="124" y="174" on="1"/>
        <pt x="124" y="63" on="0"/>
        <pt x="203" y="63" on="1"/>
        <pt x="277" y="63" on="0"/>
        <pt x="330" y="107" on="1"/>
        <pt x="380" y="423" on="1"/>
        <pt x="341" y="441" on="0"/>
      </contour>
    </TTGlyph>
    <TTGlyph name="dagger" xMin="43" yMin="0" xMax="427" yMax="669">
      <contour>
        <pt x="427" y="480" on="1"/>
        <pt x="413" y="392" on="1"/>
        <pt x="253" y="407" on="1"/>
        <pt x="214" y="0" on="1"/>
        <pt x="108" y="0" on="1"/>
        <pt x="197" y="407" on="1"/>
        <pt x="43" y="392" on="1"/>
        <pt x="57" y="480" on="1"/>
        <pt x="206" y="465" on="1"/>
        <pt x="211" y="669" on="1"/>
        <pt x="321" y="669" on="1"/>
        <pt x="262" y="465" on="1"/>
      </contour>
    </TTGlyph>
    <TTGlyph name="daggerdbl" xMin="26" yMin="0" xMax="419" yMax="674">
      <contour>
        <pt x="268" y="341" on="1"/>
        <pt x="227" y="215" on="1"/>
        <pt x="372" y="228" on="1"/>
        <pt x="359" y="150" on="1"/>
        <pt x="218" y="163" on="1"/>
        <pt x="217" y="0" on="1"/>
        <pt x="123" y="0" on="1"/>
        <pt x="171" y="163" on="1"/>
        <pt x="26" y="150" on="1"/>
        <pt x="39" y="228" on="1"/>
        <pt x="180" y="215" on="1"/>
        <pt x="180" y="341" on="1"/>
        <pt x="218" y="459" on="1"/>
        <pt x="73" y="446" on="1"/>
        <pt x="86" y="525" on="1"/>
        <pt x="226" y="511" on="1"/>
        <pt x="229" y="674" on="1"/>
        <pt x="323" y="674" on="1"/>
        <pt x="273" y="511" on="1"/>
        <pt x="419" y="525" on="1"/>
        <pt x="406" y="446" on="1"/>
        <pt x="265" y="459" on="1"/>
      </contour>
    </TTGlyph>
    <TTGlyph name="degree" xMin="91" yMin="510" xMax="338" yMax="751">
      <contour>
        <pt x="252" y="510" on="0"/>
        <pt x="134" y="510" on="0"/>
        <pt x="110" y="544" on="1"/>
        <pt x="91" y="571" on="0"/>
        <pt x="91" y="607" on="1"/>
        <pt x="91" y="671" on="0"/>
        <pt x="175" y="751" on="0"/>
        <pt x="293" y="751" on="0"/>
        <pt x="338" y="690" on="0"/>
        <pt x="338" y="654" on="1"/>
        <pt x="338" y="591" on="0"/>
      </contour>
      <contour>
        <pt x="158" y="615" on="1"/>
        <pt x="158" y="570" on="0"/>
        <pt x="203" y="570" on="1"/>
        <pt x="232" y="570" on="0"/>
        <pt x="249" y="588" on="1"/>
        <pt x="271" y="613" on="0"/>
        <pt x="271" y="645" on="1"/>
        <pt x="271" y="661" on="0"/>
        <pt x="253" y="690" on="0"/>
        <pt x="196" y="690" on="0"/>
        <pt x="180" y="672" on="1"/>
        <pt x="158" y="650" on="0"/>
      </contour>
    </TTGlyph>
    <TTGlyph name="dieresis" xMin="126" yMin="596" xMax="403" yMax="707">
      <contour>
        <pt x="168" y="707" on="0"/>
        <pt x="213" y="707" on="0"/>
        <pt x="238" y="679" on="0"/>
        <pt x="238" y="668" on="1"/>
        <pt x="238" y="634" on="0"/>
        <pt x="196" y="596" on="0"/>
        <pt x="150" y="596" on="0"/>
        <pt x="126" y="626" on="0"/>
        <pt x="126" y="637" on="1"/>
        <pt x="126" y="672" on="0"/>
      </contour>
      <contour>
        <pt x="332" y="707" on="0"/>
        <pt x="378" y="707" on="0"/>
        <pt x="403" y="679" on="0"/>
        <pt x="403" y="668" on="1"/>
        <pt x="403" y="634" on="0"/>
        <pt x="361" y="596" on="0"/>
        <pt x="315" y="596" on="0"/>
        <pt x="291" y="626" on="0"/>
        <pt x="291" y="637" on="1"/>
        <pt x="291" y="672" on="0"/>
      </contour>
    </TTGlyph>
    <TTGlyph name="divide" xMin="38" yMin="92" xMax="457" yMax="469">
      <contour>
        <pt x="212" y="206" on="0"/>
        <pt x="260" y="206" on="0"/>
        <pt x="285" y="178" on="0"/>
        <pt x="285" y="167" on="1"/>
        <pt x="285" y="132" on="0"/>
        <pt x="242" y="92" on="0"/>
        <pt x="194" y="92" on="0"/>
        <pt x="168" y="123" on="0"/>
        <pt x="168" y="135" on="1"/>
        <pt x="168" y="170" on="0"/>
      </contour>
      <contour>
        <pt x="444" y="239" on="1"/>
        <pt x="38" y="239" on="1"/>
        <pt x="51" y="318" on="1"/>
        <pt x="457" y="318" on="1"/>
      </contour>
      <contour>
        <pt x="254" y="469" on="0"/>
        <pt x="302" y="469" on="0"/>
        <pt x="327" y="441" on="0"/>
        <pt x="327" y="430" on="1"/>
        <pt x="327" y="395" on="0"/>
        <pt x="284" y="355" on="0"/>
        <pt x="236" y="355" on="0"/>
        <pt x="210" y="386" on="0"/>
        <pt x="210" y="398" on="1"/>
        <pt x="210" y="433" on="0"/>
      </contour>
    </TTGlyph>
    <TTGlyph name="dollar" xMin="-12" yMin="-118" xMax="462" yMax="774">
      <contour>
        <pt x="28" y="109" on="1"/>
        <pt x="116" y="71" on="0"/>
        <pt x="246" y="71" on="0"/>
        <pt x="282" y="99" on="1"/>
        <pt x="326" y="133" on="0"/>
        <pt x="326" y="184" on="1"/>
        <pt x="326" y="219" on="0"/>
        <pt x="271" y="274" on="0"/>
        <pt x="204" y="310" on="1"/>
        <pt x="155" y="336" on="0"/>
        <pt x="135" y="353" on="0"/>
        <pt x="113" y="370" on="0"/>
        <pt x="103" y="386" on="0"/>
        <pt x="89" y="407" on="0"/>
        <pt x="83" y="429" on="0"/>
        <pt x="80" y="442" on="1"/>
        <pt x="74" y="466" on="0"/>
        <pt x="81" y="503" on="1"/>
        <pt x="92" y="570" on="0"/>
        <pt x="194" y="657" on="0"/>
        <pt x="267" y="666" on="1"/>
        <pt x="282" y="774" on="1"/>
        <pt x="352" y="774" on="1"/>
        <pt x="333" y="667" on="1"/>
        <pt x="396" y="663" on="0"/>
        <pt x="462" y="638" on="1"/>
        <pt x="424" y="559" on="1"/>
        <pt x="357" y="585" on="0"/>
        <pt x="298" y="585" on="1"/>
        <pt x="184" y="585" on="0"/>
        <pt x="171" y="499" on="1"/>
        <pt x="170" y="493" on="0"/>
        <pt x="170" y="487" on="1"/>
        <pt x="170" y="459" on="0"/>
        <pt x="220" y="412" on="0"/>
        <pt x="313" y="359" on="0"/>
        <pt x="335" y="343" on="1"/>
        <pt x="400" y="296" on="0"/>
        <pt x="414" y="245" on="1"/>
        <pt x="419" y="226" on="0"/>
        <pt x="419" y="208" on="1"/>
        <pt x="419" y="115" on="0"/>
        <pt x="353" y="52" on="1"/>
        <pt x="300" y="2" on="0"/>
        <pt x="222" y="-9" on="1"/>
        <pt x="207" y="-118" on="1"/>
        <pt x="137" y="-118" on="1"/>
        <pt x="156" y="-12" on="1"/>
        <pt x="44" y="-5" on="0"/>
        <pt x="-12" y="25" on="1"/>
      </contour>
    </TTGlyph>
    <TTGlyph name="dotaccent" xMin="137" yMin="559" xMax="261" yMax="682">
      <contour>
        <pt x="183" y="682" on="0"/>
        <pt x="234" y="682" on="0"/>
        <pt x="261" y="651" on="0"/>
        <pt x="261" y="639" on="1"/>
        <pt x="261" y="600" on="0"/>
        <pt x="214" y="559" on="0"/>
        <pt x="164" y="559" on="0"/>
        <pt x="137" y="592" on="0"/>
        <pt x="137" y="604" on="1"/>
        <pt x="137" y="643" on="0"/>
      </contour>
    </TTGlyph>
    <TTGlyph name="dotlessi" xMin="21" yMin="0" xMax="192" yMax="511">
      <contour>
        <pt x="192" y="511" on="1"/>
        <pt x="112" y="0" on="1"/>
        <pt x="21" y="0" on="1"/>
        <pt x="100" y="502" on="1"/>
      </contour>
    </TTGlyph>
    <TTGlyph name="e" xMin="32" yMin="-13" xMax="445" yMax="516">
      <contour>
        <pt x="417" y="468" on="1"/>
        <pt x="445" y="433" on="0"/>
        <pt x="445" y="328" on="0"/>
        <pt x="413" y="253" on="1"/>
        <pt x="119" y="253" on="1"/>
        <pt x="115" y="227" on="0"/>
        <pt x="115" y="151" on="0"/>
        <pt x="134" y="115" on="1"/>
        <pt x="160" y="62" on="0"/>
        <pt x="300" y="62" on="0"/>
        <pt x="366" y="90" on="1"/>
        <pt x="379" y="28" on="1"/>
        <pt x="301" y="-13" on="0"/>
        <pt x="215" y="-13" on="1"/>
        <pt x="103" y="-13" on="0"/>
        <pt x="61" y="64" on="1"/>
        <pt x="32" y="116" on="0"/>
        <pt x="32" y="191" on="1"/>
        <pt x="32" y="347" on="0"/>
        <pt x="125" y="444" on="1"/>
        <pt x="195" y="516" on="0"/>
        <pt x="380" y="516" on="0"/>
      </contour>
      <contour>
        <pt x="356" y="318" on="1"/>
        <pt x="360" y="351" on="0"/>
        <pt x="360" y="362" on="1"/>
        <pt x="360" y="442" on="0"/>
        <pt x="288" y="442" on="1"/>
        <pt x="221" y="442" on="0"/>
        <pt x="182" y="394" on="1"/>
        <pt x="151" y="356" on="0"/>
        <pt x="139" y="320" on="1"/>
      </contour>
    </TTGlyph>
    <TTGlyph name="eacute" xMin="32" yMin="-13" xMax="445" yMax="754">
      <contour>
        <pt x="417" y="468" on="1"/>
        <pt x="445" y="433" on="0"/>
        <pt x="445" y="328" on="0"/>
        <pt x="413" y="253" on="1"/>
        <pt x="119" y="253" on="1"/>
        <pt x="115" y="227" on="0"/>
        <pt x="115" y="151" on="0"/>
        <pt x="134" y="115" on="1"/>
        <pt x="160" y="62" on="0"/>
        <pt x="300" y="62" on="0"/>
        <pt x="366" y="90" on="1"/>
        <pt x="379" y="28" on="1"/>
        <pt x="301" y="-13" on="0"/>
        <pt x="215" y="-13" on="1"/>
        <pt x="103" y="-13" on="0"/>
        <pt x="61" y="64" on="1"/>
        <pt x="32" y="116" on="0"/>
        <pt x="32" y="191" on="1"/>
        <pt x="32" y="347" on="0"/>
        <pt x="125" y="444" on="1"/>
        <pt x="195" y="516" on="0"/>
        <pt x="380" y="516" on="0"/>
      </contour>
      <contour>
        <pt x="356" y="318" on="1"/>
        <pt x="360" y="351" on="0"/>
        <pt x="360" y="362" on="1"/>
        <pt x="360" y="442" on="0"/>
        <pt x="288" y="442" on="1"/>
        <pt x="221" y="442" on="0"/>
        <pt x="182" y="394" on="1"/>
        <pt x="151" y="356" on="0"/>
        <pt x="139" y="320" on="1"/>
      </contour>
      <contour>
        <pt x="416" y="681" on="1"/>
        <pt x="228" y="577" on="1"/>
        <pt x="201" y="632" on="1"/>
        <pt x="380" y="754" on="1"/>
      </contour>
    </TTGlyph>
    <TTGlyph name="ecircumflex" xMin="32" yMin="-13" xMax="445" yMax="727">
      <contour>
        <pt x="317" y="667" on="1"/>
        <pt x="219" y="581" on="1"/>
        <pt x="176" y="617" on="1"/>
        <pt x="293" y="727" on="1"/>
        <pt x="358" y="727" on="1"/>
        <pt x="440" y="617" on="1"/>
        <pt x="384" y="581" on="1"/>
      </contour>
      <contour>
        <pt x="413" y="253" on="1"/>
        <pt x="119" y="253" on="1"/>
        <pt x="115" y="227" on="0"/>
        <pt x="115" y="151" on="0"/>
        <pt x="134" y="115" on="1"/>
        <pt x="160" y="62" on="0"/>
        <pt x="300" y="62" on="0"/>
        <pt x="366" y="90" on="1"/>
        <pt x="379" y="28" on="1"/>
        <pt x="301" y="-13" on="0"/>
        <pt x="215" y="-13" on="1"/>
        <pt x="103" y="-13" on="0"/>
        <pt x="61" y="64" on="1"/>
        <pt x="32" y="116" on="0"/>
        <pt x="32" y="191" on="1"/>
        <pt x="32" y="347" on="0"/>
        <pt x="125" y="444" on="1"/>
        <pt x="195" y="516" on="0"/>
        <pt x="380" y="516" on="0"/>
        <pt x="417" y="468" on="1"/>
        <pt x="445" y="433" on="0"/>
        <pt x="445" y="328" on="0"/>
      </contour>
      <contour>
        <pt x="360" y="362" on="1"/>
        <pt x="360" y="442" on="0"/>
        <pt x="288" y="442" on="1"/>
        <pt x="221" y="442" on="0"/>
        <pt x="175" y="386" on="1"/>
        <pt x="151" y="356" on="0"/>
        <pt x="139" y="320" on="1"/>
        <pt x="356" y="318" on="1"/>
        <pt x="360" y="351" on="0"/>
      </contour>
    </TTGlyph>
    <TTGlyph name="edieresis" xMin="32" yMin="-13" xMax="458" yMax="707">
      <contour>
        <pt x="222" y="707" on="0"/>
        <pt x="268" y="707" on="0"/>
        <pt x="293" y="679" on="0"/>
        <pt x="293" y="668" on="1"/>
        <pt x="293" y="634" on="0"/>
        <pt x="251" y="596" on="0"/>
        <pt x="205" y="596" on="0"/>
        <pt x="181" y="626" on="0"/>
        <pt x="181" y="637" on="1"/>
        <pt x="181" y="672" on="0"/>
      </contour>
      <contour>
        <pt x="388" y="707" on="0"/>
        <pt x="433" y="707" on="0"/>
        <pt x="458" y="679" on="0"/>
        <pt x="458" y="668" on="1"/>
        <pt x="458" y="634" on="0"/>
        <pt x="416" y="596" on="0"/>
        <pt x="370" y="596" on="0"/>
        <pt x="346" y="626" on="0"/>
        <pt x="346" y="637" on="1"/>
        <pt x="346" y="672" on="0"/>
      </contour>
      <contour>
        <pt x="417" y="468" on="1"/>
        <pt x="445" y="433" on="0"/>
        <pt x="445" y="328" on="0"/>
        <pt x="413" y="253" on="1"/>
        <pt x="119" y="253" on="1"/>
        <pt x="115" y="227" on="0"/>
        <pt x="115" y="151" on="0"/>
        <pt x="134" y="115" on="1"/>
        <pt x="160" y="62" on="0"/>
        <pt x="300" y="62" on="0"/>
        <pt x="366" y="90" on="1"/>
        <pt x="379" y="28" on="1"/>
        <pt x="301" y="-13" on="0"/>
        <pt x="215" y="-13" on="1"/>
        <pt x="103" y="-13" on="0"/>
        <pt x="61" y="64" on="1"/>
        <pt x="32" y="116" on="0"/>
        <pt x="32" y="191" on="1"/>
        <pt x="32" y="347" on="0"/>
        <pt x="125" y="444" on="1"/>
        <pt x="195" y="516" on="0"/>
        <pt x="380" y="516" on="0"/>
      </contour>
      <contour>
        <pt x="356" y="318" on="1"/>
        <pt x="360" y="351" on="0"/>
        <pt x="360" y="362" on="1"/>
        <pt x="360" y="442" on="0"/>
        <pt x="288" y="442" on="1"/>
        <pt x="221" y="442" on="0"/>
        <pt x="182" y="394" on="1"/>
        <pt x="151" y="356" on="0"/>
        <pt x="139" y="320" on="1"/>
      </contour>
    </TTGlyph>
    <TTGlyph name="egrave" xMin="32" yMin="-13" xMax="445" yMax="754">
      <contour>
        <pt x="417" y="468" on="1"/>
        <pt x="445" y="433" on="0"/>
        <pt x="445" y="328" on="0"/>
        <pt x="413" y="253" on="1"/>
        <pt x="119" y="253" on="1"/>
        <pt x="115" y="227" on="0"/>
        <pt x="115" y="151" on="0"/>
        <pt x="134" y="115" on="1"/>
        <pt x="160" y="62" on="0"/>
        <pt x="300" y="62" on="0"/>
        <pt x="366" y="90" on="1"/>
        <pt x="379" y="28" on="1"/>
        <pt x="301" y="-13" on="0"/>
        <pt x="215" y="-13" on="1"/>
        <pt x="103" y="-13" on="0"/>
        <pt x="61" y="64" on="1"/>
        <pt x="32" y="116" on="0"/>
        <pt x="32" y="191" on="1"/>
        <pt x="32" y="347" on="0"/>
        <pt x="125" y="444" on="1"/>
        <pt x="195" y="516" on="0"/>
        <pt x="380" y="516" on="0"/>
      </contour>
      <contour>
        <pt x="356" y="318" on="1"/>
        <pt x="360" y="351" on="0"/>
        <pt x="360" y="362" on="1"/>
        <pt x="360" y="442" on="0"/>
        <pt x="288" y="442" on="1"/>
        <pt x="221" y="442" on="0"/>
        <pt x="182" y="394" on="1"/>
        <pt x="151" y="356" on="0"/>
        <pt x="139" y="320" on="1"/>
      </contour>
      <contour>
        <pt x="388" y="577" on="1"/>
        <pt x="232" y="681" on="1"/>
        <pt x="292" y="754" on="1"/>
        <pt x="433" y="632" on="1"/>
      </contour>
    </TTGlyph>
    <TTGlyph name="eight" xMin="22" yMin="-13" xMax="472" yMax="680">
      <contour>
        <pt x="343" y="357" on="1"/>
        <pt x="444" y="307" on="0"/>
        <pt x="444" y="217" on="1"/>
        <pt x="444" y="115" on="0"/>
        <pt x="366" y="44" on="1"/>
        <pt x="305" y="-13" on="0"/>
        <pt x="104" y="-13" on="0"/>
        <pt x="58" y="38" on="1"/>
        <pt x="22" y="77" on="0"/>
        <pt x="22" y="136" on="1"/>
        <pt x="22" y="218" on="0"/>
        <pt x="74" y="280" on="1"/>
        <pt x="113" y="328" on="0"/>
        <pt x="169" y="356" on="1"/>
        <pt x="107" y="402" on="0"/>
        <pt x="107" y="478" on="1"/>
        <pt x="107" y="495" on="0"/>
        <pt x="110" y="513" on="1"/>
        <pt x="122" y="593" on="0"/>
        <pt x="238" y="680" on="0"/>
        <pt x="397" y="680" on="0"/>
        <pt x="439" y="638" on="1"/>
        <pt x="472" y="606" on="0"/>
        <pt x="472" y="555" on="1"/>
        <pt x="472" y="486" on="0"/>
        <pt x="396" y="384" on="0"/>
      </contour>
      <contour>
        <pt x="117" y="156" on="1"/>
        <pt x="117" y="121" on="0"/>
        <pt x="166" y="72" on="0"/>
        <pt x="271" y="72" on="0"/>
        <pt x="306" y="102" on="1"/>
        <pt x="352" y="142" on="0"/>
        <pt x="352" y="204" on="1"/>
        <pt x="352" y="245" on="0"/>
        <pt x="322" y="270" on="1"/>
        <pt x="291" y="294" on="0"/>
        <pt x="238" y="317" on="1"/>
        <pt x="228" y="320" on="0"/>
        <pt x="226" y="322" on="1"/>
        <pt x="184" y="299" on="0"/>
        <pt x="155" y="261" on="1"/>
        <pt x="117" y="211" on="0"/>
      </contour>
      <contour>
        <pt x="384" y="562" on="0"/>
        <pt x="345" y="597" on="0"/>
        <pt x="266" y="597" on="0"/>
        <pt x="234" y="578" on="1"/>
        <pt x="195" y="555" on="0"/>
        <pt x="195" y="500" on="1"/>
        <pt x="195" y="468" on="0"/>
        <pt x="234" y="404" on="0"/>
        <pt x="274" y="385" on="1"/>
        <pt x="317" y="407" on="0"/>
        <pt x="348" y="446" on="1"/>
        <pt x="384" y="494" on="0"/>
      </contour>
    </TTGlyph>
    <TTGlyph name="ellipsis" xMin="12" yMin="-6" xMax="581" yMax="117">
      <contour>
        <pt x="59" y="117" on="0"/>
        <pt x="109" y="117" on="0"/>
        <pt x="137" y="86" on="0"/>
        <pt x="137" y="74" on="1"/>
        <pt x="137" y="36" on="0"/>
        <pt x="90" y="-6" on="0"/>
        <pt x="40" y="-6" on="0"/>
        <pt x="13" y="26" on="0"/>
        <pt x="13" y="39" on="1"/>
        <pt x="13" y="78" on="0"/>
      </contour>
      <contour>
        <pt x="281" y="117" on="0"/>
        <pt x="331" y="117" on="0"/>
        <pt x="359" y="86" on="0"/>
        <pt x="359" y="74" on="1"/>
        <pt x="359" y="36" on="0"/>
        <pt x="312" y="-6" on="0"/>
        <pt x="262" y="-6" on="0"/>
        <pt x="235" y="26" on="0"/>
        <pt x="235" y="39" on="1"/>
        <pt x="235" y="78" on="0"/>
      </contour>
      <contour>
        <pt x="503" y="117" on="0"/>
        <pt x="553" y="117" on="0"/>
        <pt x="581" y="86" on="0"/>
        <pt x="581" y="74" on="1"/>
        <pt x="581" y="36" on="0"/>
        <pt x="534" y="-6" on="0"/>
        <pt x="484" y="-6" on="0"/>
        <pt x="457" y="26" on="0"/>
        <pt x="457" y="39" on="1"/>
        <pt x="457" y="78" on="0"/>
      </contour>
    </TTGlyph>
    <TTGlyph name="emdash" xMin="55" yMin="239" xMax="778" yMax="318">
      <contour>
        <pt x="778" y="318" on="1"/>
        <pt x="765" y="239" on="1"/>
        <pt x="55" y="239" on="1"/>
        <pt x="68" y="318" on="1"/>
      </contour>
    </TTGlyph>
    <TTGlyph name="endash" xMin="55" yMin="239" xMax="498" yMax="318">
      <contour>
        <pt x="498" y="318" on="1"/>
        <pt x="485" y="239" on="1"/>
        <pt x="55" y="239" on="1"/>
        <pt x="68" y="318" on="1"/>
      </contour>
    </TTGlyph>
    <TTGlyph name="equal" xMin="43" yMin="160" xMax="424" yMax="432">
      <contour>
        <pt x="424" y="432" on="1"/>
        <pt x="411" y="353" on="1"/>
        <pt x="73" y="353" on="1"/>
        <pt x="86" y="432" on="1"/>
      </contour>
      <contour>
        <pt x="394" y="240" on="1"/>
        <pt x="381" y="160" on="1"/>
        <pt x="43" y="160" on="1"/>
        <pt x="56" y="240" on="1"/>
      </contour>
    </TTGlyph>
    <TTGlyph name="eth" xMin="29" yMin="-13" xMax="459" yMax="741">
      <contour>
        <pt x="52" y="339" on="0"/>
        <pt x="166" y="476" on="0"/>
        <pt x="329" y="476" on="0"/>
        <pt x="367" y="443" on="1"/>
        <pt x="354" y="540" on="0"/>
        <pt x="301" y="583" on="1"/>
        <pt x="214" y="517" on="1"/>
        <pt x="174" y="573" on="1"/>
        <pt x="237" y="620" on="1"/>
        <pt x="186" y="645" on="0"/>
        <pt x="116" y="653" on="1"/>
        <pt x="141" y="720" on="1"/>
        <pt x="247" y="717" on="0"/>
        <pt x="318" y="681" on="1"/>
        <pt x="399" y="741" on="1"/>
        <pt x="436" y="685" on="1"/>
        <pt x="376" y="640" on="1"/>
        <pt x="458" y="559" on="0"/>
        <pt x="458" y="404" on="1"/>
        <pt x="458" y="350" on="0"/>
        <pt x="448" y="286" on="1"/>
        <pt x="401" y="-13" on="0"/>
        <pt x="199" y="-13" on="1"/>
        <pt x="102" y="-13" on="0"/>
        <pt x="60" y="56" on="1"/>
        <pt x="30" y="105" on="0"/>
        <pt x="30" y="171" on="1"/>
        <pt x="30" y="196" on="0"/>
        <pt x="34" y="223" on="1"/>
      </contour>
      <contour>
        <pt x="123" y="221" on="1"/>
        <pt x="119" y="197" on="0"/>
        <pt x="119" y="136" on="0"/>
        <pt x="134" y="107" on="1"/>
        <pt x="156" y="63" on="0"/>
        <pt x="264" y="63" on="0"/>
        <pt x="339" y="169" on="0"/>
        <pt x="361" y="306" on="1"/>
        <pt x="366" y="333" on="0"/>
        <pt x="368" y="355" on="1"/>
        <pt x="316" y="403" on="0"/>
        <pt x="259" y="403" on="1"/>
        <pt x="151" y="403" on="0"/>
      </contour>
    </TTGlyph>
    <TTGlyph name="exclam" xMin="18" yMin="-6" xMax="231" yMax="700">
      <contour>
        <pt x="231" y="700" on="1"/>
        <pt x="138" y="184" on="1"/>
        <pt x="62" y="184" on="1"/>
        <pt x="133" y="700" on="1"/>
      </contour>
      <contour>
        <pt x="65" y="117" on="0"/>
        <pt x="115" y="117" on="0"/>
        <pt x="143" y="86" on="0"/>
        <pt x="143" y="74" on="1"/>
        <pt x="143" y="36" on="0"/>
        <pt x="96" y="-6" on="0"/>
        <pt x="46" y="-6" on="0"/>
        <pt x="19" y="26" on="0"/>
        <pt x="19" y="39" on="1"/>
        <pt x="19" y="78" on="0"/>
      </contour>
    </TTGlyph>
    <TTGlyph name="exclamdown" xMin="-9" yMin="-178" xMax="205" yMax="528">
      <contour>
        <pt x="159" y="338" on="1"/>
        <pt x="89" y="-178" on="1"/>
        <pt x="-9" y="-178" on="1"/>
        <pt x="83" y="338" on="1"/>
      </contour>
      <contour>
        <pt x="158" y="405" on="0"/>
        <pt x="108" y="405" on="0"/>
        <pt x="80" y="436" on="0"/>
        <pt x="80" y="448" on="1"/>
        <pt x="80" y="486" on="0"/>
        <pt x="127" y="528" on="0"/>
        <pt x="177" y="528" on="0"/>
        <pt x="204" y="496" on="0"/>
        <pt x="204" y="483" on="1"/>
        <pt x="204" y="444" on="0"/>
      </contour>
    </TTGlyph>
    <TTGlyph name="f" xMin="38" yMin="-186" xMax="483" yMax="722">
      <contour>
        <pt x="366" y="722" on="1"/>
        <pt x="423" y="722" on="0"/>
        <pt x="483" y="704" on="1"/>
        <pt x="452" y="633" on="1"/>
        <pt x="413" y="643" on="0"/>
        <pt x="295" y="643" on="0"/>
        <pt x="252" y="601" on="0"/>
        <pt x="244" y="546" on="1"/>
        <pt x="238" y="506" on="1"/>
        <pt x="375" y="506" on="1"/>
        <pt x="353" y="435" on="1"/>
        <pt x="226" y="435" on="1"/>
        <pt x="128" y="-186" on="1"/>
        <pt x="38" y="-177" on="1"/>
        <pt x="135" y="435" on="1"/>
        <pt x="43" y="440" on="1"/>
        <pt x="62" y="499" on="1"/>
        <pt x="147" y="506" on="1"/>
        <pt x="153" y="543" on="1"/>
        <pt x="168" y="638" on="0"/>
        <pt x="263" y="722" on="0"/>
      </contour>
    </TTGlyph>
    <TTGlyph name="fi" xMin="38" yMin="-186" xMax="534" yMax="722">
      <contour>
        <pt x="367" y="722" on="1"/>
        <pt x="438" y="722" on="0"/>
        <pt x="503" y="706" on="1"/>
        <pt x="474" y="632" on="1"/>
        <pt x="405" y="643" on="0"/>
        <pt x="308" y="643" on="0"/>
        <pt x="253" y="600" on="0"/>
        <pt x="244" y="546" on="1"/>
        <pt x="238" y="506" on="1"/>
        <pt x="442" y="506" on="1"/>
        <pt x="534" y="513" on="1"/>
        <pt x="453" y="0" on="1"/>
        <pt x="362" y="0" on="1"/>
        <pt x="430" y="435" on="1"/>
        <pt x="226" y="435" on="1"/>
        <pt x="128" y="-186" on="1"/>
        <pt x="38" y="-177" on="1"/>
        <pt x="135" y="435" on="1"/>
        <pt x="43" y="440" on="1"/>
        <pt x="62" y="499" on="1"/>
        <pt x="147" y="506" on="1"/>
        <pt x="153" y="543" on="1"/>
        <pt x="180" y="722" on="0"/>
      </contour>
    </TTGlyph>
    <TTGlyph name="five" xMin="-3" yMin="-13" xMax="459" yMax="668">
      <contour>
        <pt x="182" y="72" on="1"/>
        <pt x="241" y="72" on="0"/>
        <pt x="315" y="153" on="0"/>
        <pt x="325" y="220" on="1"/>
        <pt x="328" y="241" on="0"/>
        <pt x="328" y="294" on="0"/>
        <pt x="316" y="320" on="1"/>
        <pt x="296" y="358" on="0"/>
        <pt x="182" y="358" on="0"/>
        <pt x="131" y="311" on="1"/>
        <pt x="78" y="341" on="1"/>
        <pt x="129" y="668" on="1"/>
        <pt x="459" y="668" on="1"/>
        <pt x="446" y="587" on="1"/>
        <pt x="200" y="587" on="1"/>
        <pt x="173" y="414" on="1"/>
        <pt x="217" y="440" on="0"/>
        <pt x="276" y="440" on="1"/>
        <pt x="350" y="440" on="0"/>
        <pt x="392" y="382" on="1"/>
        <pt x="422" y="341" on="0"/>
        <pt x="422" y="276" on="1"/>
        <pt x="422" y="252" on="0"/>
        <pt x="418" y="224" on="1"/>
        <pt x="402" y="121" on="0"/>
        <pt x="276" y="-13" on="0"/>
        <pt x="75" y="-13" on="0"/>
        <pt x="-3" y="40" on="1"/>
        <pt x="38" y="113" on="1"/>
        <pt x="66" y="97" on="0"/>
        <pt x="152" y="72" on="0"/>
      </contour>
    </TTGlyph>
    <TTGlyph name="fl" xMin="38" yMin="-186" xMax="576" yMax="722">
      <contour>
        <pt x="367" y="722" on="1"/>
        <pt x="468" y="722" on="0"/>
        <pt x="573" y="682" on="1"/>
        <pt x="481" y="102" on="1"/>
        <pt x="480" y="96" on="0"/>
        <pt x="480" y="90" on="1"/>
        <pt x="480" y="63" on="0"/>
        <pt x="538" y="63" on="0"/>
        <pt x="571" y="73" on="1"/>
        <pt x="576" y="7" on="1"/>
        <pt x="531" y="-13" on="0"/>
        <pt x="471" y="-13" on="1"/>
        <pt x="387" y="-13" on="0"/>
        <pt x="387" y="71" on="1"/>
        <pt x="387" y="85" on="0"/>
        <pt x="389" y="101" on="1"/>
        <pt x="473" y="627" on="1"/>
        <pt x="410" y="643" on="0"/>
        <pt x="308" y="643" on="0"/>
        <pt x="253" y="600" on="0"/>
        <pt x="244" y="546" on="1"/>
        <pt x="238" y="506" on="1"/>
        <pt x="375" y="506" on="1"/>
        <pt x="353" y="435" on="1"/>
        <pt x="226" y="435" on="1"/>
        <pt x="128" y="-186" on="1"/>
        <pt x="38" y="-177" on="1"/>
        <pt x="135" y="435" on="1"/>
        <pt x="43" y="440" on="1"/>
        <pt x="62" y="499" on="1"/>
        <pt x="147" y="506" on="1"/>
        <pt x="153" y="543" on="1"/>
        <pt x="180" y="722" on="0"/>
      </contour>
    </TTGlyph>
    <TTGlyph name="florin" xMin="-60" yMin="-237" xMax="562" yMax="722">
      <contour>
        <pt x="52" y="-237" on="1"/>
        <pt x="0" y="-237" on="0"/>
        <pt x="-60" y="-219" on="1"/>
        <pt x="-29" y="-148" on="1"/>
        <pt x="10" y="-158" on="0"/>
        <pt x="107" y="-158" on="0"/>
        <pt x="148" y="-115" on="0"/>
        <pt x="157" y="-61" on="1"/>
        <pt x="235" y="432" on="1"/>
        <pt x="142" y="432" on="1"/>
        <pt x="163" y="506" on="1"/>
        <pt x="247" y="506" on="1"/>
        <pt x="253" y="543" on="1"/>
        <pt x="267" y="637" on="0"/>
        <pt x="359" y="722" on="0"/>
        <pt x="449" y="722" on="1"/>
        <pt x="502" y="722" on="0"/>
        <pt x="562" y="704" on="1"/>
        <pt x="531" y="633" on="1"/>
        <pt x="492" y="643" on="0"/>
        <pt x="392" y="643" on="0"/>
        <pt x="352" y="600" on="0"/>
        <pt x="344" y="546" on="1"/>
        <pt x="338" y="506" on="1"/>
        <pt x="475" y="506" on="1"/>
        <pt x="453" y="432" on="1"/>
        <pt x="326" y="432" on="1"/>
        <pt x="248" y="-58" on="1"/>
        <pt x="234" y="-152" on="0"/>
        <pt x="142" y="-237" on="0"/>
      </contour>
    </TTGlyph>
    <TTGlyph name="four" xMin="8" yMin="0" xMax="508" yMax="660">
      <contour>
        <pt x="498" y="190" on="1"/>
        <pt x="385" y="190" on="1"/>
        <pt x="355" y="0" on="1"/>
        <pt x="266" y="0" on="1"/>
        <pt x="296" y="190" on="1"/>
        <pt x="8" y="190" on="1"/>
        <pt x="17" y="248" on="1"/>
        <pt x="357" y="660" on="1"/>
        <pt x="459" y="660" on="1"/>
        <pt x="395" y="256" on="1"/>
        <pt x="508" y="256" on="1"/>
      </contour>
      <contour>
        <pt x="306" y="256" on="1"/>
        <pt x="349" y="530" on="1"/>
        <pt x="122" y="256" on="1"/>
      </contour>
    </TTGlyph>
    <TTGlyph name="fraction" xMin="-47" yMin="-64" xMax="460" yMax="710">
      <contour>
        <pt x="460" y="684" on="1"/>
        <pt x="24" y="-64" on="1"/>
        <pt x="-47" y="-38" on="1"/>
        <pt x="391" y="710" on="1"/>
      </contour>
    </TTGlyph>
    <TTGlyph name="g" xMin="-37" yMin="-236" xMax="504" yMax="525">
      <contour>
        <pt x="261" y="516" on="1"/>
        <pt x="344" y="511" on="1"/>
        <pt x="419" y="511" on="0"/>
        <pt x="502" y="525" on="1"/>
        <pt x="504" y="469" on="1"/>
        <pt x="462" y="461" on="0"/>
        <pt x="396" y="452" on="1"/>
        <pt x="418" y="418" on="0"/>
        <pt x="418" y="372" on="1"/>
        <pt x="418" y="354" on="0"/>
        <pt x="415" y="334" on="1"/>
        <pt x="402" y="254" on="0"/>
        <pt x="295" y="153" on="0"/>
        <pt x="208" y="152" on="1"/>
        <pt x="182" y="152" on="0"/>
        <pt x="157" y="157" on="1"/>
        <pt x="137" y="122" on="0"/>
        <pt x="132" y="99" on="1"/>
        <pt x="130" y="81" on="0"/>
        <pt x="152" y="65" on="0"/>
        <pt x="180" y="65" on="1"/>
        <pt x="272" y="65" on="1"/>
        <pt x="344" y="65" on="0"/>
        <pt x="406" y="7" on="0"/>
        <pt x="406" y="-33" on="1"/>
        <pt x="406" y="-44" on="0"/>
        <pt x="404" y="-57" on="1"/>
        <pt x="392" y="-137" on="0"/>
        <pt x="247" y="-236" on="0"/>
        <pt x="48" y="-236" on="0"/>
        <pt x="-37" y="-174" on="0"/>
        <pt x="-37" y="-127" on="1"/>
        <pt x="-37" y="-35" on="0"/>
        <pt x="77" y="20" on="1"/>
        <pt x="58" y="37" on="0"/>
        <pt x="58" y="65" on="1"/>
        <pt x="58" y="115" on="0"/>
        <pt x="114" y="173" on="1"/>
        <pt x="51" y="211" on="0"/>
        <pt x="51" y="298" on="1"/>
        <pt x="51" y="316" on="0"/>
        <pt x="54" y="334" on="1"/>
        <pt x="68" y="415" on="0"/>
        <pt x="173" y="516" on="0"/>
      </contour>
      <contour>
        <pt x="253" y="447" on="1"/>
        <pt x="156" y="447" on="0"/>
        <pt x="138" y="335" on="1"/>
        <pt x="135" y="317" on="0"/>
        <pt x="135" y="302" on="1"/>
        <pt x="135" y="223" on="0"/>
        <pt x="218" y="223" on="1"/>
        <pt x="315" y="223" on="0"/>
        <pt x="332" y="334" on="1"/>
        <pt x="335" y="353" on="0"/>
        <pt x="335" y="401" on="0"/>
        <pt x="323" y="420" on="1"/>
        <pt x="305" y="447" on="0"/>
      </contour>
      <contour>
        <pt x="240" y="-13" on="1"/>
        <pt x="117" y="-13" on="1"/>
        <pt x="58" y="-37" on="0"/>
        <pt x="49" y="-94" on="1"/>
        <pt x="48" y="-100" on="0"/>
        <pt x="48" y="-105" on="1"/>
        <pt x="48" y="-132" on="0"/>
        <pt x="106" y="-164" on="0"/>
        <pt x="231" y="-164" on="0"/>
        <pt x="313" y="-111" on="0"/>
        <pt x="320" y="-65" on="1"/>
        <pt x="321" y="-59" on="0"/>
        <pt x="321" y="-54" on="1"/>
        <pt x="321" y="-35" on="0"/>
        <pt x="290" y="-13" on="0"/>
      </contour>
    </TTGlyph>
    <TTGlyph name="germandbls" xMin="-1" yMin="-136" xMax="528" yMax="710">
      <contour>
        <pt x="409" y="574" on="1"/>
        <pt x="409" y="634" on="0"/>
        <pt x="332" y="634" on="1"/>
        <pt x="270" y="634" on="0"/>
        <pt x="202" y="569" on="0"/>
        <pt x="191" y="500" on="1"/>
        <pt x="90" y="-136" on="1"/>
        <pt x="-1" y="-135" on="1"/>
        <pt x="100" y="502" on="1"/>
        <pt x="117" y="607" on="0"/>
        <pt x="247" y="710" on="0"/>
        <pt x="432" y="710" on="0"/>
        <pt x="470" y="668" on="1"/>
        <pt x="500" y="634" on="0"/>
        <pt x="500" y="587" on="1"/>
        <pt x="500" y="535" on="0"/>
        <pt x="447" y="467" on="0"/>
        <pt x="423" y="450" on="1"/>
        <pt x="358" y="404" on="0"/>
        <pt x="353" y="373" on="1"/>
        <pt x="352" y="366" on="0"/>
        <pt x="352" y="345" on="0"/>
        <pt x="368" y="315" on="0"/>
        <pt x="389" y="301" on="0"/>
        <pt x="412" y="289" on="1"/>
        <pt x="442" y="276" on="0"/>
        <pt x="475" y="257" on="0"/>
        <pt x="496" y="238" on="1"/>
        <pt x="527" y="210" on="0"/>
        <pt x="527" y="162" on="1"/>
        <pt x="527" y="150" on="0"/>
        <pt x="525" y="136" on="1"/>
        <pt x="514" y="67" on="0"/>
        <pt x="411" y="-13" on="0"/>
        <pt x="334" y="-13" on="1"/>
        <pt x="294" y="-13" on="0"/>
        <pt x="199" y="14" on="0"/>
        <pt x="180" y="31" on="1"/>
        <pt x="214" y="98" on="1"/>
        <pt x="284" y="61" on="0"/>
        <pt x="426" y="61" on="0"/>
        <pt x="437" y="131" on="1"/>
        <pt x="443" y="162" on="0"/>
        <pt x="417" y="184" on="1"/>
        <pt x="397" y="201" on="0"/>
        <pt x="334" y="234" on="0"/>
        <pt x="307" y="251" on="0"/>
        <pt x="288" y="269" on="1"/>
        <pt x="262" y="295" on="0"/>
        <pt x="262" y="337" on="1"/>
        <pt x="262" y="389" on="0"/>
        <pt x="314" y="456" on="0"/>
        <pt x="338" y="472" on="1"/>
        <pt x="409" y="518" on="0"/>
      </contour>
    </TTGlyph>
    <TTGlyph name="grave" xMin="189" yMin="577" xMax="390" yMax="754">
      <contour>
        <pt x="345" y="577" on="1"/>
        <pt x="189" y="681" on="1"/>
        <pt x="249" y="754" on="1"/>
        <pt x="390" y="632" on="1"/>
      </contour>
    </TTGlyph>
    <TTGlyph name="greater" xMin="28" yMin="105" xMax="407" yMax="516">
      <contour>
        <pt x="407" y="345" on="1"/>
        <pt x="396" y="275" on="1"/>
        <pt x="28" y="105" on="1"/>
        <pt x="41" y="189" on="1"/>
        <pt x="301" y="311" on="1"/>
        <pt x="80" y="431" on="1"/>
        <pt x="93" y="516" on="1"/>
      </contour>
    </TTGlyph>
    <TTGlyph name="guillemotleft" xMin="44" yMin="104" xMax="512" yMax="512">
      <contour>
        <pt x="512" y="462" on="1"/>
        <pt x="339" y="308" on="1"/>
        <pt x="463" y="155" on="1"/>
        <pt x="397" y="104" on="1"/>
        <pt x="254" y="284" on="1"/>
        <pt x="262" y="332" on="1"/>
        <pt x="462" y="512" on="1"/>
      </contour>
      <contour>
        <pt x="302" y="462" on="1"/>
        <pt x="128" y="308" on="1"/>
        <pt x="253" y="155" on="1"/>
        <pt x="187" y="104" on="1"/>
        <pt x="44" y="284" on="1"/>
        <pt x="52" y="332" on="1"/>
        <pt x="252" y="512" on="1"/>
      </contour>
    </TTGlyph>
    <TTGlyph name="guillemotright" xMin="22" yMin="104" xMax="489" yMax="512">
      <contour>
        <pt x="194" y="308" on="1"/>
        <pt x="71" y="462" on="1"/>
        <pt x="137" y="512" on="1"/>
        <pt x="279" y="332" on="1"/>
        <pt x="271" y="284" on="1"/>
        <pt x="72" y="104" on="1"/>
        <pt x="22" y="155" on="1"/>
      </contour>
      <contour>
        <pt x="405" y="308" on="1"/>
        <pt x="281" y="462" on="1"/>
        <pt x="347" y="512" on="1"/>
        <pt x="489" y="332" on="1"/>
        <pt x="481" y="284" on="1"/>
        <pt x="282" y="104" on="1"/>
        <pt x="232" y="155" on="1"/>
      </contour>
    </TTGlyph>
    <TTGlyph name="guilsinglleft" xMin="40" yMin="73" xMax="297" yMax="481">
      <contour>
        <pt x="297" y="431" on="1"/>
        <pt x="123" y="277" on="1"/>
        <pt x="248" y="124" on="1"/>
        <pt x="182" y="73" on="1"/>
        <pt x="40" y="253" on="1"/>
        <pt x="47" y="301" on="1"/>
        <pt x="247" y="481" on="1"/>
      </contour>
    </TTGlyph>
    <TTGlyph name="guilsinglright" xMin="22" yMin="104" xMax="279" yMax="512">
      <contour>
        <pt x="194" y="308" on="1"/>
        <pt x="71" y="462" on="1"/>
        <pt x="137" y="512" on="1"/>
        <pt x="279" y="332" on="1"/>
        <pt x="271" y="284" on="1"/>
        <pt x="72" y="104" on="1"/>
        <pt x="22" y="155" on="1"/>
      </contour>
    </TTGlyph>
    <TTGlyph name="h" xMin="21" yMin="0" xMax="465" yMax="707">
      <contour>
        <pt x="374" y="379" on="1"/>
        <pt x="374" y="440" on="0"/>
        <pt x="326" y="440" on="1"/>
        <pt x="288" y="440" on="0"/>
        <pt x="200" y="402" on="0"/>
        <pt x="171" y="373" on="1"/>
        <pt x="112" y="0" on="1"/>
        <pt x="21" y="0" on="1"/>
        <pt x="131" y="699" on="1"/>
        <pt x="223" y="707" on="1"/>
        <pt x="182" y="448" on="1"/>
        <pt x="216" y="475" on="0"/>
        <pt x="311" y="516" on="0"/>
        <pt x="353" y="516" on="1"/>
        <pt x="428" y="516" on="0"/>
        <pt x="450" y="471" on="1"/>
        <pt x="465" y="442" on="0"/>
        <pt x="465" y="376" on="0"/>
        <pt x="460" y="347" on="1"/>
        <pt x="406" y="0" on="1"/>
        <pt x="316" y="0" on="1"/>
        <pt x="370" y="342" on="1"/>
        <pt x="374" y="362" on="0"/>
      </contour>
    </TTGlyph>
    <TTGlyph name="hungarumlaut" xMin="157" yMin="522" xMax="541" yMax="726">
      <contour>
        <pt x="363" y="666" on="1"/>
        <pt x="197" y="526" on="1"/>
        <pt x="157" y="571" on="1"/>
        <pt x="309" y="726" on="1"/>
      </contour>
      <contour>
        <pt x="541" y="662" on="1"/>
        <pt x="375" y="522" on="1"/>
        <pt x="335" y="567" on="1"/>
        <pt x="488" y="723" on="1"/>
      </contour>
    </TTGlyph>
    <TTGlyph name="hyphen" xMin="55" yMin="239" xMax="451" yMax="318">
      <contour>
        <pt x="451" y="318" on="1"/>
        <pt x="438" y="239" on="1"/>
        <pt x="55" y="239" on="1"/>
        <pt x="68" y="318" on="1"/>
      </contour>
    </TTGlyph>
    <TTGlyph name="i" xMin="21" yMin="0" xMax="228" yMax="715">
      <contour>
        <pt x="192" y="511" on="1"/>
        <pt x="112" y="0" on="1"/>
        <pt x="21" y="0" on="1"/>
        <pt x="100" y="502" on="1"/>
      </contour>
      <contour>
        <pt x="152" y="715" on="0"/>
        <pt x="202" y="715" on="0"/>
        <pt x="228" y="684" on="0"/>
        <pt x="228" y="672" on="1"/>
        <pt x="228" y="636" on="0"/>
        <pt x="182" y="593" on="0"/>
        <pt x="132" y="593" on="0"/>
        <pt x="105" y="626" on="0"/>
        <pt x="105" y="638" on="1"/>
        <pt x="105" y="676" on="0"/>
      </contour>
    </TTGlyph>
    <TTGlyph name="iacute" xMin="21" yMin="0" xMax="320" yMax="754">
      <contour>
        <pt x="192" y="511" on="1"/>
        <pt x="112" y="0" on="1"/>
        <pt x="21" y="0" on="1"/>
        <pt x="100" y="502" on="1"/>
      </contour>
      <contour>
        <pt x="320" y="681" on="1"/>
        <pt x="132" y="577" on="1"/>
        <pt x="105" y="632" on="1"/>
        <pt x="284" y="754" on="1"/>
      </contour>
    </TTGlyph>
    <TTGlyph name="icircumflex" xMin="21" yMin="0" xMax="302" yMax="727">
      <contour>
        <pt x="112" y="0" on="1"/>
        <pt x="21" y="0" on="1"/>
        <pt x="100" y="502" on="1"/>
        <pt x="192" y="511" on="1"/>
      </contour>
      <contour>
        <pt x="179" y="667" on="1"/>
        <pt x="81" y="581" on="1"/>
        <pt x="38" y="617" on="1"/>
        <pt x="155" y="727" on="1"/>
        <pt x="220" y="727" on="1"/>
        <pt x="302" y="617" on="1"/>
        <pt x="246" y="581" on="1"/>
      </contour>
    </TTGlyph>
    <TTGlyph name="idieresis" xMin="21" yMin="0" xMax="309" yMax="707">
      <contour>
        <pt x="192" y="511" on="1"/>
        <pt x="112" y="0" on="1"/>
        <pt x="21" y="0" on="1"/>
        <pt x="100" y="502" on="1"/>
      </contour>
      <contour>
        <pt x="74" y="707" on="0"/>
        <pt x="119" y="707" on="0"/>
        <pt x="144" y="679" on="0"/>
        <pt x="144" y="668" on="1"/>
        <pt x="144" y="634" on="0"/>
        <pt x="102" y="596" on="0"/>
        <pt x="56" y="596" on="0"/>
        <pt x="32" y="626" on="0"/>
        <pt x="32" y="637" on="1"/>
        <pt x="32" y="672" on="0"/>
      </contour>
      <contour>
        <pt x="238" y="707" on="0"/>
        <pt x="284" y="707" on="0"/>
        <pt x="309" y="679" on="0"/>
        <pt x="309" y="668" on="1"/>
        <pt x="309" y="634" on="0"/>
        <pt x="267" y="596" on="0"/>
        <pt x="221" y="596" on="0"/>
        <pt x="197" y="626" on="0"/>
        <pt x="197" y="637" on="1"/>
        <pt x="197" y="672" on="0"/>
      </contour>
    </TTGlyph>
    <TTGlyph name="igrave" xMin="21" yMin="0" xMax="244" yMax="754">
      <contour>
        <pt x="192" y="511" on="1"/>
        <pt x="112" y="0" on="1"/>
        <pt x="21" y="0" on="1"/>
        <pt x="100" y="502" on="1"/>
      </contour>
      <contour>
        <pt x="199" y="577" on="1"/>
        <pt x="43" y="681" on="1"/>
        <pt x="103" y="754" on="1"/>
        <pt x="244" y="632" on="1"/>
      </contour>
    </TTGlyph>
    <TTGlyph name="j" xMin="-141" yMin="-210" xMax="230" yMax="715">
      <contour>
        <pt x="192" y="511" on="1"/>
        <pt x="119" y="46" on="1"/>
        <pt x="99" y="-77" on="0"/>
        <pt x="-32" y="-200" on="0"/>
        <pt x="-141" y="-210" on="1"/>
        <pt x="-140" y="-138" on="1"/>
        <pt x="-62" y="-126" on="0"/>
        <pt x="15" y="-38" on="0"/>
        <pt x="30" y="56" on="1"/>
        <pt x="101" y="502" on="1"/>
      </contour>
      <contour>
        <pt x="154" y="715" on="0"/>
        <pt x="204" y="715" on="0"/>
        <pt x="230" y="684" on="0"/>
        <pt x="230" y="672" on="1"/>
        <pt x="230" y="636" on="0"/>
        <pt x="184" y="593" on="0"/>
        <pt x="134" y="593" on="0"/>
        <pt x="107" y="626" on="0"/>
        <pt x="107" y="638" on="1"/>
        <pt x="107" y="676" on="0"/>
      </contour>
    </TTGlyph>
    <TTGlyph name="k" xMin="21" yMin="0" xMax="493" yMax="708">
      <contour>
        <pt x="224" y="708" on="1"/>
        <pt x="156" y="281" on="1"/>
        <pt x="381" y="502" on="1"/>
        <pt x="493" y="502" on="1"/>
        <pt x="252" y="279" on="1"/>
        <pt x="282" y="233" on="0"/>
        <pt x="415" y="39" on="0"/>
        <pt x="441" y="0" on="1"/>
        <pt x="331" y="0" on="1"/>
        <pt x="155" y="272" on="1"/>
        <pt x="112" y="0" on="1"/>
        <pt x="21" y="0" on="1"/>
        <pt x="131" y="700" on="1"/>
      </contour>
    </TTGlyph>
    <TTGlyph name="l" xMin="36" yMin="-13" xMax="226" yMax="700">
      <contour>
        <pt x="130" y="90" on="1"/>
        <pt x="130" y="63" on="0"/>
        <pt x="188" y="63" on="0"/>
        <pt x="221" y="73" on="1"/>
        <pt x="226" y="7" on="1"/>
        <pt x="181" y="-13" on="0"/>
        <pt x="121" y="-13" on="1"/>
        <pt x="37" y="-13" on="0"/>
        <pt x="37" y="71" on="1"/>
        <pt x="37" y="85" on="0"/>
        <pt x="39" y="101" on="1"/>
        <pt x="134" y="700" on="1"/>
        <pt x="225" y="700" on="1"/>
        <pt x="131" y="102" on="1"/>
        <pt x="130" y="96" on="0"/>
      </contour>
    </TTGlyph>
    <TTGlyph name="less" xMin="32" yMin="105" xMax="411" yMax="516">
      <contour>
        <pt x="32" y="275" on="1"/>
        <pt x="43" y="345" on="1"/>
        <pt x="411" y="516" on="1"/>
        <pt x="398" y="431" on="1"/>
        <pt x="139" y="311" on="1"/>
        <pt x="359" y="189" on="1"/>
        <pt x="346" y="105" on="1"/>
      </contour>
    </TTGlyph>
    <TTGlyph name="logicalnot" xMin="61" yMin="236" xMax="462" yMax="432">
      <contour>
        <pt x="74" y="432" on="1"/>
        <pt x="462" y="432" on="1"/>
        <pt x="431" y="236" on="1"/>
        <pt x="352" y="236" on="1"/>
        <pt x="370" y="353" on="1"/>
        <pt x="61" y="353" on="1"/>
      </contour>
    </TTGlyph>
    <TTGlyph name="lslash" xMin="32" yMin="-13" xMax="430" yMax="700">
      <contour>
        <pt x="176" y="90" on="1"/>
        <pt x="176" y="63" on="0"/>
        <pt x="234" y="63" on="0"/>
        <pt x="267" y="73" on="1"/>
        <pt x="272" y="7" on="1"/>
        <pt x="227" y="-13" on="0"/>
        <pt x="167" y="-13" on="1"/>
        <pt x="83" y="-13" on="0"/>
        <pt x="83" y="71" on="1"/>
        <pt x="83" y="85" on="0"/>
        <pt x="85" y="101" on="1"/>
        <pt x="119" y="315" on="1"/>
        <pt x="32" y="315" on="1"/>
        <pt x="45" y="394" on="1"/>
        <pt x="132" y="394" on="1"/>
        <pt x="180" y="700" on="1"/>
        <pt x="271" y="700" on="1"/>
        <pt x="223" y="394" on="1"/>
        <pt x="430" y="394" on="1"/>
        <pt x="417" y="315" on="1"/>
        <pt x="210" y="315" on="1"/>
        <pt x="177" y="102" on="1"/>
        <pt x="176" y="96" on="0"/>
      </contour>
    </TTGlyph>
    <TTGlyph name="m" xMin="21" yMin="0" xMax="748" yMax="516">
      <contour>
        <pt x="658" y="379" on="1"/>
        <pt x="658" y="440" on="0"/>
        <pt x="609" y="440" on="1"/>
        <pt x="574" y="440" on="0"/>
        <pt x="491" y="402" on="0"/>
        <pt x="459" y="377" on="1"/>
        <pt x="459" y="360" on="0"/>
        <pt x="456" y="343" on="1"/>
        <pt x="402" y="0" on="1"/>
        <pt x="312" y="0" on="1"/>
        <pt x="366" y="342" on="1"/>
        <pt x="370" y="362" on="0"/>
        <pt x="370" y="379" on="1"/>
        <pt x="370" y="440" on="0"/>
        <pt x="322" y="440" on="1"/>
        <pt x="284" y="440" on="0"/>
        <pt x="199" y="402" on="0"/>
        <pt x="170" y="373" on="1"/>
        <pt x="111" y="0" on="1"/>
        <pt x="21" y="0" on="1"/>
        <pt x="101" y="506" on="1"/>
        <pt x="176" y="506" on="1"/>
        <pt x="176" y="445" on="1"/>
        <pt x="209" y="472" on="0"/>
        <pt x="306" y="516" on="0"/>
        <pt x="349" y="516" on="1"/>
        <pt x="441" y="516" on="0"/>
        <pt x="457" y="442" on="1"/>
        <pt x="491" y="470" on="0"/>
        <pt x="594" y="516" on="0"/>
        <pt x="636" y="516" on="1"/>
        <pt x="748" y="516" on="0"/>
        <pt x="748" y="399" on="1"/>
        <pt x="748" y="375" on="0"/>
        <pt x="743" y="347" on="1"/>
        <pt x="689" y="0" on="1"/>
        <pt x="599" y="0" on="1"/>
        <pt x="653" y="342" on="1"/>
        <pt x="658" y="362" on="0"/>
      </contour>
    </TTGlyph>
    <TTGlyph name="macron" xMin="156" yMin="591" xMax="620" yMax="670">
      <contour>
        <pt x="620" y="670" on="1"/>
        <pt x="607" y="591" on="1"/>
        <pt x="156" y="591" on="1"/>
        <pt x="169" y="670" on="1"/>
      </contour>
    </TTGlyph>
    <TTGlyph name="minus" xMin="56" yMin="249" xMax="444" yMax="310">
      <contour>
        <pt x="444" y="310" on="1"/>
        <pt x="434" y="249" on="1"/>
        <pt x="56" y="249" on="1"/>
        <pt x="66" y="310" on="1"/>
      </contour>
    </TTGlyph>
    <TTGlyph name="mu" xMin="-8" yMin="-207" xMax="493" yMax="508">
      <contour>
        <pt x="140" y="161" on="1"/>
        <pt x="136" y="139" on="0"/>
        <pt x="136" y="101" on="0"/>
        <pt x="142" y="88" on="1"/>
        <pt x="151" y="64" on="0"/>
        <pt x="195" y="64" on="1"/>
        <pt x="278" y="64" on="0"/>
        <pt x="336" y="111" on="1"/>
        <pt x="399" y="506" on="1"/>
        <pt x="489" y="506" on="1"/>
        <pt x="423" y="90" on="1"/>
        <pt x="421" y="82" on="0"/>
        <pt x="421" y="76" on="1"/>
        <pt x="421" y="55" on="0"/>
        <pt x="441" y="55" on="1"/>
        <pt x="457" y="55" on="0"/>
        <pt x="487" y="64" on="1"/>
        <pt x="493" y="8" on="1"/>
        <pt x="455" y="-14" on="0"/>
        <pt x="407" y="-14" on="1"/>
        <pt x="342" y="-14" on="0"/>
        <pt x="333" y="49" on="1"/>
        <pt x="301" y="23" on="0"/>
        <pt x="211" y="-13" on="0"/>
        <pt x="135" y="-13" on="0"/>
        <pt x="114" y="-3" on="1"/>
        <pt x="82" y="-207" on="1"/>
        <pt x="-8" y="-207" on="1"/>
        <pt x="104" y="499" on="1"/>
        <pt x="195" y="508" on="1"/>
      </contour>
    </TTGlyph>
    <TTGlyph name="multiply" xMin="23" yMin="95" xMax="485" yMax="506">
      <contour>
        <pt x="439" y="153" on="1"/>
        <pt x="374" y="97" on="1"/>
        <pt x="246" y="246" on="1"/>
        <pt x="72" y="95" on="1"/>
        <pt x="23" y="151" on="1"/>
        <pt x="197" y="301" on="1"/>
        <pt x="72" y="449" on="1"/>
        <pt x="138" y="506" on="1"/>
        <pt x="262" y="358" on="1"/>
        <pt x="435" y="506" on="1"/>
        <pt x="485" y="452" on="1"/>
        <pt x="312" y="303" on="1"/>
      </contour>
    </TTGlyph>
    <TTGlyph name="n" xMin="21" yMin="0" xMax="466" yMax="516">
      <contour>
        <pt x="376" y="379" on="1"/>
        <pt x="376" y="440" on="0"/>
        <pt x="327" y="440" on="1"/>
        <pt x="289" y="440" on="0"/>
        <pt x="198" y="401" on="0"/>
        <pt x="170" y="373" on="1"/>
        <pt x="111" y="0" on="1"/>
        <pt x="21" y="0" on="1"/>
        <pt x="101" y="506" on="1"/>
        <pt x="176" y="506" on="1"/>
        <pt x="176" y="445" on="1"/>
        <pt x="209" y="472" on="0"/>
        <pt x="310" y="516" on="0"/>
        <pt x="354" y="516" on="1"/>
        <pt x="429" y="516" on="0"/>
        <pt x="452" y="471" on="1"/>
        <pt x="466" y="442" on="0"/>
        <pt x="466" y="376" on="0"/>
        <pt x="461" y="347" on="1"/>
        <pt x="407" y="0" on="1"/>
        <pt x="317" y="0" on="1"/>
        <pt x="371" y="342" on="1"/>
        <pt x="376" y="362" on="0"/>
      </contour>
    </TTGlyph>
    <TTGlyph name="nine" xMin="24" yMin="-13" xMax="468" yMax="681">
      <contour>
        <pt x="122" y="-13" on="1"/>
        <pt x="74" y="-13" on="0"/>
        <pt x="24" y="8" on="1"/>
        <pt x="59" y="88" on="1"/>
        <pt x="97" y="72" on="0"/>
        <pt x="132" y="72" on="1"/>
        <pt x="271" y="72" on="0"/>
        <pt x="339" y="263" on="1"/>
        <pt x="269" y="212" on="0"/>
        <pt x="120" y="212" on="0"/>
        <pt x="82" y="266" on="1"/>
        <pt x="57" y="303" on="0"/>
        <pt x="57" y="365" on="1"/>
        <pt x="57" y="395" on="0"/>
        <pt x="63" y="430" on="1"/>
        <pt x="80" y="538" on="0"/>
        <pt x="208" y="681" on="0"/>
        <pt x="304" y="681" on="1"/>
        <pt x="467" y="681" on="0"/>
        <pt x="467" y="481" on="1"/>
        <pt x="467" y="433" on="0"/>
        <pt x="458" y="374" on="1"/>
        <pt x="429" y="192" on="0"/>
        <pt x="244" y="-13" on="0"/>
      </contour>
      <contour>
        <pt x="375" y="479" on="1"/>
        <pt x="375" y="596" on="0"/>
        <pt x="290" y="596" on="1"/>
        <pt x="237" y="596" on="0"/>
        <pt x="167" y="508" on="0"/>
        <pt x="155" y="430" on="1"/>
        <pt x="151" y="401" on="0"/>
        <pt x="151" y="379" on="1"/>
        <pt x="151" y="290" on="0"/>
        <pt x="287" y="290" on="0"/>
        <pt x="359" y="347" on="1"/>
        <pt x="375" y="412" on="0"/>
      </contour>
    </TTGlyph>
    <TTGlyph name="ntilde" xMin="21" yMin="0" xMax="475" yMax="701">
      <contour>
        <pt x="161" y="660" on="0"/>
        <pt x="221" y="701" on="0"/>
        <pt x="269" y="701" on="0"/>
        <pt x="355" y="658" on="0"/>
        <pt x="393" y="658" on="0"/>
        <pt x="437" y="700" on="1"/>
        <pt x="475" y="664" on="1"/>
        <pt x="449" y="630" on="0"/>
        <pt x="383" y="587" on="0"/>
        <pt x="332" y="587" on="0"/>
        <pt x="251" y="630" on="0"/>
        <pt x="214" y="630" on="0"/>
        <pt x="176" y="593" on="1"/>
        <pt x="138" y="630" on="1"/>
      </contour>
      <contour>
        <pt x="376" y="379" on="1"/>
        <pt x="376" y="440" on="0"/>
        <pt x="327" y="440" on="1"/>
        <pt x="289" y="440" on="0"/>
        <pt x="198" y="401" on="0"/>
        <pt x="170" y="373" on="1"/>
        <pt x="111" y="0" on="1"/>
        <pt x="21" y="0" on="1"/>
        <pt x="101" y="506" on="1"/>
        <pt x="176" y="506" on="1"/>
        <pt x="176" y="445" on="1"/>
        <pt x="209" y="472" on="0"/>
        <pt x="310" y="516" on="0"/>
        <pt x="354" y="516" on="1"/>
        <pt x="429" y="516" on="0"/>
        <pt x="452" y="471" on="1"/>
        <pt x="466" y="442" on="0"/>
        <pt x="466" y="376" on="0"/>
        <pt x="461" y="347" on="1"/>
        <pt x="407" y="0" on="1"/>
        <pt x="317" y="0" on="1"/>
        <pt x="371" y="342" on="1"/>
        <pt x="376" y="362" on="0"/>
      </contour>
    </TTGlyph>
    <TTGlyph name="numbersign" xMin="27" yMin="-14" xMax="577" yMax="668">
      <contour>
        <pt x="384" y="190" on="1"/>
        <pt x="313" y="-14" on="1"/>
        <pt x="235" y="-14" on="1"/>
        <pt x="304" y="190" on="1"/>
        <pt x="190" y="190" on="1"/>
        <pt x="120" y="-14" on="1"/>
        <pt x="41" y="-14" on="1"/>
        <pt x="110" y="190" on="1"/>
        <pt x="27" y="190" on="1"/>
        <pt x="39" y="267" on="1"/>
        <pt x="135" y="267" on="1"/>
        <pt x="176" y="389" on="1"/>
        <pt x="62" y="389" on="1"/>
        <pt x="74" y="466" on="1"/>
        <pt x="202" y="466" on="1"/>
        <pt x="270" y="668" on="1"/>
        <pt x="350" y="668" on="1"/>
        <pt x="281" y="466" on="1"/>
        <pt x="396" y="466" on="1"/>
        <pt x="465" y="668" on="1"/>
        <pt x="543" y="668" on="1"/>
        <pt x="475" y="466" on="1"/>
        <pt x="577" y="466" on="1"/>
        <pt x="565" y="389" on="1"/>
        <pt x="450" y="389" on="1"/>
        <pt x="409" y="267" on="1"/>
        <pt x="542" y="267" on="1"/>
        <pt x="530" y="190" on="1"/>
      </contour>
      <contour>
        <pt x="370" y="389" on="1"/>
        <pt x="257" y="389" on="1"/>
        <pt x="216" y="267" on="1"/>
        <pt x="330" y="267" on="1"/>
      </contour>
    </TTGlyph>
    <TTGlyph name="o" xMin="30" yMin="-13" xMax="462" yMax="516">
      <contour>
        <pt x="296" y="-13" on="0"/>
        <pt x="108" y="-13" on="0"/>
        <pt x="62" y="50" on="1"/>
        <pt x="31" y="93" on="0"/>
        <pt x="31" y="170" on="1"/>
        <pt x="31" y="206" on="0"/>
        <pt x="38" y="251" on="1"/>
        <pt x="60" y="388" on="0"/>
        <pt x="197" y="516" on="0"/>
        <pt x="385" y="516" on="0"/>
        <pt x="430" y="453" on="1"/>
        <pt x="461" y="411" on="0"/>
        <pt x="461" y="334" on="1"/>
        <pt x="461" y="297" on="0"/>
        <pt x="454" y="252" on="1"/>
        <pt x="433" y="115" on="0"/>
      </contour>
      <contour>
        <pt x="278" y="442" on="1"/>
        <pt x="160" y="442" on="0"/>
        <pt x="130" y="251" on="1"/>
        <pt x="124" y="212" on="0"/>
        <pt x="124" y="181" on="1"/>
        <pt x="124" y="61" on="0"/>
        <pt x="216" y="61" on="1"/>
        <pt x="264" y="61" on="0"/>
        <pt x="346" y="151" on="0"/>
        <pt x="362" y="251" on="1"/>
        <pt x="369" y="298" on="0"/>
        <pt x="369" y="338" on="1"/>
        <pt x="369" y="442" on="0"/>
      </contour>
    </TTGlyph>
    <TTGlyph name="oacute" xMin="30" yMin="-13" xMax="462" yMax="754">
      <contour>
        <pt x="296" y="-13" on="0"/>
        <pt x="108" y="-13" on="0"/>
        <pt x="62" y="50" on="1"/>
        <pt x="31" y="93" on="0"/>
        <pt x="31" y="170" on="1"/>
        <pt x="31" y="206" on="0"/>
        <pt x="38" y="251" on="1"/>
        <pt x="60" y="388" on="0"/>
        <pt x="197" y="516" on="0"/>
        <pt x="385" y="516" on="0"/>
        <pt x="430" y="453" on="1"/>
        <pt x="461" y="411" on="0"/>
        <pt x="461" y="334" on="1"/>
        <pt x="461" y="297" on="0"/>
        <pt x="454" y="252" on="1"/>
        <pt x="433" y="115" on="0"/>
      </contour>
      <contour>
        <pt x="278" y="442" on="1"/>
        <pt x="160" y="442" on="0"/>
        <pt x="130" y="251" on="1"/>
        <pt x="124" y="212" on="0"/>
        <pt x="124" y="181" on="1"/>
        <pt x="124" y="61" on="0"/>
        <pt x="216" y="61" on="1"/>
        <pt x="264" y="61" on="0"/>
        <pt x="346" y="151" on="0"/>
        <pt x="362" y="251" on="1"/>
        <pt x="369" y="298" on="0"/>
        <pt x="369" y="338" on="1"/>
        <pt x="369" y="442" on="0"/>
      </contour>
      <contour>
        <pt x="424" y="681" on="1"/>
        <pt x="236" y="577" on="1"/>
        <pt x="209" y="632" on="1"/>
        <pt x="388" y="754" on="1"/>
      </contour>
    </TTGlyph>
    <TTGlyph name="ocircumflex" xMin="30" yMin="-13" xMax="462" yMax="727">
      <contour>
        <pt x="296" y="-13" on="0"/>
        <pt x="108" y="-13" on="0"/>
        <pt x="62" y="50" on="1"/>
        <pt x="31" y="93" on="0"/>
        <pt x="31" y="170" on="1"/>
        <pt x="31" y="206" on="0"/>
        <pt x="38" y="251" on="1"/>
        <pt x="60" y="388" on="0"/>
        <pt x="197" y="516" on="0"/>
        <pt x="385" y="516" on="0"/>
        <pt x="430" y="453" on="1"/>
        <pt x="461" y="411" on="0"/>
        <pt x="461" y="334" on="1"/>
        <pt x="461" y="297" on="0"/>
        <pt x="454" y="252" on="1"/>
        <pt x="433" y="115" on="0"/>
      </contour>
      <contour>
        <pt x="278" y="442" on="1"/>
        <pt x="160" y="442" on="0"/>
        <pt x="130" y="251" on="1"/>
        <pt x="124" y="212" on="0"/>
        <pt x="124" y="181" on="1"/>
        <pt x="124" y="61" on="0"/>
        <pt x="216" y="61" on="1"/>
        <pt x="264" y="61" on="0"/>
        <pt x="346" y="151" on="0"/>
        <pt x="362" y="251" on="1"/>
        <pt x="369" y="298" on="0"/>
        <pt x="369" y="378" on="0"/>
        <pt x="356" y="402" on="1"/>
        <pt x="334" y="442" on="0"/>
      </contour>
      <contour>
        <pt x="314" y="667" on="1"/>
        <pt x="216" y="581" on="1"/>
        <pt x="173" y="617" on="1"/>
        <pt x="290" y="727" on="1"/>
        <pt x="355" y="727" on="1"/>
        <pt x="437" y="617" on="1"/>
        <pt x="381" y="581" on="1"/>
      </contour>
    </TTGlyph>
    <TTGlyph name="odieresis" xMin="30" yMin="-13" xMax="462" yMax="707">
      <contour>
        <pt x="296" y="-13" on="0"/>
        <pt x="108" y="-13" on="0"/>
        <pt x="62" y="50" on="1"/>
        <pt x="31" y="93" on="0"/>
        <pt x="31" y="170" on="1"/>
        <pt x="31" y="206" on="0"/>
        <pt x="38" y="251" on="1"/>
        <pt x="60" y="388" on="0"/>
        <pt x="197" y="516" on="0"/>
        <pt x="385" y="516" on="0"/>
        <pt x="430" y="453" on="1"/>
        <pt x="461" y="411" on="0"/>
        <pt x="461" y="334" on="1"/>
        <pt x="461" y="297" on="0"/>
        <pt x="454" y="252" on="1"/>
        <pt x="433" y="115" on="0"/>
      </contour>
      <contour>
        <pt x="278" y="442" on="1"/>
        <pt x="160" y="442" on="0"/>
        <pt x="130" y="251" on="1"/>
        <pt x="124" y="212" on="0"/>
        <pt x="124" y="181" on="1"/>
        <pt x="124" y="61" on="0"/>
        <pt x="216" y="61" on="1"/>
        <pt x="264" y="61" on="0"/>
        <pt x="346" y="151" on="0"/>
        <pt x="362" y="251" on="1"/>
        <pt x="369" y="298" on="0"/>
        <pt x="369" y="338" on="1"/>
        <pt x="369" y="442" on="0"/>
      </contour>
      <contour>
        <pt x="212" y="707" on="0"/>
        <pt x="258" y="707" on="0"/>
        <pt x="283" y="679" on="0"/>
        <pt x="283" y="668" on="1"/>
        <pt x="283" y="634" on="0"/>
        <pt x="241" y="596" on="0"/>
        <pt x="195" y="596" on="0"/>
        <pt x="171" y="626" on="0"/>
        <pt x="171" y="637" on="1"/>
        <pt x="171" y="672" on="0"/>
      </contour>
      <contour>
        <pt x="378" y="707" on="0"/>
        <pt x="423" y="707" on="0"/>
        <pt x="448" y="679" on="0"/>
        <pt x="448" y="668" on="1"/>
        <pt x="448" y="634" on="0"/>
        <pt x="406" y="596" on="0"/>
        <pt x="360" y="596" on="0"/>
        <pt x="336" y="626" on="0"/>
        <pt x="336" y="637" on="1"/>
        <pt x="336" y="672" on="0"/>
      </contour>
    </TTGlyph>
    <TTGlyph name="oe" xMin="30" yMin="-13" xMax="777" yMax="516">
      <contour>
        <pt x="748" y="470" on="1"/>
        <pt x="777" y="434" on="0"/>
        <pt x="777" y="323" on="0"/>
        <pt x="745" y="252" on="1"/>
        <pt x="451" y="252" on="1"/>
        <pt x="448" y="228" on="0"/>
        <pt x="448" y="206" on="1"/>
        <pt x="448" y="152" on="0"/>
        <pt x="468" y="114" on="1"/>
        <pt x="495" y="62" on="0"/>
        <pt x="636" y="62" on="0"/>
        <pt x="708" y="99" on="1"/>
        <pt x="726" y="36" on="1"/>
        <pt x="643" y="-13" on="0"/>
        <pt x="551" y="-13" on="1"/>
        <pt x="427" y="-13" on="0"/>
        <pt x="387" y="84" on="1"/>
        <pt x="317" y="-13" on="0"/>
        <pt x="205" y="-13" on="1"/>
        <pt x="109" y="-13" on="0"/>
        <pt x="62" y="50" on="1"/>
        <pt x="31" y="93" on="0"/>
        <pt x="31" y="170" on="1"/>
        <pt x="31" y="207" on="0"/>
        <pt x="38" y="251" on="1"/>
        <pt x="60" y="388" on="0"/>
        <pt x="198" y="516" on="0"/>
        <pt x="294" y="516" on="1"/>
        <pt x="410" y="516" on="0"/>
        <pt x="445" y="423" on="1"/>
        <pt x="516" y="516" on="0"/>
        <pt x="625" y="516" on="1"/>
        <pt x="710" y="516" on="0"/>
      </contour>
      <contour>
        <pt x="360" y="413" on="0"/>
        <pt x="318" y="442" on="0"/>
        <pt x="231" y="442" on="0"/>
        <pt x="147" y="358" on="0"/>
        <pt x="130" y="251" on="1"/>
        <pt x="124" y="213" on="0"/>
        <pt x="124" y="182" on="1"/>
        <pt x="124" y="61" on="0"/>
        <pt x="219" y="61" on="1"/>
        <pt x="267" y="61" on="0"/>
        <pt x="351" y="151" on="0"/>
        <pt x="367" y="251" on="1"/>
        <pt x="376" y="295" on="0"/>
        <pt x="376" y="353" on="0"/>
        <pt x="371" y="370" on="1"/>
      </contour>
      <contour>
        <pt x="688" y="319" on="1"/>
        <pt x="692" y="347" on="0"/>
        <pt x="692" y="359" on="1"/>
        <pt x="692" y="442" on="0"/>
        <pt x="619" y="442" on="1"/>
        <pt x="551" y="442" on="0"/>
        <pt x="513" y="393" on="1"/>
        <pt x="486" y="359" on="0"/>
        <pt x="471" y="319" on="1"/>
      </contour>
    </TTGlyph>
    <TTGlyph name="ogonek" xMin="40" yMin="-221" xMax="233" yMax="-13">
      <contour>
        <pt x="132" y="-124" on="0"/>
        <pt x="150" y="-143" on="0"/>
        <pt x="193" y="-143" on="0"/>
        <pt x="231" y="-130" on="1"/>
        <pt x="233" y="-200" on="1"/>
        <pt x="180" y="-221" on="0"/>
        <pt x="89" y="-221" on="0"/>
        <pt x="41" y="-178" on="0"/>
        <pt x="41" y="-150" on="1"/>
        <pt x="41" y="-144" on="0"/>
        <pt x="42" y="-137" on="1"/>
        <pt x="52" y="-72" on="0"/>
        <pt x="120" y="-13" on="1"/>
        <pt x="202" y="-13" on="1"/>
        <pt x="140" y="-70" on="0"/>
        <pt x="134" y="-108" on="1"/>
      </contour>
    </TTGlyph>
    <TTGlyph name="ograve" xMin="30" yMin="-13" xMax="462" yMax="754">
      <contour>
        <pt x="296" y="-13" on="0"/>
        <pt x="108" y="-13" on="0"/>
        <pt x="62" y="50" on="1"/>
        <pt x="31" y="93" on="0"/>
        <pt x="31" y="170" on="1"/>
        <pt x="31" y="206" on="0"/>
        <pt x="38" y="251" on="1"/>
        <pt x="60" y="388" on="0"/>
        <pt x="197" y="516" on="0"/>
        <pt x="385" y="516" on="0"/>
        <pt x="430" y="453" on="1"/>
        <pt x="461" y="411" on="0"/>
        <pt x="461" y="334" on="1"/>
        <pt x="461" y="297" on="0"/>
        <pt x="454" y="252" on="1"/>
        <pt x="433" y="115" on="0"/>
      </contour>
      <contour>
        <pt x="278" y="442" on="1"/>
        <pt x="160" y="442" on="0"/>
        <pt x="130" y="251" on="1"/>
        <pt x="124" y="212" on="0"/>
        <pt x="124" y="181" on="1"/>
        <pt x="124" y="61" on="0"/>
        <pt x="216" y="61" on="1"/>
        <pt x="264" y="61" on="0"/>
        <pt x="346" y="151" on="0"/>
        <pt x="362" y="251" on="1"/>
        <pt x="369" y="298" on="0"/>
        <pt x="369" y="338" on="1"/>
        <pt x="369" y="442" on="0"/>
      </contour>
      <contour>
        <pt x="370" y="577" on="1"/>
        <pt x="214" y="681" on="1"/>
        <pt x="274" y="754" on="1"/>
        <pt x="415" y="632" on="1"/>
      </contour>
    </TTGlyph>
    <TTGlyph name="one" xMin="57" yMin="0" xMax="334" yMax="668">
      <contour>
        <pt x="229" y="0" on="1"/>
        <pt x="136" y="0" on="1"/>
        <pt x="228" y="585" on="1"/>
        <pt x="74" y="518" on="1"/>
        <pt x="57" y="585" on="1"/>
        <pt x="255" y="668" on="1"/>
        <pt x="334" y="668" on="1"/>
      </contour>
    </TTGlyph>
    <TTGlyph name="onehalf" xMin="76" yMin="-45" xMax="693" yMax="729">
      <contour>
        <pt x="605" y="261" on="0"/>
        <pt x="616" y="283" on="0"/>
        <pt x="618" y="300" on="0"/>
        <pt x="618" y="327" on="0"/>
        <pt x="594" y="352" on="0"/>
        <pt x="526" y="352" on="0"/>
        <pt x="489" y="334" on="1"/>
        <pt x="477" y="385" on="1"/>
        <pt x="540" y="414" on="0"/>
        <pt x="588" y="414" on="1"/>
        <pt x="692" y="414" on="0"/>
        <pt x="692" y="326" on="1"/>
        <pt x="692" y="313" on="0"/>
        <pt x="690" y="299" on="1"/>
        <pt x="682" y="248" on="0"/>
        <pt x="619" y="177" on="1"/>
        <pt x="539" y="90" on="0"/>
        <pt x="509" y="62" on="1"/>
        <pt x="668" y="62" on="1"/>
        <pt x="659" y="0" on="1"/>
        <pt x="402" y="0" on="1"/>
        <pt x="410" y="56" on="1"/>
        <pt x="462" y="102" on="0"/>
        <pt x="531" y="175" on="0"/>
        <pt x="561" y="206" on="0"/>
        <pt x="571" y="218" on="0"/>
        <pt x="595" y="245" on="0"/>
      </contour>
      <contour>
        <pt x="196" y="291" on="1"/>
        <pt x="122" y="291" on="1"/>
        <pt x="176" y="633" on="1"/>
        <pt x="89" y="592" on="1"/>
        <pt x="76" y="649" on="1"/>
        <pt x="202" y="700" on="1"/>
        <pt x="260" y="700" on="1"/>
      </contour>
      <contour>
        <pt x="592" y="703" on="1"/>
        <pt x="156" y="-45" on="1"/>
        <pt x="85" y="-19" on="1"/>
        <pt x="523" y="729" on="1"/>
      </contour>
    </TTGlyph>
    <TTGlyph name="onequarter" xMin="76" yMin="-45" xMax="667" yMax="729">
      <contour>
        <pt x="658" y="111" on="1"/>
        <pt x="590" y="111" on="1"/>
        <pt x="573" y="0" on="1"/>
        <pt x="508" y="0" on="1"/>
        <pt x="525" y="111" on="1"/>
        <pt x="361" y="111" on="1"/>
        <pt x="368" y="153" on="1"/>
        <pt x="539" y="400" on="1"/>
        <pt x="636" y="400" on="1"/>
        <pt x="599" y="166" on="1"/>
        <pt x="667" y="166" on="1"/>
      </contour>
      <contour>
        <pt x="534" y="166" on="1"/>
        <pt x="561" y="334" on="1"/>
        <pt x="448" y="166" on="1"/>
      </contour>
      <contour>
        <pt x="196" y="291" on="1"/>
        <pt x="122" y="291" on="1"/>
        <pt x="176" y="633" on="1"/>
        <pt x="89" y="592" on="1"/>
        <pt x="76" y="649" on="1"/>
        <pt x="202" y="700" on="1"/>
        <pt x="260" y="700" on="1"/>
      </contour>
      <contour>
        <pt x="599" y="703" on="1"/>
        <pt x="163" y="-45" on="1"/>
        <pt x="92" y="-19" on="1"/>
        <pt x="530" y="729" on="1"/>
      </contour>
    </TTGlyph>
    <TTGlyph name="onesuperior" xMin="56" yMin="259" xMax="240" yMax="668">
      <contour>
        <pt x="176" y="259" on="1"/>
        <pt x="102" y="259" on="1"/>
        <pt x="156" y="601" on="1"/>
        <pt x="69" y="560" on="1"/>
        <pt x="56" y="617" on="1"/>
        <pt x="182" y="668" on="1"/>
        <pt x="240" y="668" on="1"/>
      </contour>
    </TTGlyph>
    <TTGlyph name="ordfeminine" xMin="71" yMin="404" xMax="320" yMax="702">
      <contour>
        <pt x="228" y="433" on="1"/>
        <pt x="193" y="404" on="0"/>
        <pt x="104" y="404" on="0"/>
        <pt x="72" y="442" on="0"/>
        <pt x="72" y="467" on="1"/>
        <pt x="72" y="475" on="0"/>
        <pt x="73" y="484" on="1"/>
        <pt x="81" y="529" on="0"/>
        <pt x="148" y="564" on="0"/>
        <pt x="213" y="564" on="0"/>
        <pt x="240" y="560" on="1"/>
        <pt x="247" y="601" on="1"/>
        <pt x="249" y="612" on="0"/>
        <pt x="249" y="637" on="0"/>
        <pt x="234" y="656" on="0"/>
        <pt x="177" y="656" on="0"/>
        <pt x="129" y="640" on="1"/>
        <pt x="122" y="678" on="1"/>
        <pt x="161" y="702" on="0"/>
        <pt x="272" y="702" on="0"/>
        <pt x="291" y="678" on="1"/>
        <pt x="304" y="662" on="0"/>
        <pt x="304" y="616" on="0"/>
        <pt x="301" y="598" on="1"/>
        <pt x="280" y="463" on="1"/>
        <pt x="278" y="446" on="0"/>
        <pt x="288" y="446" on="1"/>
        <pt x="292" y="446" on="0"/>
        <pt x="314" y="452" on="1"/>
        <pt x="320" y="417" on="1"/>
        <pt x="299" y="404" on="0"/>
        <pt x="231" y="404" on="0"/>
        <pt x="225" y="433" on="1"/>
      </contour>
      <contour>
        <pt x="196" y="531" on="1"/>
        <pt x="123" y="531" on="0"/>
        <pt x="123" y="478" on="1"/>
        <pt x="123" y="448" on="0"/>
        <pt x="193" y="448" on="0"/>
        <pt x="225" y="467" on="1"/>
        <pt x="235" y="529" on="1"/>
        <pt x="227" y="531" on="0"/>
      </contour>
    </TTGlyph>
    <TTGlyph name="ordmasculine" xMin="83" yMin="404" xMax="328" yMax="702">
      <contour>
        <pt x="233" y="404" on="0"/>
        <pt x="127" y="404" on="0"/>
        <pt x="101" y="440" on="1"/>
        <pt x="83" y="464" on="0"/>
        <pt x="83" y="496" on="1"/>
        <pt x="83" y="615" on="0"/>
        <pt x="138" y="666" on="1"/>
        <pt x="177" y="702" on="0"/>
        <pt x="230" y="702" on="1"/>
        <pt x="327" y="702" on="0"/>
        <pt x="327" y="599" on="1"/>
        <pt x="327" y="578" on="0"/>
        <pt x="323" y="553" on="1"/>
        <pt x="311" y="476" on="0"/>
      </contour>
      <contour>
        <pt x="271" y="599" on="1"/>
        <pt x="271" y="657" on="0"/>
        <pt x="222" y="657" on="1"/>
        <pt x="159" y="657" on="0"/>
        <pt x="142" y="553" on="1"/>
        <pt x="138" y="531" on="0"/>
        <pt x="138" y="514" on="1"/>
        <pt x="138" y="449" on="0"/>
        <pt x="189" y="449" on="1"/>
        <pt x="214" y="449" on="0"/>
        <pt x="258" y="498" on="0"/>
        <pt x="271" y="580" on="0"/>
      </contour>
    </TTGlyph>
    <TTGlyph name="oslash" xMin="19" yMin="-86" xMax="483" yMax="573">
      <contour>
        <pt x="31" y="174" on="1"/>
        <pt x="31" y="209" on="0"/>
        <pt x="38" y="251" on="1"/>
        <pt x="60" y="388" on="0"/>
        <pt x="198" y="516" on="0"/>
        <pt x="294" y="516" on="1"/>
        <pt x="341" y="516" on="0"/>
        <pt x="380" y="499" on="1"/>
        <pt x="427" y="573" on="1"/>
        <pt x="483" y="549" on="1"/>
        <pt x="428" y="463" on="1"/>
        <pt x="467" y="416" on="0"/>
        <pt x="467" y="331" on="1"/>
        <pt x="467" y="295" on="0"/>
        <pt x="460" y="252" on="1"/>
        <pt x="439" y="115" on="0"/>
        <pt x="301" y="-13" on="0"/>
        <pt x="205" y="-13" on="1"/>
        <pt x="163" y="-13" on="0"/>
        <pt x="130" y="-1" on="1"/>
        <pt x="76" y="-86" on="1"/>
        <pt x="19" y="-62" on="1"/>
        <pt x="78" y="31" on="1"/>
        <pt x="31" y="79" on="0"/>
      </contour>
      <contour>
        <pt x="281" y="442" on="1"/>
        <pt x="231" y="442" on="0"/>
        <pt x="147" y="358" on="0"/>
        <pt x="130" y="251" on="1"/>
        <pt x="124" y="211" on="0"/>
        <pt x="124" y="141" on="0"/>
        <pt x="133" y="116" on="1"/>
        <pt x="336" y="430" on="1"/>
        <pt x="315" y="442" on="0"/>
      </contour>
      <contour>
        <pt x="219" y="61" on="1"/>
        <pt x="267" y="61" on="0"/>
        <pt x="352" y="151" on="0"/>
        <pt x="368" y="251" on="1"/>
        <pt x="375" y="295" on="0"/>
        <pt x="375" y="354" on="0"/>
        <pt x="371" y="374" on="1"/>
        <pt x="175" y="69" on="1"/>
        <pt x="191" y="61" on="0"/>
      </contour>
    </TTGlyph>
    <TTGlyph name="otilde" xMin="29" yMin="-13" xMax="477" yMax="701">
      <contour>
        <pt x="295" y="-13" on="0"/>
        <pt x="107" y="-13" on="0"/>
        <pt x="61" y="50" on="1"/>
        <pt x="30" y="93" on="0"/>
        <pt x="30" y="170" on="1"/>
        <pt x="30" y="206" on="0"/>
        <pt x="37" y="251" on="1"/>
        <pt x="59" y="388" on="0"/>
        <pt x="196" y="516" on="0"/>
        <pt x="384" y="516" on="0"/>
        <pt x="430" y="453" on="1"/>
        <pt x="460" y="411" on="0"/>
        <pt x="460" y="334" on="1"/>
        <pt x="460" y="297" on="0"/>
        <pt x="453" y="252" on="1"/>
        <pt x="432" y="115" on="0"/>
      </contour>
      <contour>
        <pt x="277" y="442" on="1"/>
        <pt x="159" y="442" on="0"/>
        <pt x="129" y="251" on="1"/>
        <pt x="123" y="212" on="0"/>
        <pt x="123" y="181" on="1"/>
        <pt x="123" y="61" on="0"/>
        <pt x="215" y="61" on="1"/>
        <pt x="263" y="61" on="0"/>
        <pt x="345" y="151" on="0"/>
        <pt x="361" y="251" on="1"/>
        <pt x="368" y="298" on="0"/>
        <pt x="368" y="338" on="1"/>
        <pt x="368" y="442" on="0"/>
      </contour>
      <contour>
        <pt x="163" y="660" on="0"/>
        <pt x="223" y="701" on="0"/>
        <pt x="271" y="701" on="0"/>
        <pt x="357" y="658" on="0"/>
        <pt x="395" y="658" on="0"/>
        <pt x="439" y="700" on="1"/>
        <pt x="477" y="664" on="1"/>
        <pt x="451" y="630" on="0"/>
        <pt x="385" y="587" on="0"/>
        <pt x="334" y="587" on="0"/>
        <pt x="253" y="630" on="0"/>
        <pt x="216" y="630" on="0"/>
        <pt x="178" y="593" on="1"/>
        <pt x="140" y="630" on="1"/>
      </contour>
    </TTGlyph>
    <TTGlyph name="p" xMin="-15" yMin="-224" xMax="474" yMax="516">
      <contour>
        <pt x="216" y="63" on="1"/>
        <pt x="342" y="63" on="0"/>
        <pt x="373" y="262" on="1"/>
        <pt x="379" y="301" on="0"/>
        <pt x="379" y="332" on="1"/>
        <pt x="379" y="440" on="0"/>
        <pt x="300" y="440" on="1"/>
        <pt x="244" y="440" on="0"/>
        <pt x="173" y="396" on="1"/>
        <pt x="123" y="77" on="1"/>
        <pt x="171" y="63" on="0"/>
      </contour>
      <contour>
        <pt x="326" y="516" on="1"/>
        <pt x="416" y="516" on="0"/>
        <pt x="451" y="448" on="1"/>
        <pt x="474" y="404" on="0"/>
        <pt x="474" y="304" on="0"/>
        <pt x="458" y="205" on="0"/>
        <pt x="421" y="111" on="0"/>
        <pt x="391" y="71" on="1"/>
        <pt x="328" y="-13" on="0"/>
        <pt x="203" y="-13" on="1"/>
        <pt x="152" y="-13" on="0"/>
        <pt x="112" y="7" on="1"/>
        <pt x="77" y="-214" on="1"/>
        <pt x="-15" y="-224" on="1"/>
        <pt x="101" y="507" on="1"/>
        <pt x="177" y="507" on="1"/>
        <pt x="177" y="465" on="1"/>
        <pt x="250" y="516" on="0"/>
      </contour>
    </TTGlyph>
    <TTGlyph name="paragraph" xMin="55" yMin="-162" xMax="540" yMax="668">
      <contour>
        <pt x="56" y="484" on="1"/>
        <pt x="56" y="566" on="0"/>
        <pt x="122" y="622" on="1"/>
        <pt x="176" y="668" on="0"/>
        <pt x="242" y="668" on="1"/>
        <pt x="540" y="668" on="1"/>
        <pt x="530" y="604" on="1"/>
        <pt x="458" y="604" on="1"/>
        <pt x="337" y="-162" on="1"/>
        <pt x="263" y="-162" on="1"/>
        <pt x="384" y="604" on="1"/>
        <pt x="310" y="604" on="1"/>
        <pt x="189" y="-162" on="1"/>
        <pt x="111" y="-162" on="1"/>
        <pt x="192" y="351" on="1"/>
        <pt x="126" y="351" on="0"/>
        <pt x="87" y="398" on="1"/>
        <pt x="56" y="435" on="0"/>
      </contour>
    </TTGlyph>
    <TTGlyph name="parenleft" xMin="37" yMin="-135" xMax="331" yMax="753">
      <contour>
        <pt x="331" y="710" on="1"/>
        <pt x="130" y="454" on="0"/>
        <pt x="130" y="214" on="1"/>
        <pt x="130" y="64" on="0"/>
        <pt x="204" y="-92" on="1"/>
        <pt x="131" y="-135" on="1"/>
        <pt x="37" y="40" on="0"/>
        <pt x="37" y="212" on="1"/>
        <pt x="37" y="478" on="0"/>
        <pt x="272" y="753" on="1"/>
      </contour>
    </TTGlyph>
    <TTGlyph name="parenright" xMin="-36" yMin="-135" xMax="256" yMax="753">
      <contour>
        <pt x="-36" y="-92" on="1"/>
        <pt x="165" y="166" on="0"/>
        <pt x="165" y="405" on="1"/>
        <pt x="165" y="552" on="0"/>
        <pt x="91" y="710" on="1"/>
        <pt x="164" y="753" on="1"/>
        <pt x="256" y="579" on="0"/>
        <pt x="256" y="409" on="1"/>
        <pt x="256" y="359" on="0"/>
        <pt x="248" y="309" on="1"/>
        <pt x="214" y="89" on="0"/>
        <pt x="23" y="-135" on="1"/>
      </contour>
    </TTGlyph>
    <TTGlyph name="percent" xMin="133" yMin="-13" xMax="753" yMax="701">
      <contour>
        <pt x="255" y="0" on="1"/>
        <pt x="163" y="0" on="1"/>
        <pt x="636" y="701" on="1"/>
        <pt x="727" y="701" on="1"/>
      </contour>
      <contour>
        <pt x="241" y="307" on="1"/>
        <pt x="134" y="307" on="0"/>
        <pt x="134" y="425" on="1"/>
        <pt x="134" y="456" on="0"/>
        <pt x="140" y="497" on="1"/>
        <pt x="158" y="607" on="0"/>
        <pt x="244" y="691" on="0"/>
        <pt x="366" y="691" on="0"/>
        <pt x="395" y="650" on="1"/>
        <pt x="413" y="624" on="0"/>
        <pt x="413" y="540" on="0"/>
        <pt x="406" y="498" on="1"/>
        <pt x="389" y="389" on="0"/>
        <pt x="303" y="307" on="0"/>
      </contour>
      <contour>
        <pt x="338" y="559" on="1"/>
        <pt x="338" y="626" on="0"/>
        <pt x="293" y="626" on="1"/>
        <pt x="234" y="626" on="0"/>
        <pt x="215" y="499" on="1"/>
        <pt x="210" y="460" on="0"/>
        <pt x="210" y="434" on="1"/>
        <pt x="210" y="372" on="0"/>
        <pt x="252" y="372" on="1"/>
        <pt x="313" y="372" on="0"/>
        <pt x="333" y="499" on="1"/>
        <pt x="338" y="534" on="0"/>
      </contour>
      <contour>
        <pt x="580" y="-13" on="1"/>
        <pt x="474" y="-13" on="0"/>
        <pt x="474" y="104" on="1"/>
        <pt x="474" y="136" on="0"/>
        <pt x="480" y="177" on="1"/>
        <pt x="497" y="287" on="0"/>
        <pt x="583" y="371" on="0"/>
        <pt x="705" y="371" on="0"/>
        <pt x="734" y="330" on="1"/>
        <pt x="752" y="303" on="0"/>
        <pt x="752" y="219" on="0"/>
        <pt x="746" y="178" on="1"/>
        <pt x="729" y="69" on="0"/>
        <pt x="642" y="-13" on="0"/>
      </contour>
      <contour>
        <pt x="548" y="118" on="1"/>
        <pt x="548" y="52" on="0"/>
        <pt x="592" y="52" on="1"/>
        <pt x="621" y="52" on="0"/>
        <pt x="661" y="108" on="0"/>
        <pt x="677" y="211" on="0"/>
        <pt x="677" y="235" on="1"/>
        <pt x="677" y="306" on="0"/>
        <pt x="632" y="306" on="1"/>
        <pt x="574" y="306" on="0"/>
        <pt x="554" y="179" on="1"/>
        <pt x="548" y="143" on="0"/>
      </contour>
    </TTGlyph>
    <TTGlyph name="period" xMin="12" yMin="-6" xMax="137" yMax="117">
      <contour>
        <pt x="59" y="117" on="0"/>
        <pt x="109" y="117" on="0"/>
        <pt x="137" y="86" on="0"/>
        <pt x="137" y="74" on="1"/>
        <pt x="137" y="36" on="0"/>
        <pt x="90" y="-6" on="0"/>
        <pt x="40" y="-6" on="0"/>
        <pt x="13" y="26" on="0"/>
        <pt x="13" y="39" on="1"/>
        <pt x="13" y="78" on="0"/>
      </contour>
    </TTGlyph>
    <TTGlyph name="periodcentered" xMin="47" yMin="190" xMax="193" yMax="333">
      <contour>
        <pt x="102" y="333" on="0"/>
        <pt x="160" y="333" on="0"/>
        <pt x="192" y="296" on="0"/>
        <pt x="192" y="276" on="1"/>
        <pt x="192" y="240" on="0"/>
        <pt x="138" y="190" on="0"/>
        <pt x="80" y="190" on="0"/>
        <pt x="48" y="229" on="0"/>
        <pt x="48" y="251" on="1"/>
        <pt x="48" y="287" on="0"/>
      </contour>
    </TTGlyph>
    <TTGlyph name="perthousand" xMin="58" yMin="-42" xMax="1026" yMax="732">
      <contour>
        <pt x="594" y="415" on="1"/>
        <pt x="701" y="415" on="0"/>
        <pt x="701" y="292" on="1"/>
        <pt x="701" y="255" on="0"/>
        <pt x="693" y="206" on="1"/>
        <pt x="674" y="91" on="0"/>
        <pt x="591" y="-4" on="0"/>
        <pt x="526" y="-4" on="1"/>
        <pt x="418" y="-4" on="0"/>
        <pt x="418" y="120" on="1"/>
        <pt x="418" y="156" on="0"/>
        <pt x="426" y="204" on="1"/>
        <pt x="445" y="320" on="0"/>
        <pt x="528" y="415" on="0"/>
      </contour>
      <contour>
        <pt x="629" y="324" on="1"/>
        <pt x="618" y="353" on="0"/>
        <pt x="547" y="353" on="0"/>
        <pt x="506" y="290" on="0"/>
        <pt x="492" y="206" on="1"/>
        <pt x="486" y="158" on="0"/>
        <pt x="486" y="101" on="0"/>
        <pt x="490" y="88" on="1"/>
        <pt x="501" y="60" on="0"/>
        <pt x="572" y="60" on="0"/>
        <pt x="614" y="121" on="0"/>
        <pt x="634" y="252" on="0"/>
        <pt x="634" y="309" on="0"/>
      </contour>
      <contour>
        <pt x="918" y="415" on="1"/>
        <pt x="1025" y="415" on="0"/>
        <pt x="1025" y="292" on="1"/>
        <pt x="1025" y="255" on="0"/>
        <pt x="1017" y="206" on="1"/>
        <pt x="998" y="91" on="0"/>
        <pt x="915" y="-4" on="0"/>
        <pt x="850" y="-4" on="1"/>
        <pt x="742" y="-4" on="0"/>
        <pt x="742" y="120" on="1"/>
        <pt x="742" y="156" on="0"/>
        <pt x="750" y="204" on="1"/>
        <pt x="769" y="320" on="0"/>
        <pt x="852" y="415" on="0"/>
      </contour>
      <contour>
        <pt x="953" y="324" on="1"/>
        <pt x="942" y="353" on="0"/>
        <pt x="871" y="353" on="0"/>
        <pt x="830" y="290" on="0"/>
        <pt x="816" y="206" on="1"/>
        <pt x="810" y="158" on="0"/>
        <pt x="810" y="101" on="0"/>
        <pt x="814" y="88" on="1"/>
        <pt x="825" y="60" on="0"/>
        <pt x="896" y="60" on="0"/>
        <pt x="938" y="121" on="0"/>
        <pt x="958" y="252" on="0"/>
        <pt x="958" y="309" on="0"/>
      </contour>
      <contour>
        <pt x="165" y="296" on="1"/>
        <pt x="59" y="296" on="0"/>
        <pt x="59" y="421" on="1"/>
        <pt x="59" y="457" on="0"/>
        <pt x="66" y="504" on="1"/>
        <pt x="84" y="620" on="0"/>
        <pt x="169" y="715" on="0"/>
        <pt x="300" y="715" on="0"/>
        <pt x="326" y="668" on="1"/>
        <pt x="341" y="641" on="0"/>
        <pt x="341" y="553" on="0"/>
        <pt x="334" y="506" on="1"/>
        <pt x="315" y="391" on="0"/>
        <pt x="231" y="296" on="0"/>
      </contour>
      <contour>
        <pt x="269" y="624" on="1"/>
        <pt x="258" y="653" on="0"/>
        <pt x="187" y="653" on="0"/>
        <pt x="145" y="590" on="0"/>
        <pt x="126" y="458" on="0"/>
        <pt x="126" y="401" on="0"/>
        <pt x="130" y="388" on="1"/>
        <pt x="141" y="360" on="0"/>
        <pt x="212" y="360" on="0"/>
        <pt x="254" y="421" on="0"/>
        <pt x="274" y="552" on="0"/>
        <pt x="274" y="609" on="0"/>
      </contour>
      <contour>
        <pt x="624" y="706" on="1"/>
        <pt x="189" y="-42" on="1"/>
        <pt x="118" y="-16" on="1"/>
        <pt x="555" y="732" on="1"/>
      </contour>
    </TTGlyph>
    <TTGlyph name="plus" xMin="31" yMin="85" xMax="428" yMax="470">
      <contour>
        <pt x="238" y="85" on="1"/>
        <pt x="159" y="85" on="1"/>
        <pt x="183" y="239" on="1"/>
        <pt x="31" y="239" on="1"/>
        <pt x="44" y="318" on="1"/>
        <pt x="196" y="318" on="1"/>
        <pt x="220" y="470" on="1"/>
        <pt x="299" y="470" on="1"/>
        <pt x="275" y="318" on="1"/>
        <pt x="428" y="318" on="1"/>
        <pt x="415" y="239" on="1"/>
        <pt x="262" y="239" on="1"/>
      </contour>
    </TTGlyph>
    <TTGlyph name="plus.001" xMin="87" yMin="85" xMax="484" yMax="470">
      <contour>
        <pt x="294" y="85" on="1"/>
        <pt x="215" y="85" on="1"/>
        <pt x="239" y="239" on="1"/>
        <pt x="87" y="239" on="1"/>
        <pt x="100" y="318" on="1"/>
        <pt x="252" y="318" on="1"/>
        <pt x="276" y="470" on="1"/>
        <pt x="355" y="470" on="1"/>
        <pt x="331" y="318" on="1"/>
        <pt x="484" y="318" on="1"/>
        <pt x="471" y="239" on="1"/>
        <pt x="318" y="239" on="1"/>
      </contour>
    </TTGlyph>
    <TTGlyph name="plusminus" xMin="9" yMin="0" xMax="452" yMax="526">
      <contour>
        <pt x="263" y="142" on="1"/>
        <pt x="183" y="142" on="1"/>
        <pt x="207" y="295" on="1"/>
        <pt x="55" y="295" on="1"/>
        <pt x="68" y="376" on="1"/>
        <pt x="220" y="376" on="1"/>
        <pt x="244" y="526" on="1"/>
        <pt x="324" y="526" on="1"/>
        <pt x="300" y="376" on="1"/>
        <pt x="452" y="376" on="1"/>
        <pt x="439" y="295" on="1"/>
        <pt x="287" y="295" on="1"/>
      </contour>
      <contour>
        <pt x="405" y="80" on="1"/>
        <pt x="393" y="0" on="1"/>
        <pt x="9" y="0" on="1"/>
        <pt x="21" y="80" on="1"/>
      </contour>
    </TTGlyph>
    <TTGlyph name="q" xMin="30" yMin="-221" xMax="478" yMax="508">
      <contour>
        <pt x="289" y="432" on="1"/>
        <pt x="162" y="432" on="0"/>
        <pt x="131" y="246" on="1"/>
        <pt x="125" y="206" on="0"/>
        <pt x="125" y="175" on="1"/>
        <pt x="125" y="63" on="0"/>
        <pt x="204" y="63" on="1"/>
        <pt x="267" y="63" on="0"/>
        <pt x="328" y="101" on="1"/>
        <pt x="379" y="422" on="1"/>
        <pt x="346" y="432" on="0"/>
      </contour>
      <contour>
        <pt x="317" y="29" on="1"/>
        <pt x="255" y="-13" on="0"/>
        <pt x="89" y="-13" on="0"/>
        <pt x="54" y="57" on="1"/>
        <pt x="30" y="103" on="0"/>
        <pt x="30" y="205" on="0"/>
        <pt x="37" y="246" on="1"/>
        <pt x="80" y="508" on="0"/>
        <pt x="301" y="508" on="1"/>
        <pt x="405" y="508" on="0"/>
        <pt x="478" y="476" on="1"/>
        <pt x="367" y="-221" on="1"/>
        <pt x="279" y="-212" on="1"/>
      </contour>
    </TTGlyph>
    <TTGlyph name="question" xMin="11" yMin="-13" xMax="350" yMax="691">
      <contour>
        <pt x="258" y="518" on="1"/>
        <pt x="258" y="553" on="0"/>
        <pt x="226" y="576" on="1"/>
        <pt x="183" y="606" on="0"/>
        <pt x="97" y="614" on="1"/>
        <pt x="127" y="691" on="1"/>
        <pt x="241" y="686" on="0"/>
        <pt x="304" y="633" on="1"/>
        <pt x="349" y="594" on="0"/>
        <pt x="349" y="538" on="1"/>
        <pt x="349" y="447" on="0"/>
        <pt x="266" y="381" on="1"/>
        <pt x="240" y="361" on="0"/>
        <pt x="214" y="341" on="1"/>
        <pt x="153" y="294" on="0"/>
        <pt x="136" y="225" on="1"/>
        <pt x="125" y="166" on="1"/>
        <pt x="48" y="166" on="1"/>
        <pt x="51" y="217" on="0"/>
        <pt x="57" y="238" on="1"/>
        <pt x="68" y="285" on="0"/>
        <pt x="129" y="363" on="0"/>
        <pt x="160" y="385" on="1"/>
        <pt x="258" y="456" on="0"/>
      </contour>
      <contour>
        <pt x="17" y="75" on="0"/>
        <pt x="58" y="110" on="0"/>
        <pt x="109" y="110" on="0"/>
        <pt x="135" y="79" on="0"/>
        <pt x="135" y="67" on="1"/>
        <pt x="135" y="28" on="0"/>
        <pt x="88" y="-13" on="0"/>
        <pt x="38" y="-13" on="0"/>
        <pt x="11" y="20" on="0"/>
        <pt x="11" y="45" on="0"/>
        <pt x="12" y="50" on="1"/>
      </contour>
    </TTGlyph>
</ttFont>
